{
.appVersion = "3436";
.formatVersion = 3;
DisplayStrings = (
"fucking hellog",
"Hoefler's Lowercase Proof:


glyphs = (
{
glyphname = A;
lastChange = "2025-11-30 18:01:19 +0000";
layers = (
{
anchors = (
{
name = bottom;
pos = (606,0);
},
{
name = ogonek;
pos = (1127,0);
},
{
name = top;
pos = (606,1485);
}
);
layerId = m004;
shapes = (
{
closed = 1;
nodes = (
(975,500,l),
(237,500,l),
(237,416,l),
(975,416,l)
);
},
{
closed = 1;
nodes = (
(119,0,ls),
(130,0,o),
(137,5,o),
(141,16,cs),
(614,1439,l),
(577,1436,l),
(1051,16,ls),
(1055,5,o),
(1062,0,o),
(1073,0,c),
(1127,0,ls),
(1141,0,o),
(1148,9,o),
(1143,23,cs),
(660,1464,ls),
(656,1475,o),
(649,1480,o),
(638,1480,cs),
(553,1480,ls),
(542,1480,o),
(535,1475,o),
(531,1464,cs),
(48,23,ls),
(43,9,o),
(50,0,o),
(64,0,cs)
);
}
);
width = 1191;
},
{
anchors = (
{
name = bottom;
pos = (683,0);
},
{
name = ogonek;
pos = (1249,0);
},
{
name = top;
pos = (683,1485);
}
);
layerId = m005;
shapes = (
{
closed = 1;
nodes = (
(1000,539,l),
(362,539,l),
(366,281,l),
(1004,281,l)
);
},
{
closed = 1;
nodes = (
(319,0,ls),
(342,0,o),
(357,11,o),
(364,33,cs),
(778,1277,l),
(604,1277,l),
(1016,33,ls),
(1023,10,o),
(1038,0,o),
(1061,0,cs),
(1301,0,ls),
(1330,0,o),
(1343,19,o),
(1333,46,cs),
(844,1448,ls),
(836,1470,o),
(822,1480,o),
(799,1480,cs),
(582,1480,ls),
(559,1480,o),
(545,1470,o),
(537,1448,cs),
(48,46,ls),
(38,19,o),
(51,0,o),
(80,0,cs)
);
}
);
width = 1381;
},
{
anchors = (
{
name = bottom;
pos = (641,0);
},
{
name = ogonek;
pos = (1180,12);
},
{
name = top;
pos = (641,1485);
}
);
layerId = "1B8EDE0E-D46F-48F9-B9C6-2CD34FEA95FD";
shapes = (
{
closed = 1;
nodes = (
(964,510,l),
(313,510,l),
(315,348,l),
(966,348,l)
);
},
{
closed = 1;
nodes = (
(205,0,ls),
(222,0,o),
(234,8,o),
(239,24,cs),
(668,1297,l),
(605,1297,l),
(1033,24,ls),
(1038,8,o),
(1050,0,o),
(1067,0,cs),
(1197,0,ls),
(1219,0,o),
(1228,14,o),
(1221,34,cs),
(733,1456,ls),
(727,1472,o),
(716,1480,o),
(699,1480,cs),
(570,1480,ls),
(553,1480,o),
(542,1472,o),
(536,1456,cs),
(48,34,ls),
(41,14,o),
(50,0,o),
(72,0,cs)
);
}
);
width = 1269;
}
);
metricRight = "=|";
unicode = 65;
},
{
glyphname = AE;
lastChange = "2025-11-30 20:32:31 +0000";
layers = (
{
anchors = (
{
name = bottom;
pos = (754,0);
},
{
name = top;
pos = (754,1633);
}
);
layerId = m004;
shapes = (
{
closed = 1;
nodes = (
(126,0,ls),
(137,0,o),
(144,4,o),
(149,15,cs),
(370,484,l),
(847,484,l),
(847,0,l),
(1535,0,ls),
(1548,0,o),
(1555,7,o),
(1555,20,cs),
(1555,61,ls),
(1555,74,o),
(1548,81,o),
(1535,81,cs),
(941,81,l),
(941,732,l),
(1451,732,ls),
(1464,732,o),
(1471,739,o),
(1471,752,cs),
(1471,793,ls),
(1471,806,o),
(1464,813,o),
(1451,813,cs),
(941,813,l),
(941,1404,l),
(1535,1404,ls),
(1548,1404,o),
(1555,1411,o),
(1555,1424,cs),
(1555,1465,ls),
(1555,1478,o),
(1548,1485,o),
(1535,1485,cs),
(754,1485,ls),
(743,1485,o),
(736,1481,o),
(731,1470,cs),
(48,24,ls),
(42,10,o),
(48,0,o),
(63,0,cs)
);
},
{
closed = 1;
nodes = (
(823,1443,l),
(760,1404,l),
(847,1404,l),
(847,576,l),
(414,576,l)
);
}
);
width = 1640;
},
{
anchors = (
{
name = bottom;
pos = (887,0);
},
{
name = top;
pos = (887,1633);
}
);
layerId = "1B8EDE0E-D46F-48F9-B9C6-2CD34FEA95FD";
shapes = (
{
closed = 1;
nodes = (
(233,0,ls),
(250,0,o),
(261,6,o),
(268,22,cs),
(464,439,l),
(911,439,l),
(911,0,l),
(1665,0,ls),
(1684,0,o),
(1695,11,o),
(1695,30,cs),
(1695,141,ls),
(1695,161,o),
(1684,171,o),
(1665,171,cs),
(1114,171,l),
(1114,686,l),
(1562,686,ls),
(1581,686,o),
(1592,696,o),
(1592,716,cs),
(1592,830,ls),
(1592,850,o),
(1581,860,o),
(1562,860,cs),
(1114,860,l),
(1114,1314,l),
(1665,1314,ls),
(1684,1314,o),
(1695,1325,o),
(1695,1344,cs),
(1695,1455,ls),
(1695,1475,o),
(1684,1485,o),
(1665,1485,cs),
(776,1485,ls),
(760,1485,o),
(747,1478,o),
(740,1463,cs),
(50,35,ls),
(40,14,o),
(49,0,o),
(72,0,cs)
);
},
{
closed = 1;
nodes = (
(913,1399,l),
(783,1317,l),
(911,1317,l),
(911,608,l),
(542,608,l)
);
}
);
width = 1798;
},
{
anchors = (
{
name = bottom;
pos = (1060,0);
},
{
name = top;
pos = (1060,1633);
}
);
layerId = m005;
shapes = (
{
closed = 1;
nodes = (
(332,0,ls),
(354,0,o),
(369,10,o),
(378,30,cs),
(520,352,l),
(945,352,l),
(945,0,l),
(1781,0,ls),
(1807,0,o),
(1821,14,o),
(1821,40,cs),
(1821,234,ls),
(1821,260,o),
(1807,274,o),
(1781,274,cs),
(1251,274,l),
(1251,632,l),
(1672,632,ls),
(1698,632,o),
(1712,646,o),
(1712,672,cs),
(1712,871,ls),
(1712,897,o),
(1698,911,o),
(1672,911,cs),
(1251,911,l),
(1251,1212,l),
(1781,1212,ls),
(1807,1212,o),
(1821,1226,o),
(1821,1252,cs),
(1821,1445,ls),
(1821,1471,o),
(1807,1485,o),
(1781,1485,cs),
(738,1485,ls),
(716,1485,o),
(700,1476,o),
(691,1455,cs),
(50,47,ls),
(37,20,o),
(51,0,o),
(81,0,cs)
);
},
{
closed = 1;
nodes = (
(954,1337,l),
(763,1212,l),
(945,1212,l),
(945,629,l),
(644,629,l)
);
}
);
width = 1879;
}
);
metricLeft = "=A";
metricRight = "=E";
unicode = 198;
},
{
glyphname = B;
lastChange = "2025-11-30 19:27:05 +0000";
layers = (
{
anchors = (
{
name = bottom;
pos = (620,0);
},
{
name = center;
pos = (329,445);
},
{
name = top;
pos = (620,1485);
}
);
layerId = m004;
shapes = (
{
closed = 1;
nodes = (
(669,0,l),
(669,80,l),
(226,80,l),
(226,734,l),
(668,734,l),
(668,814,l),
(226,814,l),
(226,1400,l),
(613,1400,l),
(613,1480,l),
(150,1480,ls),
(137,1480,o),
(130,1473,o),
(130,1460,cs),
(130,20,ls),
(130,7,o),
(137,0,o),
(150,0,cs)
);
},
{
closed = 1;
nodes = (
(884,742,o),
(1022,905,o),
(1022,1108,c),
(1022,1288,o),
(922,1480,o),
(613,1480,c),
(613,1400,l),
(829,1400,o),
(928,1271,o),
(928,1106,cs),
(928,943,o),
(823,814,o),
(636,814,c),
(636,742,l)
);
},
{
closed = 1;
nodes = (
(988,0,o),
(1090,160,o),
(1090,405,c),
(1090,671,o),
(914,810,o),
(668,810,c),
(668,734,l),
(919,734,o),
(996,590,o),
(996,403,cs),
(996,216,o),
(919,80,o),
(668,80,c),
(668,0,l)
);
}
);
width = 1195;
},
{
anchors = (
{
name = bottom;
pos = (648,0);
},
{
name = center;
pos = (328,445);
},
{
name = top;
pos = (648,1485);
}
);
layerId = m005;
shapes = (
{
closed = 1;
nodes = (
(724,0,l),
(724,261,l),
(429,261,l),
(429,654,l),
(795,654,l),
(795,886,l),
(429,886,l),
(429,1224,l),
(703,1224,l),
(703,1485,l),
(163,1485,ls),
(137,1485,o),
(123,1471,o),
(123,1445,cs),
(123,40,ls),
(123,14,o),
(137,0,o),
(163,0,cs)
);
},
{
closed = 1;
nodes = (
(990,671,o),
(1173,799,o),
(1173,1063,cs),
(1173,1283,o),
(1022,1485,o),
(703,1485,c),
(703,1224,l),
(827,1224,o),
(867,1148,o),
(867,1056,cs),
(867,969,o),
(827,886,o),
(703,886,c),
(703,671,l)
);
},
{
closed = 1;
nodes = (
(1061,0,o),
(1240,148,o),
(1240,445,cs),
(1240,779,o),
(906,869,o),
(700,869,c),
(700,654,l),
(863,654,o),
(934,571,o),
(934,457,cs),
(934,342,o),
(863,261,o),
(724,261,c),
(724,0,l)
);
}
);
width = 1327;
},
{
anchors = (
{
name = bottom;
pos = (608,0);
},
{
name = center;
pos = (299,445);
},
{
name = top;
pos = (608,1485);
}
);
layerId = "1B8EDE0E-D46F-48F9-B9C6-2CD34FEA95FD";
shapes = (
{
closed = 1;
nodes = (
(712,0,l),
(712,160,l),
(347,160,l),
(347,669,l),
(727,669,l),
(727,829,l),
(347,829,l),
(347,1319,l),
(707,1319,l),
(707,1480,l),
(180,1480,ls),
(161,1480,o),
(150,1470,o),
(150,1450,cs),
(150,30,ls),
(150,11,o),
(161,0,o),
(180,0,cs)
);
},
{
closed = 1;
nodes = (
(1018,704,o),
(1127,843,o),
(1127,1073,cs),
(1127,1300,o),
(992,1480,o),
(707,1480,c),
(707,1319,l),
(885,1319,o),
(943,1178,o),
(943,1079,cs),
(943,977,o),
(879,829,o),
(707,829,c),
(707,704,l)
);
},
{
closed = 1;
nodes = (
(1029,0,o),
(1188,131,o),
(1188,411,cs),
(1188,697,o),
(939,823,o),
(701,823,c),
(701,669,l),
(943,669,o),
(1005,549,o),
(1005,412,cs),
(1005,277,o),
(933,160,o),
(712,160,c),
(712,0,l)
);
}
);
width = 1279;
}
);
metricLeft = "=H";
unicode = 66;
},
{
glyphname = C;
lastChange = "2025-11-30 17:29:44 +0000";
layers = (
{
anchors = (
{
name = bottom;
pos = (644,0);
},
{
name = top;
pos = (631,1485);
}
);
background = {
shapes = (
{
closed = 1;
nodes = (
(319,-9,o),
(427,34,o),
(427,169,c),
(394,169,l),
(394,61,o),
(313,17,o),
(243,18,cs),
(173,19,o),
(92,61,o),
(92,169,c),
(92,335,l),
(92,451,o),
(173,493,o),
(243,494,cs),
(313,495,o),
(394,451,o),
(394,335,c),
(427,335,l),
(427,478,o),
(319,521,o),
(243,521,cs),
(167,521,o),
(59,478,o),
(59,335,c),
(59,169,l),
(59,34,o),
(167,-9,o),
(243,-9,cs)
);
}
);
};
layerId = m004;
shapes = (
{
closed = 1;
nodes = (
(832,-24,o),
(1125,77,o),
(1171,400,cs),
(1174,423,o),
(1167,436,o),
(1154,436,cs),
(1110,436,ls),
(1098,436,o),
(1090,430,o),
(1089,417,cs),
(1055,159,o),
(846,54,o),
(644,56,cs),
(441,58,o),
(206,188,o),
(206,506,cs),
(206,954,ls),
(206,1291,o),
(441,1422,o),
(644,1424,cs),
(852,1426,o),
(1049,1315,o),
(1089,1039,cs),
(1090,1026,o),
(1098,1020,o),
(1110,1020,cs),
(1157,1020,ls),
(1170,1020,o),
(1177,1028,o),
(1176,1042,cs),
(1134,1394,o),
(842,1504,o),
(644,1504,cs),
(425,1504,o),
(110,1368,o),
(110,954,cs),
(110,506,ls),
(110,113,o),
(425,-24,o),
(644,-24,cs)
);
}
);
width = 1278;
},
{
anchors = (
{
name = bottom;
pos = (689,0);
},
{
name = top;
pos = (689,1485);
}
);
background = {
shapes = (
{
closed = 0;
nodes = (
(709,253,ls)
);
}
);
};
layerId = m005;
shapes = (
{
closed = 1;
nodes = (
(966,-24,o),
(1258,117,o),
(1300,460,cs),
(1305,497,o),
(1289,517,o),
(1263,517,cs),
(1037,517,ls),
(1012,517,o),
(999,504,o),
(995,479,cs),
(969,311,o),
(850,254,o),
(709,256,cs),
(551,258,o),
(396,313,o),
(396,636,cs),
(396,845,ls),
(396,1168,o),
(551,1223,o),
(709,1224,cs),
(847,1227,o),
(959,1165,o),
(997,1001,cs),
(1003,976,o),
(1017,964,o),
(1041,964,cs),
(1266,964,ls),
(1293,964,o),
(1307,979,o),
(1304,1007,cs),
(1257,1361,o),
(960,1504,o),
(709,1504,cs),
(448,1504,o),
(90,1372,o),
(90,845,cs),
(90,636,ls),
(90,108,o),
(448,-24,o),
(709,-24,cs)
);
}
);
width = 1388;
},
{
anchors = (
{
name = bottom;
pos = (682,0);
},
{
name = top;
pos = (682,1485);
}
);
layerId = "1B8EDE0E-D46F-48F9-B9C6-2CD34FEA95FD";
shapes = (
{
closed = 1;
nodes = (
(917,-24,o),
(1185,89,o),
(1240,410,cs),
(1245,439,o),
(1234,455,o),
(1214,455,cs),
(1074,455,ls),
(1056,455,o),
(1045,446,o),
(1042,427,cs),
(1002,217,o),
(856,148,o),
(686,148,cs),
(447,148,o),
(317,302,o),
(317,582,c),
(317,894,l),
(317,1176,o),
(446,1332,o),
(686,1332,cs),
(856,1332,o),
(999,1256,o),
(1042,1045,cs),
(1046,1026,o),
(1057,1017,o),
(1075,1017,cs),
(1217,1017,ls),
(1237,1017,o),
(1248,1029,o),
(1245,1049,cs),
(1195,1380,o),
(920,1504,o),
(686,1504,cs),
(444,1504,o),
(120,1378,o),
(120,894,c),
(120,582,l),
(120,102,o),
(444,-24,o),
(686,-24,cs)
);
}
);
width = 1356;
}
);
metricLeft = O;
unicode = 67;
},
{
glyphname = D;
lastChange = "2025-11-30 17:33:16 +0000";
layers = (
{
anchors = (
{
name = bottom;
pos = (632,0);
},
{
name = center;
pos = (333,742);
},
{
name = top;
pos = (632,1485);
}
);
layerId = m004;
shapes = (
{
closed = 1;
nodes = (
(226,1400,l),
(609,1400,ls),
(810,1400,o),
(1022,1274,o),
(1022,962,cs),
(1022,496,ls),
(1022,206,o),
(810,80,o),
(609,80,cs),
(226,80,l)
);
},
{
closed = 1;
nodes = (
(609,0,ls),
(849,0,o),
(1109,129,o),
(1109,496,cs),
(1109,962,ls),
(1109,1351,o),
(849,1480,o),
(609,1480,cs),
(150,1480,ls),
(137,1480,o),
(130,1473,o),
(130,1460,cs),
(130,20,ls),
(130,7,o),
(137,0,o),
(150,0,cs)
);
}
);
width = 1219;
},
{
anchors = (
{
name = bottom;
pos = (679,30);
},
{
name = center;
pos = (294,847);
},
{
name = top;
pos = (679,1663);
}
);
layerId = m005;
shapes = (
{
closed = 1;
nodes = (
(429,1205,l),
(614,1205,ls),
(795,1205,o),
(953,1143,o),
(953,825,cs),
(953,661,ls),
(953,340,o),
(795,278,o),
(614,278,cs),
(429,278,l)
);
},
{
closed = 1;
nodes = (
(635,0,ls),
(893,0,o),
(1259,107,o),
(1259,661,cs),
(1259,825,ls),
(1259,1378,o),
(893,1485,o),
(635,1485,cs),
(163,1485,ls),
(137,1485,o),
(123,1471,o),
(123,1445,cs),
(123,40,ls),
(123,14,o),
(137,0,o),
(163,0,cs)
);
}
);
width = 1349;
},
{
anchors = (
{
name = bottom;
pos = (653,0);
},
{
name = center;
pos = (291,816);
},
{
name = top;
pos = (653,1633);
}
);
layerId = "1B8EDE0E-D46F-48F9-B9C6-2CD34FEA95FD";
shapes = (
{
closed = 1;
nodes = (
(350,1301,l),
(611,1301,ls),
(801,1301,o),
(1000,1229,o),
(1000,875,cs),
(1000,610,ls),
(1000,252,o),
(806,178,o),
(611,178,cs),
(350,178,l)
);
},
{
closed = 1;
nodes = (
(627,0,ls),
(861,0,o),
(1197,109,o),
(1197,610,cs),
(1197,875,ls),
(1197,1371,o),
(859,1480,o),
(627,1480,cs),
(180,1480,ls),
(161,1480,o),
(150,1470,o),
(150,1450,cs),
(150,30,ls),
(150,11,o),
(161,0,o),
(180,0,cs)
);
}
);
width = 1317;
}
);
metricLeft = "=H";
metricRight = "=O";
unicode = 68;
},
{
glyphname = E;
lastChange = "2025-11-30 17:33:37 +0000";
layers = (
{
anchors = (
{
name = bottom;
pos = (552,0);
},
{
name = ogonek;
pos = (945,12);
},
{
name = top;
pos = (552,1485);
},
{
name = topleft;
pos = (84,1485);
}
);
layerId = m004;
shapes = (
{
closed = 1;
nodes = (
(1008,0,ls),
(1021,0,o),
(1028,7,o),
(1028,20,cs),
(1028,58,ls),
(1028,71,o),
(1021,78,o),
(1008,78,cs),
(226,78,l),
(226,718,l),
(879,718,ls),
(892,718,o),
(899,725,o),
(899,738,cs),
(899,778,ls),
(899,791,o),
(892,798,o),
(879,798,cs),
(226,798,l),
(226,1402,l),
(1008,1402,ls),
(1021,1402,o),
(1028,1409,o),
(1028,1422,cs),
(1028,1460,ls),
(1028,1473,o),
(1021,1480,o),
(1008,1480,cs),
(150,1480,ls),
(137,1480,o),
(130,1473,o),
(130,1460,cs),
(130,20,ls),
(130,7,o),
(137,0,o),
(150,0,cs)
);
}
);
width = 1113;
},
{
anchors = (
{
name = bottom;
pos = (589,0);
},
{
name = ogonek;
pos = (1061,23);
},
{
name = top;
pos = (589,1485);
},
{
name = topleft;
pos = (42,1485);
}
);
layerId = m005;
shapes = (
{
closed = 1;
nodes = (
(1094,0,ls),
(1120,0,o),
(1134,14,o),
(1134,40,cs),
(1134,234,ls),
(1134,260,o),
(1120,274,o),
(1094,274,cs),
(429,274,l),
(429,623,l),
(976,623,ls),
(1002,623,o),
(1016,637,o),
(1016,663,cs),
(1016,863,ls),
(1016,889,o),
(1002,903,o),
(976,903,cs),
(429,903,l),
(429,1206,l),
(1094,1206,ls),
(1120,1206,o),
(1134,1220,o),
(1134,1246,cs),
(1134,1440,ls),
(1134,1466,o),
(1120,1480,o),
(1094,1480,cs),
(163,1480,ls),
(137,1480,o),
(123,1466,o),
(123,1440,cs),
(123,40,ls),
(123,14,o),
(137,0,o),
(163,0,cs)
);
}
);
width = 1192;
},
{
anchors = (
{
name = bottom;
pos = (546,0);
},
{
name = ogonek;
pos = (984,23);
},
{
name = top;
pos = (546,1485);
},
{
name = topleft;
pos = (43,1485);
}
);
layerId = "1B8EDE0E-D46F-48F9-B9C6-2CD34FEA95FD";
shapes = (
{
closed = 1;
nodes = (
(1064,0,ls),
(1083,0,o),
(1094,11,o),
(1094,30,cs),
(1094,140,ls),
(1094,160,o),
(1083,170,o),
(1064,170,cs),
(350,170,l),
(350,670,l),
(938,670,ls),
(957,670,o),
(968,680,o),
(968,700,cs),
(968,814,ls),
(968,834,o),
(957,844,o),
(938,844,cs),
(350,844,l),
(350,1310,l),
(1064,1310,ls),
(1083,1310,o),
(1094,1321,o),
(1094,1340,cs),
(1094,1450,ls),
(1094,1470,o),
(1083,1480,o),
(1064,1480,cs),
(180,1480,ls),
(161,1480,o),
(150,1470,o),
(150,1450,cs),
(150,30,ls),
(150,11,o),
(161,0,o),
(180,0,cs)
);
}
);
width = 1197;
}
);
metricLeft = "=H";
unicode = 69;
},
{
glyphname = F;
lastChange = "2025-11-30 17:55:45 +0000";
layers = (
{
anchors = (
{
name = bottom;
pos = (517,0);
},
{
name = top;
pos = (517,1485);
}
);
layerId = m004;
shapes = (
{
closed = 1;
nodes = (
(206,0,ls),
(219,0,o),
(226,7,o),
(226,20,cs),
(226,603,l),
(848,603,ls),
(861,603,o),
(868,610,o),
(868,623,cs),
(868,663,ls),
(868,676,o),
(861,683,o),
(848,683,cs),
(226,683,l),
(226,1402,l),
(944,1402,ls),
(957,1402,o),
(964,1409,o),
(964,1422,cs),
(964,1460,ls),
(964,1473,o),
(957,1480,o),
(944,1480,cs),
(150,1480,ls),
(137,1480,o),
(130,1473,o),
(130,1460,cs),
(130,20,ls),
(130,7,o),
(137,0,o),
(150,0,cs)
);
}
);
width = 1049;
},
{
anchors = (
{
name = bottom;
pos = (463,-270);
},
{
name = top;
pos = (463,1215);
}
);
layerId = m005;
shapes = (
{
closed = 1;
nodes = (
(389,0,ls),
(415,0,o),
(429,14,o),
(429,40,cs),
(429,534,l),
(949,534,ls),
(975,534,o),
(989,548,o),
(989,574,cs),
(989,773,ls),
(989,799,o),
(975,813,o),
(949,813,cs),
(429,813,l),
(429,1206,l),
(1026,1206,ls),
(1052,1206,o),
(1066,1220,o),
(1066,1246,cs),
(1066,1440,ls),
(1066,1466,o),
(1052,1480,o),
(1026,1480,cs),
(163,1480,ls),
(137,1480,o),
(123,1466,o),
(123,1440,cs),
(123,40,ls),
(123,14,o),
(137,0,o),
(163,0,cs)
);
}
);
width = 1124;
},
{
anchors = (
{
name = bottom;
pos = (535,0);
},
{
name = top;
pos = (535,1485);
}
);
layerId = "1B8EDE0E-D46F-48F9-B9C6-2CD34FEA95FD";
shapes = (
{
closed = 1;
nodes = (
(320,0,ls),
(339,0,o),
(350,10,o),
(350,30,cs),
(350,586,l),
(915,586,ls),
(934,586,o),
(945,596,o),
(945,616,cs),
(945,728,ls),
(945,748,o),
(934,758,o),
(915,758,cs),
(350,758,l),
(350,1313,l),
(1006,1313,ls),
(1025,1313,o),
(1036,1324,o),
(1036,1343,cs),
(1036,1450,ls),
(1036,1470,o),
(1025,1480,o),
(1006,1480,cs),
(180,1480,ls),
(161,1480,o),
(150,1470,o),
(150,1450,cs),
(150,30,ls),
(150,11,o),
(161,0,o),
(180,0,cs)
);
}
);
width = 1128;
}
);
metricLeft = "=H";
unicode = 70;
},
{
glyphname = G;
lastChange = "2025-11-30 17:35:10 +0000";
layers = (
{
anchors = (
{
name = bottom;
pos = (654,0);
},
{
name = top;
pos = (654,1485);
}
);
background = {
shapes = (
{
closed = 1;
nodes = (
(1096,523,ls),
(1096,242,o),
(918,56,o),
(651,56,cs),
(384,56,o),
(204,250,o),
(204,523,cs),
(204,958,ls),
(204,1231,o),
(384,1424,o),
(651,1424,cs),
(918,1424,o),
(1096,1240,o),
(1096,958,cs)
);
},
{
closed = 1;
nodes = (
(110,523,ls),
(110,185,o),
(332,-24,o),
(651,-24,cs),
(968,-24,o),
(1190,185,o),
(1190,523,cs),
(1190,958,ls),
(1190,1295,o),
(968,1504,o),
(651,1504,cs),
(332,1504,o),
(110,1295,o),
(110,958,cs)
);
}
);
};
layerId = m004;
shapes = (
{
closed = 1;
nodes = (
(1147,0,ls),
(1160,0,o),
(1167,7,o),
(1167,20,cs),
(1167,725,ls),
(1167,738,o),
(1160,745,o),
(1147,745,cs),
(806,745,ls),
(793,745,o),
(786,738,o),
(786,725,cs),
(786,683,ls),
(786,670,o),
(793,663,o),
(806,663,cs),
(1074,663,l),
(1072,196,l),
(1072,174,l),
(1093,19,ls),
(1095,6,o),
(1102,0,o),
(1114,0,cs)
);
},
{
closed = 1;
nodes = (
(850,-24,o),
(1095,43,o),
(1122,436,c),
(1074,436,l),
(1044,166,o),
(908,56,o),
(645,56,cs),
(394,56,o),
(204,250,o),
(204,523,c),
(204,958,ls),
(204,1231,o),
(384,1424,o),
(651,1424,cs),
(892,1424,o),
(1057,1280,o),
(1089,1039,cs),
(1090,1026,o),
(1098,1020,o),
(1110,1020,cs),
(1166,1020,ls),
(1179,1020,o),
(1186,1028,o),
(1184,1041,cs),
(1146,1322,o),
(950,1504,o),
(651,1504,cs),
(332,1504,o),
(110,1295,o),
(110,959,cs),
(110,523,ls),
(110,185,o),
(342,-24,o),
(645,-24,cs)
);
}
);
width = 1291;
},
{
anchors = (
{
name = bottom;
pos = (693,13);
},
{
name = top;
pos = (693,1499);
}
);
guides = (
{
pos = (320,-100);
}
);
layerId = m005;
shapes = (
{
closed = 1;
nodes = (
(1264,0,ls),
(1290,0,o),
(1304,14,o),
(1304,40,cs),
(1304,737,ls),
(1304,763,o),
(1290,777,o),
(1264,777,cs),
(804,777,ls),
(778,777,o),
(764,763,o),
(764,737,cs),
(764,576,ls),
(764,550,o),
(778,536,o),
(804,536,cs),
(998,536,l),
(998,107,l),
(1022,107,l),
(1038,35,ls),
(1043,12,o),
(1058,0,o),
(1082,0,cs)
);
},
{
closed = 1;
nodes = (
(970,-24,o),
(1098,132,o),
(1122,517,c),
(998,536,l),
(999,385,o),
(915,235,o),
(709,237,cs),
(551,239,o),
(396,294,o),
(396,636,cs),
(396,845,ls),
(396,1187,o),
(551,1242,o),
(709,1243,cs),
(859,1246,o),
(972,1183,o),
(1009,1001,cs),
(1014,976,o),
(1028,964,o),
(1052,964,cs),
(1278,964,ls),
(1305,964,o),
(1319,979,o),
(1316,1007,cs),
(1268,1361,o),
(970,1504,o),
(709,1504,cs),
(448,1504,o),
(90,1372,o),
(90,845,cs),
(90,636,ls),
(90,108,o),
(403,-24,o),
(663,-24,cs)
);
}
);
width = 1428;
},
{
anchors = (
{
name = bottom;
pos = (684,13);
},
{
name = top;
pos = (684,1499);
}
);
background = {
shapes = (
{
closed = 1;
nodes = (
(736,385,l),
(736,198,o),
(642,95,o),
(474,95,c),
(307,95,o),
(215,198,o),
(215,385,c),
(215,636,l),
(215,826,o),
(307,929,o),
(474,929,cs),
(643,929,o),
(736,826,o),
(736,636,c)
);
},
{
closed = 1;
nodes = (
(79,385,ls),
(79,139,o),
(233,-24,o),
(474,-24,cs),
(717,-24,o),
(872,137,o),
(872,385,cs),
(872,636,ls),
(872,886,o),
(718,1048,o),
(474,1048,cs),
(232,1048,o),
(79,885,o),
(79,636,cs)
);
}
);
};
layerId = "1B8EDE0E-D46F-48F9-B9C6-2CD34FEA95FD";
shapes = (
{
closed = 1;
nodes = (
(1215,0,ls),
(1234,0,o),
(1245,10,o),
(1245,30,cs),
(1245,717,ls),
(1245,737,o),
(1234,747,o),
(1215,747,cs),
(805,747,ls),
(786,747,o),
(775,736,o),
(775,717,cs),
(775,610,ls),
(775,591,o),
(786,580,o),
(805,580,cs),
(1050,580,l),
(1050,131,l),
(1066,131,l),
(1088,27,ls),
(1092,10,o),
(1103,0,o),
(1121,0,cs)
);
},
{
closed = 1;
nodes = (
(904,-23,o),
(1148,64,o),
(1117,467,c),
(1050,467,l),
(1050,282,o),
(918,149,o),
(692,149,cs),
(450,149,o),
(317,298,o),
(317,570,cs),
(317,898,ls),
(317,1182,o),
(450,1332,o),
(692,1332,cs),
(880,1332,o),
(1036,1247,o),
(1068,1041,cs),
(1070,1023,o),
(1081,1013,o),
(1099,1013,cs),
(1229,1013,ls),
(1249,1013,o),
(1260,1025,o),
(1258,1045,cs),
(1216,1368,o),
(950,1504,o),
(692,1504,cs),
(341,1504,o),
(120,1268,o),
(120,898,cs),
(120,570,ls),
(120,213,o),
(343,-23,o),
(692,-23,cs)
);
}
);
width = 1387;
}
);
metricLeft = "=O";
unicode = 71;
},
{
glyphname = H;
lastChange = "2025-12-01 20:58:22 +0000";
layers = (
{
anchors = (
{
name = bottom;
pos = (636,0);
},
{
name = center;
pos = (636,1186);
},
{
name = top;
pos = (636,1485);
},
{
name = topleft;
pos = (10,1485);
}
);
layerId = m004;
shapes = (
{
closed = 1;
nodes = (
(130,20,ls),
(130,7,o),
(137,0,o),
(150,0,cs),
(206,0,ls),
(219,0,o),
(226,7,o),
(226,20,cs),
(226,718,l),
(1045,718,l),
(1045,20,ls),
(1045,7,o),
(1052,0,o),
(1065,0,cs),
(1121,0,ls),
(1134,0,o),
(1141,7,o),
(1141,20,cs),
(1141,1460,ls),
(1141,1473,o),
(1134,1480,o),
(1121,1480,cs),
(1065,1480,ls),
(1052,1480,o),
(1045,1473,o),
(1045,1460,cs),
(1045,798,l),
(226,798,l),
(226,1460,ls),
(226,1473,o),
(219,1480,o),
(206,1480,cs),
(150,1480,ls),
(137,1480,o),
(130,1473,o),
(130,1460,cs)
);
}
);
width = 1271;
},
{
anchors = (
{
name = bottom;
pos = (699,0);
},
{
name = center;
pos = (699,1188);
},
{
name = top;
pos = (699,1485);
},
{
name = topleft;
pos = (20,1485);
}
);
layerId = m005;
shapes = (
{
closed = 1;
nodes = (
(123,40,ls),
(123,14,o),
(137,0,o),
(163,0,cs),
(389,0,ls),
(415,0,o),
(429,14,o),
(429,40,cs),
(429,635,l),
(967,635,l),
(967,40,ls),
(967,14,o),
(981,0,o),
(1007,0,cs),
(1235,0,ls),
(1261,0,o),
(1275,14,o),
(1275,40,cs),
(1275,1440,ls),
(1275,1466,o),
(1261,1480,o),
(1235,1480,cs),
(1007,1480,ls),
(981,1480,o),
(967,1466,o),
(967,1440,cs),
(967,914,l),
(429,914,l),
(429,1440,ls),
(429,1466,o),
(415,1480,o),
(389,1480,cs),
(163,1480,ls),
(137,1480,o),
(123,1466,o),
(123,1440,cs)
);
}
);
width = 1398;
},
{
anchors = (
{
name = bottom;
pos = (681,-3);
},
{
name = center;
pos = (681,1186);
},
{
name = top;
pos = (681,1483);
},
{
name = topleft;
pos = (43,1483);
}
);
layerId = "1B8EDE0E-D46F-48F9-B9C6-2CD34FEA95FD";
shapes = (
{
closed = 1;
nodes = (
(150,30,ls),
(150,11,o),
(161,0,o),
(180,0,cs),
(323,0,ls),
(342,0,o),
(353,10,o),
(353,30,cs),
(353,666,l),
(1028,666,l),
(1028,30,ls),
(1028,11,o),
(1039,0,o),
(1058,0,cs),
(1201,0,ls),
(1220,0,o),
(1231,10,o),
(1231,30,cs),
(1231,1450,ls),
(1231,1470,o),
(1220,1480,o),
(1201,1480,cs),
(1058,1480,ls),
(1039,1480,o),
(1028,1470,o),
(1028,1450,cs),
(1028,840,l),
(353,840,l),
(353,1450,ls),
(353,1470,o),
(342,1480,o),
(323,1480,cs),
(180,1480,ls),
(161,1480,o),
(150,1470,o),
(150,1450,cs)
);
}
);
width = 1381;
}
);
metricRight = "=|";
unicode = 72;
},
{
glyphname = I;
lastChange = "2025-11-30 17:56:21 +0000";
layers = (
{
anchors = (
{
name = bottom;
pos = (181,0);
},
{
name = ogonek;
pos = (363,13);
},
{
name = top;
pos = (181,1633);
},
{
name = topleft;
pos = (-21,1633);
}
);
layerId = m004;
shapes = (
{
closed = 1;
nodes = (
(150,1485,ls),
(137,1485,o),
(130,1478,o),
(130,1465,cs),
(130,20,ls),
(130,7,o),
(137,0,o),
(150,0,cs),
(205,0,ls),
(218,0,o),
(225,7,o),
(225,20,cs),
(225,1465,ls),
(225,1478,o),
(218,1485,o),
(205,1485,cs)
);
}
);
width = 355;
},
{
anchors = (
{
name = bottom;
pos = (276,13);
},
{
name = ogonek;
pos = (519,36);
},
{
name = top;
pos = (276,1499);
},
{
name = topleft;
pos = (20,1499);
}
);
layerId = m005;
shapes = (
{
closed = 1;
nodes = (
(163,1480,ls),
(137,1480,o),
(123,1466,o),
(123,1440,cs),
(123,40,ls),
(123,14,o),
(137,0,o),
(163,0,cs),
(389,0,ls),
(415,0,o),
(429,14,o),
(429,40,cs),
(429,1440,ls),
(429,1466,o),
(415,1480,o),
(389,1480,cs)
);
}
);
width = 552;
},
{
anchors = (
{
name = bottom;
pos = (253,0);
},
{
name = ogonek;
pos = (477,25);
},
{
name = top;
pos = (253,1633);
},
{
name = topleft;
pos = (21,1633);
}
);
layerId = "1B8EDE0E-D46F-48F9-B9C6-2CD34FEA95FD";
shapes = (
{
closed = 1;
nodes = (
(180,1480,ls),
(161,1480,o),
(150,1470,o),
(150,1450,cs),
(150,30,ls),
(150,11,o),
(161,0,o),
(180,0,cs),
(323,0,ls),
(342,0,o),
(353,10,o),
(353,30,cs),
(353,1450,ls),
(353,1470,o),
(342,1480,o),
(323,1480,cs)
);
}
);
width = 503;
}
);
metricLeft = H;
metricRight = H;
unicode = 73;
},
{
glyphname = J;
lastChange = "2025-11-30 17:58:28 +0000";
layers = (
{
anchors = (
{
name = bottom;
pos = (438,0);
},
{
name = top;
pos = (468,1633);
}
);
layerId = m004;
shapes = (
{
closed = 1;
nodes = (
(686,-24,o),
(822,117,o),
(822,401,cs),
(822,1460,ls),
(822,1473,o),
(815,1480,o),
(802,1480,cs),
(746,1480,ls),
(733,1480,o),
(726,1473,o),
(726,1460,cs),
(726,401,ls),
(726,174,o),
(631,57,o),
(438,57,cs),
(247,57,o),
(145,164,o),
(135,401,c),
(135,435,ls),
(135,448,o),
(128,455,o),
(115,455,cs),
(70,455,ls),
(57,455,o),
(50,448,o),
(50,435,cs),
(50,401,l),
(50,117,o),
(188,-24,o),
(438,-24,cs)
);
}
);
width = 952;
},
{
anchors = (
{
name = bottom;
pos = (619,15);
},
{
name = top;
pos = (619,1649);
}
);
layerId = m005;
shapes = (
{
closed = 1;
nodes = (
(821,-24,o),
(983,171,o),
(983,436,cs),
(983,1440,ls),
(983,1466,o),
(969,1480,o),
(943,1480,cs),
(716,1480,ls),
(690,1480,o),
(676,1466,o),
(676,1440,cs),
(676,424,ls),
(676,310,o),
(619,244,o),
(503,244,cs),
(387,244,o),
(326,310,o),
(326,424,cs),
(326,468,ls),
(326,494,o),
(312,508,o),
(286,508,cs),
(72,508,ls),
(46,508,o),
(32,494,o),
(32,468,cs),
(32,436,ls),
(32,171,o),
(194,-24,o),
(506,-24,cs)
);
}
);
width = 1106;
},
{
anchors = (
{
name = bottom;
pos = (522,15);
},
{
name = top;
pos = (522,1649);
}
);
layerId = "1B8EDE0E-D46F-48F9-B9C6-2CD34FEA95FD";
shapes = (
{
closed = 1;
nodes = (
(751,-24,o),
(929,131,o),
(929,445,cs),
(929,1450,ls),
(929,1470,o),
(918,1480,o),
(899,1480,cs),
(756,1480,ls),
(737,1480,o),
(726,1469,o),
(726,1450,cs),
(726,445,ls),
(726,241,o),
(653,151,o),
(483,151,cs),
(313,151,o),
(239,239,o),
(239,444,c),
(239,444,ls),
(239,458,o),
(228,466,o),
(209,466,cs),
(66,466,ls),
(47,466,o),
(36,459,o),
(36,445,cs),
(36,445,l),
(36,131,o),
(215,-24,o),
(483,-24,cs)
);
}
);
width = 1079;
}
);
metricRight = H;
unicode = 74;
},
{
glyphname = K;
lastChange = "2025-11-30 17:58:43 +0000";
layers = (
{
anchors = (
{
name = bottom;
pos = (591,0);
},
{
name = top;
pos = (591,1485);
}
);
layerId = m004;
shapes = (
{
closed = 1;
nodes = (
(206,3,ls),
(219,3,o),
(226,10,o),
(226,23,cs),
(226,1460,ls),
(226,1473,o),
(219,1480,o),
(206,1480,cs),
(150,1480,ls),
(137,1480,o),
(130,1473,o),
(130,1460,cs),
(130,23,ls),
(130,10,o),
(137,3,o),
(150,3,cs)
);
},
{
closed = 1;
nodes = (
(1057,1455,ls),
(1068,1468,o),
(1063,1480,o),
(1046,1480,cs),
(976,1480,ls),
(966,1480,o),
(958,1477,o),
(951,1469,cs),
(184,568,l),
(194,441,l)
);
},
{
closed = 1;
nodes = (
(1108,0,ls),
(1123,0,o),
(1130,11,o),
(1122,24,cs),
(591,977,l),
(525,916,l),
(1027,14,ls),
(1032,4,o),
(1040,0,o),
(1051,0,cs)
);
}
);
width = 1213;
},
{
anchors = (
{
name = bottom;
pos = (650,0);
},
{
name = top;
pos = (650,1485);
}
);
layerId = m005;
shapes = (
{
closed = 1;
nodes = (
(389,0,ls),
(415,0,o),
(429,14,o),
(429,40,cs),
(429,1440,ls),
(429,1466,o),
(415,1480,o),
(389,1480,cs),
(163,1480,ls),
(137,1480,o),
(123,1466,o),
(123,1440,cs),
(123,40,ls),
(123,14,o),
(137,0,o),
(163,0,cs)
);
},
{
closed = 1;
nodes = (
(1290,1431,ls),
(1312,1458,o),
(1301,1480,o),
(1267,1480,cs),
(1004,1480,ls),
(983,1480,o),
(968,1473,o),
(955,1457,cs),
(394,795,l),
(403,373,l)
);
},
{
closed = 1;
nodes = (
(1343,0,ls),
(1374,0,o),
(1386,20,o),
(1371,48,cs),
(831,1015,l),
(624,783,l),
(1045,28,ls),
(1056,8,o),
(1071,0,o),
(1093,0,cs)
);
}
);
width = 1408;
},
{
anchors = (
{
name = bottom;
pos = (616,-354);
},
{
name = top;
pos = (616,1131);
}
);
layerId = "1B8EDE0E-D46F-48F9-B9C6-2CD34FEA95FD";
shapes = (
{
closed = 1;
nodes = (
(323,0,ls),
(342,0,o),
(353,10,o),
(353,30,cs),
(353,1450,ls),
(353,1470,o),
(342,1480,o),
(323,1480,cs),
(180,1480,ls),
(161,1480,o),
(150,1470,o),
(150,1450,cs),
(150,30,ls),
(150,11,o),
(161,0,o),
(180,0,cs)
);
},
{
closed = 1;
nodes = (
(1152,1443,ls),
(1168,1462,o),
(1161,1480,o),
(1135,1480,cs),
(978,1480,ls),
(963,1480,o),
(952,1475,o),
(942,1463,cs),
(294,708,l),
(287,421,l)
);
},
{
closed = 1;
nodes = (
(1213,0,ls),
(1236,0,o),
(1245,16,o),
(1234,36,cs),
(668,1041,l),
(524,889,l),
(1020,21,ls),
(1028,6,o),
(1040,0,o),
(1056,0,cs)
);
}
);
width = 1290;
}
);
metricLeft = "=H";
unicode = 75;
},
{
glyphname = L;
lastChange = "2025-11-30 17:59:00 +0000";
layers = (
{
anchors = (
{
name = bottom;
pos = (578,0);
},
{
name = center;
pos = (578,742);
},
{
name = top;
pos = (179,1480);
},
{
name = topright;
pos = (1039,1485);
}
);
layerId = m004;
shapes = (
{
closed = 1;
nodes = (
(961,0,ls),
(974,0,o),
(981,7,o),
(981,20,cs),
(981,58,ls),
(981,71,o),
(974,78,o),
(961,78,cs),
(223,78,l),
(223,1460,ls),
(223,1473,o),
(216,1480,o),
(203,1480,cs),
(150,1480,ls),
(137,1480,o),
(130,1473,o),
(130,1460,cs),
(130,20,ls),
(130,7,o),
(137,0,o),
(150,0,cs)
);
}
);
width = 1051;
},
{
anchors = (
{
name = bottom;
pos = (367,0);
},
{
name = center;
pos = (367,742);
},
{
name = top;
pos = (367,1485);
},
{
name = topright;
pos = (895,1485);
}
);
layerId = m005;
shapes = (
{
closed = 1;
nodes = (
(1084,0,ls),
(1110,0,o),
(1124,14,o),
(1124,40,cs),
(1124,234,ls),
(1124,260,o),
(1110,274,o),
(1084,274,cs),
(429,274,l),
(429,1440,ls),
(429,1466,o),
(415,1480,o),
(389,1480,cs),
(163,1480,ls),
(137,1480,o),
(123,1466,o),
(123,1440,cs),
(123,40,ls),
(123,14,o),
(137,0,o),
(163,0,cs)
);
}
);
width = 1169;
},
{
anchors = (
{
name = bottom;
pos = (535,0);
},
{
name = center;
pos = (535,742);
},
{
name = top;
pos = (265,1485);
},
{
name = topright;
pos = (1025,1485);
}
);
layerId = "1B8EDE0E-D46F-48F9-B9C6-2CD34FEA95FD";
shapes = (
{
closed = 1;
nodes = (
(1050,0,ls),
(1069,0,o),
(1080,10,o),
(1080,30,cs),
(1080,144,ls),
(1080,164,o),
(1069,174,o),
(1050,174,cs),
(353,174,l),
(353,1450,ls),
(353,1470,o),
(342,1480,o),
(323,1480,cs),
(180,1480,ls),
(161,1480,o),
(150,1470,o),
(150,1450,cs),
(150,30,ls),
(150,11,o),
(161,0,o),
(180,0,cs)
);
}
);
width = 1126;
}
);
metricLeft = "=H";
unicode = 76;
},
{
glyphname = Lslash;
lastChange = "2025-11-30 20:32:31 +0000";
layers = (
{
layerId = m004;
shapes = (
{
ref = L;
},
{
closed = 1;
nodes = (
(18,469,ls),
(18,454,o),
(27,448,o),
(41,453,cs),
(676,705,ls),
(686,709,o),
(692,716,o),
(692,728,cs),
(692,777,ls),
(692,792,o),
(683,798,o),
(669,793,cs),
(34,541,ls),
(24,537,o),
(18,530,o),
(18,518,cs)
);
}
);
width = 1051;
},
{
layerId = "1B8EDE0E-D46F-48F9-B9C6-2CD34FEA95FD";
shapes = (
{
ref = L;
},
{
closed = 1;
nodes = (
(46,481,ls),
(46,459,o),
(60,450,o),
(81,458,cs),
(749,722,ls),
(765,728,o),
(773,739,o),
(773,756,cs),
(773,884,ls),
(773,906,o),
(759,915,o),
(738,907,cs),
(69,641,ls),
(53,634,o),
(46,624,o),
(46,607,cs)
);
}
);
width = 1126;
},
{
layerId = m005;
shapes = (
{
ref = L;
},
{
closed = 1;
nodes = (
(25,494,ls),
(25,464,o),
(43,452,o),
(71,463,cs),
(871,783,ls),
(892,792,o),
(902,806,o),
(902,829,cs),
(902,1035,ls),
(902,1065,o),
(884,1077,o),
(856,1066,cs),
(56,746,ls),
(35,737,o),
(25,723,o),
(25,700,cs)
);
}
);
width = 1169;
}
);
metricRight = "=L";
unicode = 321;
},
{
glyphname = M;
lastChange = "2025-11-30 17:59:33 +0000";
layers = (
{
anchors = (
{
name = bottom;
pos = (890,0);
},
{
name = top;
pos = (890,1633);
}
);
layerId = m004;
shapes = (
{
closed = 1;
nodes = (
(206,0,ls),
(219,0,o),
(226,7,o),
(226,20,cs),
(226,1432,l),
(170,1390,l),
(743,329,ls),
(748,320,o),
(756,315,o),
(767,315,cs),
(810,315,ls),
(821,315,o),
(828,319,o),
(833,329,cs),
(1383,1390,l),
(1325,1432,l),
(1325,20,ls),
(1325,7,o),
(1332,0,o),
(1345,0,cs),
(1401,0,ls),
(1414,0,o),
(1421,7,o),
(1421,20,cs),
(1421,1460,ls),
(1421,1473,o),
(1414,1480,o),
(1401,1480,cs),
(1341,1480,ls),
(1330,1480,o),
(1323,1476,o),
(1318,1466,cs),
(770,406,l),
(805,406,l),
(234,1466,ls),
(229,1475,o),
(221,1480,o),
(210,1480,cs),
(150,1480,ls),
(137,1480,o),
(130,1473,o),
(130,1460,cs),
(130,20,ls),
(130,7,o),
(137,0,o),
(150,0,cs)
);
}
);
width = 1551;
},
{
anchors = (
{
name = bottom;
pos = (856,0);
},
{
name = top;
pos = (856,1485);
}
);
layerId = m005;
shapes = (
{
closed = 1;
nodes = (
(389,0,ls),
(415,0,o),
(429,14,o),
(429,40,cs),
(429,1183,l),
(320,1183,l),
(745,272,ls),
(754,252,o),
(770,242,o),
(792,242,cs),
(971,242,ls),
(994,242,o),
(1009,251,o),
(1018,273,cs),
(1389,1183,l),
(1280,1183,l),
(1280,40,ls),
(1280,14,o),
(1294,0,o),
(1320,0,cs),
(1546,0,ls),
(1572,0,o),
(1586,14,o),
(1586,40,cs),
(1586,1440,ls),
(1586,1466,o),
(1572,1480,o),
(1546,1480,cs),
(1331,1480,ls),
(1309,1480,o),
(1293,1470,o),
(1284,1450,cs),
(794,394,l),
(972,394,l),
(428,1451,ls),
(418,1471,o),
(403,1480,o),
(381,1480,cs),
(163,1480,ls),
(137,1480,o),
(123,1466,o),
(123,1440,cs),
(123,40,ls),
(123,14,o),
(137,0,o),
(163,0,cs)
);
}
);
width = 1709;
},
{
anchors = (
{
name = bottom;
pos = (822,-1);
},
{
name = top;
pos = (822,1633);
}
);
layerId = "1B8EDE0E-D46F-48F9-B9C6-2CD34FEA95FD";
shapes = (
{
closed = 1;
nodes = (
(323,0,ls),
(342,0,o),
(353,11,o),
(353,30,cs),
(353,1258,l),
(310,1210,l),
(732,371,ls),
(739,356,o),
(751,349,o),
(767,349,cs),
(873,349,ls),
(889,349,o),
(901,356,o),
(908,371,cs),
(1333,1210,l),
(1290,1258,l),
(1290,30,ls),
(1290,11,o),
(1301,0,o),
(1320,0,cs),
(1463,0,ls),
(1482,0,o),
(1493,10,o),
(1493,30,cs),
(1493,1450,ls),
(1493,1470,o),
(1482,1480,o),
(1463,1480,cs),
(1313,1480,ls),
(1297,1480,o),
(1286,1473,o),
(1278,1459,cs),
(787,527,l),
(856,527,l),
(367,1459,ls),
(359,1473,o),
(348,1480,o),
(332,1480,cs),
(180,1480,ls),
(161,1480,o),
(150,1470,o),
(150,1450,cs),
(150,30,ls),
(150,11,o),
(161,0,o),
(180,0,cs)
);
}
);
width = 1643;
}
);
metricLeft = H;
metricRight = H;
unicode = 77;
},
{
glyphname = N;
lastChange = "2025-11-30 18:25:15 +0000";
layers = (
{
anchors = (
{
name = bottom;
pos = (645,0);
},
{
name = top;
pos = (645,1485);
}
);
layerId = m004;
shapes = (
{
closed = 1;
nodes = (
(130,20,ls),
(130,7,o),
(137,0,o),
(150,0,cs),
(206,0,ls),
(219,0,o),
(226,7,o),
(226,20,cs),
(226,1373,l),
(171,1373,l),
(1085,13,ls),
(1091,4,o),
(1099,0,o),
(1109,0,cs),
(1140,0,ls),
(1153,0,o),
(1160,7,o),
(1160,20,cs),
(1160,1460,ls),
(1160,1473,o),
(1153,1480,o),
(1140,1480,cs),
(1084,1480,ls),
(1071,1480,o),
(1064,1473,o),
(1064,1460,cs),
(1064,99,l),
(1135,99,l),
(220,1467,ls),
(214,1476,o),
(206,1480,o),
(196,1480,cs),
(150,1480,ls),
(137,1480,o),
(130,1473,o),
(130,1460,cs)
);
}
);
width = 1290;
},
{
anchors = (
{
name = bottom;
pos = (696,0);
},
{
name = top;
pos = (696,1485);
}
);
layerId = m005;
shapes = (
{
closed = 1;
nodes = (
(123,40,ls),
(123,14,o),
(137,0,o),
(163,0,cs),
(389,0,ls),
(415,0,o),
(429,14,o),
(429,40,cs),
(429,1212,l),
(244,1212,l),
(973,27,ls),
(984,8,o),
(999,0,o),
(1020,0,cs),
(1240,0,ls),
(1266,0,o),
(1280,14,o),
(1280,40,cs),
(1280,1440,ls),
(1280,1466,o),
(1266,1480,o),
(1240,1480,cs),
(1014,1480,ls),
(988,1480,o),
(974,1466,o),
(974,1440,cs),
(974,241,l),
(1160,236,l),
(431,1453,ls),
(420,1471,o),
(405,1480,o),
(383,1480,cs),
(163,1480,ls),
(137,1480,o),
(123,1466,o),
(123,1440,cs)
);
}
);
width = 1403;
},
{
anchors = (
{
name = bottom;
pos = (687,0);
},
{
name = top;
pos = (687,1485);
}
);
layerId = "1B8EDE0E-D46F-48F9-B9C6-2CD34FEA95FD";
shapes = (
{
closed = 1;
nodes = (
(150,30,ls),
(150,11,o),
(161,0,o),
(180,0,cs),
(323,0,ls),
(342,0,o),
(353,11,o),
(353,30,cs),
(353,1306,l),
(258,1290,l),
(1027,20,ls),
(1035,6,o),
(1047,0,o),
(1063,0,cs),
(1203,0,ls),
(1222,0,o),
(1233,10,o),
(1233,30,cs),
(1233,1450,ls),
(1233,1470,o),
(1222,1480,o),
(1203,1480,cs),
(1060,1480,ls),
(1041,1480,o),
(1030,1470,o),
(1030,1450,cs),
(1030,167,l),
(1130,181,l),
(361,1460,ls),
(353,1474,o),
(341,1480,o),
(325,1480,cs),
(180,1480,ls),
(161,1480,o),
(150,1470,o),
(150,1450,cs)
);
}
);
width = 1383;
}
);
metricLeft = H;
metricRight = "=|";
unicode = 78;
},
{
glyphname = O;
lastChange = "2025-12-01 22:26:18 +0000";
layers = (
{
anchors = (
{
name = bottom;
pos = (650,0);
},
{
name = center;
pos = (650,740);
},
{
name = ogonek;
pos = (1152,10);
},
{
name = top;
pos = (650,1480);
},
{
name = topleft;
pos = (43,1480);
},
{
name = topright;
pos = (1257,1480);
}
);
layerId = m004;
shapes = (
{
closed = 1;
nodes = (
(1097,523,ls),
(1097,238,o),
(918,52,o),
(651,52,cs),
(384,52,o),
(203,246,o),
(203,523,cs),
(203,958,ls),
(203,1235,o),
(384,1428,o),
(651,1428,cs),
(918,1428,o),
(1097,1244,o),
(1097,958,cs)
);
},
{
closed = 1;
nodes = (
(110,523,ls),
(110,185,o),
(332,-24,o),
(651,-24,cs),
(968,-24,o),
(1190,185,o),
(1190,523,cs),
(1190,958,ls),
(1190,1295,o),
(968,1504,o),
(651,1504,cs),
(332,1504,o),
(110,1295,o),
(110,958,cs)
);
}
);
width = 1300;
},
{
anchors = (
{
name = bottom;
pos = (706,0);
},
{
name = center;
pos = (706,740);
},
{
name = ogonek;
pos = (1270,10);
},
{
name = top;
pos = (706,1480);
},
{
name = topleft;
pos = (20,1480);
},
{
name = topright;
pos = (1391,1480);
}
);
layerId = m005;
shapes = (
{
closed = 1;
nodes = (
(1015,607,ls),
(1015,328,o),
(854,254,o),
(706,256,cs),
(558,259,o),
(397,328,o),
(397,607,cs),
(397,875,ls),
(397,1153,o),
(558,1224,o),
(706,1225,cs),
(854,1228,o),
(1015,1153,o),
(1015,875,cs)
);
},
{
closed = 1;
nodes = (
(90,600,ls),
(90,111,o),
(454,-24,o),
(706,-24,cs),
(960,-24,o),
(1321,111,o),
(1321,600,cs),
(1321,882,ls),
(1321,1372,o),
(960,1504,o),
(706,1504,cs),
(454,1504,o),
(90,1372,o),
(90,882,cs)
);
}
);
width = 1411;
},
{
anchors = (
{
name = bottom;
pos = (695,0);
},
{
name = center;
pos = (695,740);
},
{
name = ogonek;
pos = (1250,10);
},
{
name = top;
pos = (695,1480);
},
{
name = topleft;
pos = (20,1480);
},
{
name = topright;
pos = (1369,1480);
}
);
layerId = "1B8EDE0E-D46F-48F9-B9C6-2CD34FEA95FD";
shapes = (
{
closed = 1;
nodes = (
(1072,569,l),
(1072,297,o),
(916,148,o),
(692,148,cs),
(470,148,o),
(317,297,o),
(317,569,c),
(317,907,l),
(317,1182,o),
(470,1332,o),
(692,1332,cs),
(917,1332,o),
(1072,1182,o),
(1072,907,c)
);
},
{
closed = 1;
nodes = (
(120,569,ls),
(120,212,o),
(333,-24,o),
(692,-24,cs),
(1055,-24,o),
(1269,209,o),
(1269,569,cs),
(1269,907,ls),
(1269,1269,o),
(1056,1504,o),
(692,1504,cs),
(331,1504,o),
(120,1268,o),
(120,907,cs)
);
}
);
width = 1389;
}
);
metricRight = "=|";
unicode = 79;
},
{
glyphname = Oslash;
lastChange = "2025-11-30 20:32:29 +0000";
layers = (
{
anchors = (
{
name = bottom;
pos = (419,0);
},
{
name = top;
pos = (419,1633);
}
);
layerId = m004;
shapes = (
{
ref = O;
},
{
closed = 1;
nodes = (
(232,0,ls),
(243,0,o),
(251,5,o),
(256,14,cs),
(1115,1455,ls),
(1123,1469,o),
(1117,1479,o),
(1101,1479,cs),
(1054,1478,ls),
(1043,1478,o),
(1035,1474,o),
(1030,1465,cs),
(170,24,ls),
(162,11,o),
(168,0,o),
(184,0,cs)
);
}
);
width = 1300;
},
{
anchors = (
{
name = bottom;
pos = (729,15);
},
{
name = top;
pos = (729,1649);
}
);
layerId = "1B8EDE0E-D46F-48F9-B9C6-2CD34FEA95FD";
shapes = (
{
ref = O;
},
{
closed = 1;
nodes = (
(298,0,ls),
(314,0,o),
(325,6,o),
(334,19,cs),
(1285,1444,ls),
(1298,1464,o),
(1289,1480,o),
(1265,1480,cs),
(1123,1480,ls),
(1107,1480,o),
(1096,1474,o),
(1087,1461,cs),
(135,36,ls),
(122,16,o),
(131,0,o),
(155,0,cs)
);
}
);
width = 1411;
},
{
anchors = (
{
name = bottom;
pos = (755,15);
},
{
name = top;
pos = (755,1649);
}
);
layerId = m005;
shapes = (
{
ref = O;
},
{
closed = 1;
nodes = (
(321,0,ls),
(342,0,o),
(357,8,o),
(369,26,cs),
(1308,1432,ls),
(1326,1460,o),
(1314,1480,o),
(1282,1480,cs),
(1092,1480,ls),
(1071,1480,o),
(1056,1472,o),
(1044,1454,cs),
(107,48,ls),
(89,20,o),
(101,0,o),
(133,0,cs)
);
}
);
width = 1411;
}
);
metricRight = "=|";
unicode = 216;
},
{
glyphname = P;
lastChange = "2025-11-30 18:17:27 +0000";
layers = (
{
anchors = (
{
name = bottom;
pos = (506,0);
},
{
name = top;
pos = (506,1485);
}
);
layerId = m004;
shapes = (
{
closed = 1;
nodes = (
(206,0,ls),
(219,0,o),
(226,7,o),
(226,20,cs),
(226,1480,l),
(150,1480,ls),
(137,1480,o),
(130,1473,o),
(130,1460,cs),
(130,20,ls),
(130,7,o),
(137,0,o),
(150,0,cs)
);
},
{
closed = 1;
nodes = (
(532,618,ls),
(783,618,o),
(961,797,o),
(961,1049,cs),
(961,1300,o),
(781,1480,o),
(532,1480,cs),
(182,1480,l),
(182,1400,l),
(532,1400,ls),
(733,1400,o),
(865,1254,o),
(865,1049,cs),
(865,842,o),
(736,698,o),
(532,698,cs),
(182,698,l),
(182,618,l)
);
}
);
width = 1046;
},
{
anchors = (
{
name = bottom;
pos = (494,0);
},
{
name = top;
pos = (494,1485);
}
);
layerId = m005;
shapes = (
{
closed = 1;
nodes = (
(389,0,ls),
(415,0,o),
(429,14,o),
(429,40,cs),
(429,1480,l),
(163,1480,ls),
(137,1480,o),
(123,1466,o),
(123,1440,cs),
(123,40,ls),
(123,14,o),
(137,0,o),
(163,0,cs)
);
},
{
closed = 1;
nodes = (
(605,523,ls),
(816,523,o),
(1090,659,o),
(1090,1004,cs),
(1090,1351,o),
(816,1480,o),
(605,1480,cs),
(312,1480,l),
(312,1200,l),
(581,1200,ls),
(702,1200,o),
(784,1117,o),
(784,1001,cs),
(784,882,o),
(705,803,o),
(581,803,cs),
(312,803,l),
(312,523,l)
);
}
);
width = 1143;
},
{
anchors = (
{
name = bottom;
pos = (552,0);
},
{
name = top;
pos = (552,1485);
}
);
layerId = "1B8EDE0E-D46F-48F9-B9C6-2CD34FEA95FD";
shapes = (
{
closed = 1;
nodes = (
(323,0,ls),
(342,0,o),
(353,10,o),
(353,30,cs),
(353,1480,l),
(180,1480,ls),
(161,1480,o),
(150,1470,o),
(150,1450,cs),
(150,30,ls),
(150,11,o),
(161,0,o),
(180,0,cs)
);
},
{
closed = 1;
nodes = (
(584,574,ls),
(836,574,o),
(1048,736,o),
(1048,1026,cs),
(1048,1316,o),
(835,1480,o),
(584,1480,cs),
(305,1480,l),
(305,1312,l),
(566,1312,ls),
(751,1312,o),
(856,1207,o),
(856,1026,cs),
(856,846,o),
(751,742,o),
(566,742,cs),
(305,742,l),
(305,574,l)
);
}
);
width = 1106;
}
);
metricLeft = "=H";
unicode = 80;
},
{
glyphname = Q;
lastChange = "2025-12-02 11:08:25 +0000";
layers = (
{
anchors = (
{
name = bottom;
pos = (626,0);
},
{
name = top;
pos = (626,1485);
}
);
layerId = m004;
shapes = (
{
closed = 1;
nodes = (
(110,523,ls),
(110,185,o),
(332,-24,o),
(651,-24,cs),
(968,-24,o),
(1190,185,o),
(1190,523,cs),
(1190,958,ls),
(1190,1295,o),
(968,1504,o),
(651,1504,cs),
(332,1504,o),
(110,1295,o),
(110,958,cs)
);
},
{
closed = 1;
nodes = (
(1096,523,ls),
(1096,242,o),
(918,56,o),
(651,56,cs),
(384,56,o),
(204,250,o),
(204,523,cs),
(204,958,ls),
(204,1231,o),
(384,1424,o),
(651,1424,cs),
(918,1424,o),
(1096,1240,o),
(1096,958,cs)
);
},
{
closed = 1;
nodes = (
(877,102,l),
(1021,-112,ls),
(1028,-122,o),
(1038,-126,o),
(1049,-118,cs),
(1095,-86,ls),
(1105,-79,o),
(1108,-68,o),
(1101,-58,cs),
(958,154,l)
);
}
);
width = 1300;
},
{
anchors = (
{
name = bottom;
pos = (718,0);
},
{
name = top;
pos = (718,1485);
}
);
background = {
shapes = (
{
closed = 1;
nodes = (
(355,29,l),
(408,-64,l),
(491,-17,l),
(437,76,l)
);
}
);
};
layerId = m005;
shapes = (
{
closed = 1;
nodes = (
(90,605,ls),
(90,116,o),
(454,-19,o),
(706,-19,cs),
(960,-19,o),
(1321,116,o),
(1321,605,cs),
(1321,882,ls),
(1321,1372,o),
(960,1504,o),
(706,1504,cs),
(454,1504,o),
(90,1372,o),
(90,882,cs)
);
},
{
closed = 1;
nodes = (
(1015,612,ls),
(1015,333,o),
(854,259,o),
(706,261,cs),
(558,264,o),
(397,333,o),
(397,612,cs),
(397,875,ls),
(397,1153,o),
(558,1224,o),
(706,1225,cs),
(854,1228,o),
(1015,1153,o),
(1015,875,cs)
);
},
{
closed = 1;
nodes = (
(805,162,l),
(992,-168,ls),
(1005,-190,o),
(1025,-196,o),
(1047,-183,cs),
(1254,-65,ls),
(1276,-52,o),
(1282,-32,o),
(1269,-10,cs),
(1080,319,l)
);
}
);
width = 1411;
},
{
anchors = (
{
name = bottom;
pos = (695,0);
},
{
name = top;
pos = (695,1485);
}
);
layerId = "1B8EDE0E-D46F-48F9-B9C6-2CD34FEA95FD";
shapes = (
{
closed = 1;
nodes = (
(120,569,ls),
(120,212,o),
(343,-24,o),
(692,-24,cs),
(1045,-24,o),
(1269,209,o),
(1269,569,cs),
(1269,907,ls),
(1269,1269,o),
(1046,1504,o),
(692,1504,cs),
(341,1504,o),
(120,1268,o),
(120,907,cs)
);
},
{
closed = 1;
nodes = (
(1072,569,l),
(1072,297,o),
(936,148,o),
(692,148,c),
(450,148,o),
(317,297,o),
(317,569,c),
(317,907,l),
(317,1182,o),
(450,1332,o),
(692,1332,cs),
(937,1332,o),
(1072,1182,o),
(1072,907,c)
);
},
{
closed = 1;
nodes = (
(923,84,l),
(1069,-171,ls),
(1079,-188,o),
(1093,-192,o),
(1110,-182,cs),
(1243,-103,ls),
(1259,-93,o),
(1264,-78,o),
(1254,-62,cs),
(1106,190,l)
);
}
);
width = 1389;
}
);
metricLeft = "=O";
metricRight = "=O";
unicode = 81;
},
{
glyphname = R;
lastChange = "2025-11-30 18:18:06 +0000";
layers = (
{
anchors = (
{
name = bottom;
pos = (572,0);
},
{
name = top;
pos = (572,1485);
}
);
layerId = m004;
shapes = (
{
closed = 1;
nodes = (
(226,1400,l),
(597,1400,ls),
(803,1400,o),
(912,1274,o),
(912,1063,cs),
(912,848,o),
(803,729,o),
(597,729,cs),
(226,729,l)
);
},
{
closed = 1;
nodes = (
(206,0,ls),
(219,0,o),
(226,7,o),
(226,20,cs),
(226,647,l),
(600,647,ls),
(867,647,o),
(1008,799,o),
(1008,1063,cs),
(1008,1327,o),
(857,1480,o),
(600,1480,cs),
(150,1480,ls),
(137,1480,o),
(130,1473,o),
(130,1460,cs),
(130,20,ls),
(130,7,o),
(137,0,o),
(150,0,cs)
);
},
{
closed = 1;
nodes = (
(1072,0,ls),
(1087,0,o),
(1093,11,o),
(1085,24,cs),
(719,671,l),
(620,671,l),
(989,14,ls),
(994,4,o),
(1002,0,o),
(1013,0,cs)
);
}
);
width = 1129;
},
{
anchors = (
{
name = bottom;
pos = (532,0);
},
{
name = top;
pos = (532,1485);
}
);
layerId = m005;
shapes = (
{
closed = 1;
nodes = (
(429,1200,l),
(645,1200,ls),
(748,1200,o),
(835,1158,o),
(835,1010,cs),
(835,882,o),
(758,823,o),
(645,823,cs),
(429,823,l)
);
},
{
closed = 1;
nodes = (
(389,0,ls),
(415,0,o),
(429,14,o),
(429,40,cs),
(429,543,l),
(636,543,ls),
(874,543,o),
(1141,643,o),
(1141,1010,cs),
(1141,1381,o),
(874,1480,o),
(634,1480,cs),
(163,1480,ls),
(137,1480,o),
(123,1466,o),
(123,1440,cs),
(123,40,ls),
(123,14,o),
(137,0,o),
(163,0,cs)
);
},
{
closed = 1;
nodes = (
(1203,0,ls),
(1234,0,o),
(1247,21,o),
(1231,48,cs),
(826,756,l),
(508,756,l),
(905,28,ls),
(915,9,o),
(930,0,o),
(952,0,cs)
);
}
);
width = 1251;
},
{
anchors = (
{
name = bottom;
pos = (600,0);
},
{
name = top;
pos = (600,1485);
}
);
layerId = "1B8EDE0E-D46F-48F9-B9C6-2CD34FEA95FD";
shapes = (
{
closed = 1;
nodes = (
(352,1306,l),
(632,1306,ls),
(810,1306,o),
(907,1217,o),
(907,1046,cs),
(907,875,o),
(810,791,o),
(632,791,cs),
(352,791,l)
);
},
{
closed = 1;
nodes = (
(322,0,ls),
(341,0,o),
(352,10,o),
(352,30,cs),
(352,617,l),
(614,617,ls),
(925,617,o),
(1113,768,o),
(1113,1046,cs),
(1113,1325,o),
(925,1480,o),
(614,1480,cs),
(180,1480,ls),
(161,1480,o),
(150,1470,o),
(150,1450,cs),
(150,30,ls),
(150,11,o),
(161,0,o),
(180,0,cs)
);
},
{
closed = 1;
nodes = (
(1158,0,ls),
(1181,0,o),
(1191,16,o),
(1179,36,cs),
(807,692,l),
(588,692,l),
(968,21,ls),
(976,6,o),
(988,0,o),
(1004,0,cs)
);
}
);
width = 1219;
}
);
metricLeft = "=H";
unicode = 82;
},
{
glyphname = S;
lastChange = "2025-12-04 12:44:07 +0000";
layers = (
{
anchors = (
{
name = bottom;
pos = (570,0);
},
{
name = top;
pos = (570,1633);
}
);
layerId = m004;
shapes = (
{
closed = 1;
nodes = (
(869,-24,o),
(1067,128,o),
(1067,375,cs),
(1067,616,o),
(863,702,o),
(723,751,cs),
(489,835,ls),
(367,879,o),
(224,935,o),
(224,1109,cs),
(224,1312,o),
(360,1427,o),
(579,1427,cs),
(808,1427,o),
(943,1307,o),
(950,1059,cs),
(950,1046,o),
(957,1039,o),
(970,1039,cs),
(1024,1039,ls),
(1037,1039,o),
(1044,1046,o),
(1044,1059,cs),
(1035,1347,o),
(846,1504,o),
(579,1504,cs),
(313,1504,o),
(127,1347,o),
(132,1114,cs),
(136,896,o),
(300,810,o),
(447,758,cs),
(682,675,ls),
(890,601,o),
(978,516,o),
(978,372,cs),
(978,174,o),
(808,56,o),
(597,56,cs),
(379,56,o),
(199,194,o),
(167,407,cs),
(166,420,o),
(158,426,o),
(146,426,cs),
(94,426,ls),
(81,426,o),
(73,418,o),
(75,405,cs),
(104,149,o),
(333,-24,o),
(597,-24,cs)
);
}
);
width = 1142;
},
{
anchors = (
{
name = bottom;
pos = (666,15);
},
{
name = top;
pos = (625,1480);
}
);
layerId = m005;
shapes = (
{
closed = 1;
nodes = (
(944,-24,o),
(1143,137,o),
(1143,398,cs),
(1143,613,o),
(1021,759,o),
(811,836,cs),
(626,904,ls),
(571,924,o),
(428,972,o),
(428,1071,cs),
(428,1166,o),
(508,1227,o),
(625,1227,cs),
(755,1227,o),
(824,1169,o),
(836,1051,cs),
(839,1026,o),
(852,1012,o),
(877,1012,cs),
(1097,1012,ls),
(1123,1012,o),
(1138,1027,o),
(1137,1054,cs),
(1117,1399,o),
(843,1504,o),
(625,1504,cs),
(360,1504,o),
(128,1356,o),
(128,1064,cs),
(128,872,o),
(210,735,o),
(422,661,cs),
(603,598,ls),
(730,554,o),
(842,482,o),
(842,387,cs),
(842,243,o),
(670,242,o),
(625,242,cs),
(475,242,o),
(379,330,o),
(353,483,cs),
(349,508,o),
(334,521,o),
(310,521,cs),
(107,521,ls),
(81,521,o),
(65,506,o),
(68,479,cs),
(102,155,o),
(331,-24,o),
(625,-24,cs)
);
}
);
width = 1211;
},
{
anchors = (
{
name = bottom;
pos = (592,15);
},
{
name = top;
pos = (592,1649);
}
);
layerId = "1B8EDE0E-D46F-48F9-B9C6-2CD34FEA95FD";
shapes = (
{
closed = 1;
nodes = (
(931,-23,o),
(1138,155,o),
(1138,407,cs),
(1138,601,o),
(1030,728,o),
(755,805,cs),
(584,853,ls),
(407,903,o),
(331,978,o),
(331,1097,cs),
(331,1238,o),
(444,1339,o),
(608,1339,cs),
(781,1339,o),
(893,1226,o),
(908,1046,cs),
(909,1026,o),
(919,1016,o),
(938,1016,cs),
(1074,1016,ls),
(1093,1016,o),
(1105,1027,o),
(1104,1047,cs),
(1086,1334,o),
(907,1504,o),
(609,1504,cs),
(318,1504,o),
(136,1348,o),
(136,1097,cs),
(136,903,o),
(256,746,o),
(502,676,cs),
(671,628,ls),
(845,578,o),
(944,503,o),
(944,403,cs),
(944,253,o),
(827,148,o),
(635,148,cs),
(412,148,o),
(299,276,o),
(265,429,cs),
(261,447,o),
(251,456,o),
(233,456,cs),
(100,456,ls),
(80,456,o),
(69,444,o),
(73,424,cs),
(125,120,o),
(334,-23,o),
(639,-23,cs)
);
}
);
width = 1210;
}
);
metricRight = "=|";
unicode = 83;
},
{
glyphname = T;
lastChange = "2025-11-30 19:27:14 +0000";
layers = (
{
anchors = (
{
name = bottom;
pos = (560,0);
},
{
name = center;
pos = (560,740);
},
{
name = top;
pos = (560,1480);
}
);
layerId = m004;
shapes = (
{
closed = 1;
nodes = (
(80,1480,ls),
(67,1480,o),
(60,1473,o),
(60,1460,cs),
(60,1420,ls),
(60,1407,o),
(67,1400,o),
(80,1400,cs),
(512,1400,l),
(512,20,ls),
(512,7,o),
(519,0,o),
(532,0,cs),
(588,0,ls),
(601,0,o),
(608,7,o),
(608,20,cs),
(608,1400,l),
(1040,1400,ls),
(1053,1400,o),
(1060,1407,o),
(1060,1420,cs),
(1060,1460,ls),
(1060,1473,o),
(1053,1480,o),
(1040,1480,cs)
);
}
);
width = 1120;
},
{
anchors = (
{
name = bottom;
pos = (612,0);
},
{
name = center;
pos = (612,740);
},
{
name = top;
pos = (612,1480);
}
);
layerId = m005;
shapes = (
{
closed = 1;
nodes = (
(65,1480,ls),
(39,1480,o),
(25,1466,o),
(25,1440,cs),
(25,1239,ls),
(25,1213,o),
(39,1199,o),
(65,1199,cs),
(460,1199,l),
(460,40,ls),
(460,14,o),
(474,0,o),
(500,0,cs),
(726,0,ls),
(752,0,o),
(766,14,o),
(766,40,cs),
(766,1199,l),
(1159,1199,ls),
(1185,1199,o),
(1199,1213,o),
(1199,1239,cs),
(1199,1440,ls),
(1199,1466,o),
(1185,1480,o),
(1159,1480,cs)
);
}
);
width = 1224;
},
{
anchors = (
{
name = bottom;
pos = (622,0);
},
{
name = center;
pos = (622,740);
},
{
name = top;
pos = (622,1480);
}
);
layerId = "1B8EDE0E-D46F-48F9-B9C6-2CD34FEA95FD";
shapes = (
{
closed = 1;
nodes = (
(95,1480,ls),
(76,1480,o),
(65,1470,o),
(65,1450,cs),
(65,1336,ls),
(65,1317,o),
(76,1306,o),
(95,1306,cs),
(521,1306,l),
(521,30,ls),
(521,11,o),
(532,0,o),
(551,0,cs),
(694,0,ls),
(713,0,o),
(724,11,o),
(724,30,cs),
(724,1306,l),
(1149,1306,ls),
(1168,1306,o),
(1179,1316,o),
(1179,1336,cs),
(1179,1450,ls),
(1179,1470,o),
(1168,1480,o),
(1149,1480,cs)
);
}
);
width = 1244;
}
);
metricRight = "=|";
unicode = 84;
},
{
glyphname = U;
lastChange = "2025-11-30 18:18:51 +0000";
layers = (
{
anchors = (
{
name = bottom;
pos = (635,0);
},
{
name = ogonek;
pos = (1142,10);
},
{
name = top;
pos = (635,1480);
},
{
name = topright;
pos = (1249,1480);
}
);
layerId = m004;
shapes = (
{
closed = 1;
nodes = (
(962,-24,o),
(1149,179,o),
(1149,496,c),
(1149,1460,ls),
(1149,1473,o),
(1142,1480,o),
(1129,1480,cs),
(1073,1480,ls),
(1060,1480,o),
(1053,1473,o),
(1053,1460,cs),
(1053,496,l),
(1053,232,o),
(898,56,o),
(635,56,cs),
(373,56,o),
(216,240,o),
(216,496,c),
(216,1460,ls),
(216,1473,o),
(209,1480,o),
(196,1480,cs),
(140,1480,ls),
(127,1480,o),
(120,1473,o),
(120,1460,cs),
(120,496,l),
(120,181,o),
(309,-24,o),
(635,-24,cs)
);
}
);
width = 1269;
},
{
anchors = (
{
name = bottom;
pos = (681,0);
},
{
name = ogonek;
pos = (1225,10);
},
{
name = top;
pos = (681,1480);
},
{
name = topright;
pos = (1341,1480);
}
);
layerId = m005;
shapes = (
{
closed = 1;
nodes = (
(929,-24,o),
(1270,72,o),
(1270,500,cs),
(1270,1440,ls),
(1270,1466,o),
(1256,1480,o),
(1230,1480,cs),
(1004,1480,ls),
(978,1480,o),
(964,1466,o),
(964,1440,cs),
(964,555,ls),
(964,314,o),
(827,258,o),
(682,259,cs),
(535,262,o),
(397,317,o),
(397,555,cs),
(397,1440,ls),
(397,1466,o),
(383,1480,o),
(357,1480,cs),
(131,1480,ls),
(105,1480,o),
(91,1466,o),
(91,1440,cs),
(91,500,ls),
(91,72,o),
(434,-24,o),
(682,-24,cs)
);
}
);
width = 1361;
},
{
anchors = (
{
name = bottom;
pos = (680,0);
},
{
name = ogonek;
pos = (1223,10);
},
{
name = top;
pos = (680,1480);
},
{
name = topright;
pos = (1339,1480);
}
);
layerId = "1B8EDE0E-D46F-48F9-B9C6-2CD34FEA95FD";
shapes = (
{
closed = 1;
nodes = (
(906,-24,o),
(1221,86,o),
(1221,547,c),
(1221,1450,ls),
(1221,1470,o),
(1210,1480,o),
(1191,1480,cs),
(1049,1480,ls),
(1030,1480,o),
(1019,1469,o),
(1019,1450,cs),
(1019,563,l),
(1019,226,o),
(835,148,o),
(680,148,cs),
(519,151,o),
(341,226,o),
(341,563,c),
(341,1450,ls),
(341,1470,o),
(330,1480,o),
(311,1480,cs),
(168,1480,ls),
(149,1480,o),
(138,1470,o),
(138,1450,cs),
(138,547,l),
(138,86,o),
(455,-24,o),
(680,-24,cs)
);
}
);
width = 1359;
}
);
metricRight = "=|";
unicode = 85;
},
{
glyphname = V;
lastChange = "2025-11-30 20:32:31 +0000";
layers = (
{
anchors = (
{
name = bottom;
pos = (590,0);
},
{
name = top;
pos = (590,1485);
}
);
layerId = m004;
shapes = (
{
closed = 1;
nodes = (
(626,0,ls),
(637,0,o),
(644,5,o),
(648,16,cs),
(1131,1455,ls),
(1135,1468,o),
(1129,1478,o),
(1115,1478,cs),
(1065,1479,ls),
(1054,1479,o),
(1046,1475,o),
(1042,1463,cs),
(568,41,l),
(611,41,l),
(139,1461,ls),
(135,1472,o),
(128,1477,o),
(117,1477,cs),
(64,1477,ls),
(50,1477,o),
(43,1468,o),
(48,1454,cs),
(531,16,ls),
(535,5,o),
(542,0,o),
(553,0,cs)
);
}
);
width = 1178;
},
{
anchors = (
{
name = bottom;
pos = (675,0);
},
{
name = top;
pos = (675,1485);
}
);
layerId = m005;
shapes = (
{
closed = 1;
nodes = (
(773,0,ls),
(796,0,o),
(811,10,o),
(818,32,cs),
(1300,1434,ls),
(1309,1461,o),
(1297,1480,o),
(1268,1480,cs),
(1029,1480,ls),
(1006,1480,o),
(991,1470,o),
(984,1447,cs),
(592,203,l),
(763,203,l),
(365,1447,ls),
(358,1470,o),
(342,1480,o),
(319,1480,cs),
(80,1480,ls),
(51,1480,o),
(39,1461,o),
(48,1434,cs),
(530,32,ls),
(537,10,o),
(552,0,o),
(575,0,cs)
);
}
);
width = 1348;
},
{
anchors = (
{
name = bottom;
pos = (639,0);
},
{
name = top;
pos = (639,1485);
}
);
layerId = "1B8EDE0E-D46F-48F9-B9C6-2CD34FEA95FD";
shapes = (
{
closed = 1;
nodes = (
(707,0,ls),
(724,0,o),
(735,8,o),
(741,24,cs),
(1228,1446,ls),
(1235,1466,o),
(1226,1480,o),
(1204,1480,cs),
(1061,1480,ls),
(1044,1480,o),
(1032,1471,o),
(1027,1455,cs),
(605,183,l),
(681,183,l),
(254,1456,ls),
(249,1472,o),
(237,1480,o),
(220,1480,cs),
(72,1480,ls),
(50,1480,o),
(41,1466,o),
(48,1446,cs),
(535,24,ls),
(541,8,o),
(552,0,o),
(569,0,cs)
);
}
);
width = 1276;
}
);
metricLeft = A;
metricRight = "=|";
unicode = 86;
},
{
glyphname = W;
lastChange = "2025-12-04 12:47:09 +0000";
layers = (
{
anchors = (
{
name = bottom;
pos = (946,0);
},
{
name = top;
pos = (946,1485);
}
);
layerId = m004;
shapes = (
{
closed = 1;
nodes = (
(585,0,ls),
(597,0,o),
(604,6,o),
(607,17,cs),
(966,1435,l),
(911,1432,l),
(1299,17,ls),
(1302,5,o),
(1310,0,o),
(1322,0,cs),
(1392,0,ls),
(1403,0,o),
(1411,5,o),
(1414,17,cs),
(1844,1457,ls),
(1848,1470,o),
(1841,1480,o),
(1827,1480,cs),
(1772,1480,ls),
(1761,1480,o),
(1753,1475,o),
(1750,1463,cs),
(1321,9,l),
(1391,9,l),
(995,1463,ls),
(992,1475,o),
(984,1480,o),
(972,1480,cs),
(906,1480,ls),
(894,1480,o),
(887,1474,o),
(884,1463,cs),
(513,19,l),
(571,22,l),
(139,1463,ls),
(136,1474,o),
(128,1480,o),
(117,1480,cs),
(64,1480,ls),
(50,1480,o),
(43,1470,o),
(47,1457,cs),
(487,17,ls),
(490,6,o),
(498,0,o),
(509,0,cs)
);
}
);
width = 1891;
},
{
anchors = (
{
name = bottom;
pos = (1090,0);
},
{
name = top;
pos = (1090,1633);
}
);
layerId = m005;
shapes = (
{
closed = 1;
nodes = (
(679,0,ls),
(702,0,o),
(718,12,o),
(724,34,cs),
(1073,1254,l),
(904,1248,l),
(1243,34,ls),
(1249,11,o),
(1264,0,o),
(1287,0,cs),
(1490,0,ls),
(1513,0,o),
(1529,12,o),
(1535,34,cs),
(1938,1435,ls),
(1946,1462,o),
(1932,1480,o),
(1904,1480,cs),
(1669,1480,ls),
(1646,1480,o),
(1631,1470,o),
(1625,1446,cs),
(1358,392,l),
(1441,392,l),
(1158,1446,ls),
(1152,1469,o),
(1137,1480,o),
(1114,1480,cs),
(871,1480,ls),
(848,1480,o),
(833,1469,o),
(827,1446,cs),
(558,392,l),
(635,392,l),
(368,1446,ls),
(362,1470,o),
(347,1480,o),
(324,1480,cs),
(81,1480,ls),
(53,1480,o),
(39,1462,o),
(47,1435,cs),
(448,34,ls),
(454,12,o),
(470,0,o),
(493,0,cs)
);
}
);
width = 1985;
},
{
anchors = (
{
name = bottom;
pos = (952,0);
},
{
name = top;
pos = (952,1633);
}
);
layerId = "1B8EDE0E-D46F-48F9-B9C6-2CD34FEA95FD";
shapes = (
{
closed = 1;
nodes = (
(595,0,ls),
(612,0,o),
(623,7,o),
(628,25,cs),
(988,1319,l),
(907,1316,l),
(1268,25,ls),
(1273,7,o),
(1284,0,o),
(1301,0,cs),
(1425,0,ls),
(1442,0,o),
(1453,7,o),
(1458,25,cs),
(1861,1446,ls),
(1867,1466,o),
(1857,1480,o),
(1836,1480,cs),
(1695,1480,ls),
(1678,1480,o),
(1666,1472,o),
(1661,1454,cs),
(1315,167,l),
(1425,167,l),
(1055,1455,ls),
(1050,1472,o),
(1039,1480,o),
(1022,1480,cs),
(882,1480,ls),
(865,1480,o),
(854,1473,o),
(849,1455,cs),
(488,167,l),
(595,167,l),
(249,1454,ls),
(244,1472,o),
(232,1480,o),
(215,1480,cs),
(74,1480,ls),
(53,1480,o),
(42,1466,o),
(48,1446,cs),
(449,25,ls),
(454,7,o),
(465,0,o),
(482,0,cs)
);
}
);
width = 1909;
}
);
metricLeft = "=V";
metricRight = "=|";
unicode = 87;
},
{
glyphname = X;
lastChange = "2025-12-04 09:41:47 +0000";
layers = (
{
anchors = (
{
name = bottom;
pos = (584,0);
},
{
name = top;
pos = (584,1480);
}
);
layerId = m004;
shapes = (
{
closed = 1;
nodes = (
(1060,0,ls),
(1076,0,o),
(1081,10,o),
(1073,24,cs),
(194,1467,ls),
(189,1476,o),
(181,1480,o),
(170,1480,cs),
(108,1480,ls),
(92,1480,o),
(87,1470,o),
(95,1456,cs),
(977,13,ls),
(983,3,o),
(990,0,o),
(1001,0,cs)
);
},
{
closed = 1;
nodes = (
(628,701,l),
(1074,1456,ls),
(1082,1469,o),
(1076,1480,o),
(1060,1480,cs),
(1004,1480,ls),
(993,1480,o),
(985,1475,o),
(980,1466,cs),
(578,784,l)
);
},
{
closed = 1;
nodes = (
(180,0,ls),
(191,0,o),
(199,5,o),
(204,14,cs),
(617,701,l),
(563,784,l),
(106,24,ls),
(98,11,o),
(104,0,o),
(120,0,cs)
);
}
);
width = 1169;
},
{
anchors = (
{
name = bottom;
pos = (666,0);
},
{
name = top;
pos = (666,1480);
}
);
layerId = m005;
shapes = (
{
closed = 1;
nodes = (
(1252,0,ls),
(1284,0,o),
(1296,20,o),
(1279,48,cs),
(413,1446,ls),
(402,1464,o),
(386,1473,o),
(365,1473,cs),
(92,1473,ls),
(60,1473,o),
(48,1453,o),
(65,1425,cs),
(933,27,ls),
(944,9,o),
(960,0,o),
(981,0,cs)
);
},
{
closed = 1;
nodes = (
(755,569,l),
(1269,1432,ls),
(1285,1460,o),
(1274,1480,o),
(1242,1480,cs),
(989,1480,ls),
(967,1480,o),
(952,1472,o),
(941,1453,cs),
(581,851,l)
);
},
{
closed = 1;
nodes = (
(330,0,ls),
(351,0,o),
(366,7,o),
(378,26,cs),
(760,622,l),
(586,906,l),
(53,48,ls),
(36,20,o),
(48,0,o),
(80,0,cs)
);
}
);
width = 1332;
},
{
anchors = (
{
name = bottom;
pos = (609,0);
},
{
name = top;
pos = (609,1480);
}
);
layerId = "1B8EDE0E-D46F-48F9-B9C6-2CD34FEA95FD";
shapes = (
{
closed = 1;
nodes = (
(1155,0,ls),
(1179,0,o),
(1188,16,o),
(1175,36,cs),
(289,1460,ls),
(281,1474,o),
(269,1480,o),
(253,1480,cs),
(94,1480,ls),
(70,1480,o),
(61,1464,o),
(74,1444,cs),
(960,20,ls),
(968,6,o),
(980,0,o),
(996,0,cs)
);
},
{
closed = 1;
nodes = (
(673,659,l),
(1163,1444,ls),
(1176,1464,o),
(1167,1480,o),
(1143,1480,cs),
(984,1480,ls),
(968,1480,o),
(956,1474,o),
(948,1460,cs),
(555,831,l)
);
},
{
closed = 1;
nodes = (
(227,0,ls),
(243,0,o),
(255,6,o),
(263,20,cs),
(646,638,l),
(523,798,l),
(51,36,ls),
(38,16,o),
(47,0,o),
(71,0,cs)
);
}
);
width = 1226;
}
);
metricRight = "=|";
unicode = 88;
},
{
glyphname = Y;
lastChange = "2025-12-04 12:34:22 +0000";
layers = (
{
anchors = (
{
name = bottom;
pos = (530,0);
},
{
name = top;
pos = (530,1485);
},
{
name = topleft;
pos = (44,1485);
}
);
layerId = m004;
shapes = (
{
closed = 1;
nodes = (
(481,615,l),
(481,20,ls),
(481,7,o),
(488,0,o),
(501,0,cs),
(557,0,ls),
(570,0,o),
(577,7,o),
(577,20,cs),
(577,615,l),
(1010,1456,ls),
(1017,1470,o),
(1010,1480,o),
(995,1480,cs),
(934,1480,ls),
(923,1480,o),
(916,1476,o),
(911,1466,cs),
(493,648,l),
(566,648,l),
(150,1466,ls),
(145,1476,o),
(138,1480,o),
(127,1480,cs),
(64,1480,ls),
(49,1480,o),
(42,1470,o),
(49,1456,cs)
);
}
);
width = 1059;
},
{
anchors = (
{
name = bottom;
pos = (688,0);
},
{
name = top;
pos = (688,1633);
},
{
name = topleft;
pos = (65,1633);
}
);
layerId = m005;
shapes = (
{
closed = 1;
nodes = (
(475,605,l),
(475,40,ls),
(475,14,o),
(489,0,o),
(515,0,cs),
(741,0,ls),
(767,0,o),
(781,14,o),
(781,40,cs),
(781,605,l),
(1205,1433,ls),
(1219,1460,o),
(1207,1480,o),
(1176,1480,cs),
(943,1480,ls),
(921,1480,o),
(906,1472,o),
(896,1452,cs),
(495,697,l),
(749,697,l),
(362,1451,ls),
(352,1471,o),
(337,1480,o),
(315,1480,cs),
(80,1480,ls),
(49,1480,o),
(37,1460,o),
(51,1433,cs)
);
}
);
width = 1256;
},
{
anchors = (
{
name = bottom;
pos = (595,0);
},
{
name = top;
pos = (595,1633);
},
{
name = topleft;
pos = (-1,1633);
}
);
layerId = "1B8EDE0E-D46F-48F9-B9C6-2CD34FEA95FD";
shapes = (
{
closed = 1;
nodes = (
(493,580,l),
(493,30,ls),
(493,11,o),
(504,0,o),
(523,0,cs),
(666,0,ls),
(685,0,o),
(696,11,o),
(696,30,cs),
(696,580,l),
(1139,1444,ls),
(1149,1464,o),
(1140,1480,o),
(1117,1480,cs),
(973,1480,ls),
(957,1480,o),
(946,1473,o),
(938,1458,cs),
(543,685,l),
(644,685,l),
(265,1458,ls),
(258,1473,o),
(246,1480,o),
(230,1480,cs),
(72,1480,ls),
(49,1480,o),
(40,1464,o),
(50,1444,cs)
);
}
);
width = 1189;
}
);
metricLeft = A;
metricRight = "=|";
unicode = 89;
},
{
glyphname = Z;
lastChange = "2025-11-30 18:23:56 +0000";
layers = (
{
anchors = (
{
name = bottom;
pos = (542,0);
},
{
name = center;
pos = (542,742);
},
{
name = top;
pos = (542,1485);
}
);
layerId = m004;
shapes = (
{
closed = 1;
nodes = (
(77,89,ls),
(72,80,o),
(70,74,o),
(70,65,cs),
(70,20,ls),
(70,7,o),
(77,0,o),
(90,0,cs),
(995,0,ls),
(1008,0,o),
(1015,7,o),
(1015,20,cs),
(1015,60,ls),
(1015,73,o),
(1008,80,o),
(995,80,cs),
(184,80,l),
(1008,1392,ls),
(1013,1401,o),
(1015,1407,o),
(1015,1416,cs),
(1015,1460,ls),
(1015,1473,o),
(1008,1480,o),
(995,1480,cs),
(90,1480,ls),
(77,1480,o),
(70,1473,o),
(70,1460,cs),
(70,1420,ls),
(70,1407,o),
(77,1400,o),
(90,1400,cs),
(902,1400,l)
);
}
);
width = 1085;
},
{
anchors = (
{
name = bottom;
pos = (612,0);
},
{
name = center;
pos = (612,742);
},
{
name = top;
pos = (612,1485);
}
);
layerId = m005;
shapes = (
{
closed = 1;
nodes = (
(85,206,ls),
(74,189,o),
(70,175,o),
(70,156,cs),
(70,40,ls),
(70,14,o),
(84,0,o),
(110,0,cs),
(1113,0,ls),
(1139,0,o),
(1153,14,o),
(1153,40,cs),
(1153,241,ls),
(1153,267,o),
(1139,281,o),
(1113,281,cs),
(473,281,l),
(1138,1274,ls),
(1149,1291,o),
(1153,1305,o),
(1153,1324,cs),
(1153,1440,ls),
(1153,1466,o),
(1139,1480,o),
(1113,1480,cs),
(110,1480,ls),
(84,1480,o),
(70,1466,o),
(70,1440,cs),
(70,1239,ls),
(70,1213,o),
(84,1199,o),
(110,1199,cs),
(750,1199,l)
);
}
);
width = 1223;
},
{
anchors = (
{
name = bottom;
pos = (589,0);
},
{
name = center;
pos = (589,742);
},
{
name = top;
pos = (589,1485);
}
);
layerId = "1B8EDE0E-D46F-48F9-B9C6-2CD34FEA95FD";
shapes = (
{
closed = 1;
nodes = (
(113,158,ls),
(105,145,o),
(102,135,o),
(102,121,cs),
(102,30,ls),
(102,11,o),
(113,0,o),
(132,0,cs),
(1046,0,ls),
(1065,0,o),
(1076,10,o),
(1076,30,cs),
(1076,144,ls),
(1076,164,o),
(1065,174,o),
(1046,174,cs),
(329,174,l),
(1065,1324,ls),
(1073,1337,o),
(1076,1347,o),
(1076,1361,cs),
(1076,1450,ls),
(1076,1470,o),
(1065,1480,o),
(1046,1480,cs),
(132,1480,ls),
(113,1480,o),
(102,1470,o),
(102,1450,cs),
(102,1336,ls),
(102,1317,o),
(113,1306,o),
(132,1306,cs),
(848,1306,l)
);
}
);
width = 1178;
}
);
metricRight = "=|";
unicode = 90;
},
{
glyphname = a;
lastChange = "2025-11-30 18:26:09 +0000";
layers = (
{
anchors = (
{
name = bottom;
pos = (518,0);
},
{
name = ogonek;
pos = (932,10);
},
{
name = top;
pos = (518,1060);
}
);
background = {
shapes = (
{
closed = 0;
nodes = (
(82,544,ls),
(81,711,o),
(198,827,o),
(365,827,cs)
);
}
);
};
layerId = m004;
shapes = (
{
closed = 1;
nodes = (
(480,622,ls),
(239,622,o),
(91,529,o),
(91,303,cs),
(91,104,o),
(231,-24,o),
(448,-24,cs),
(637,-24,o),
(765,55,o),
(812,153,c),
(812,368,l),
(812,236,o),
(680,55,o),
(448,55,cs),
(293,55,o),
(186,150,o),
(186,306,cs),
(186,496,o),
(320,539,o),
(494,539,cs),
(835,539,l),
(835,622,l)
);
},
{
closed = 1;
nodes = (
(883,0,ls),
(896,0,o),
(903,7,o),
(903,20,cs),
(903,708,ls),
(903,930,o),
(750,1084,o),
(523,1084,cs),
(321,1084,o),
(186,961,o),
(154,808,cs),
(151,794,o),
(159,786,o),
(172,786,cs),
(227,786,ls),
(239,786,o),
(246,792,o),
(249,804,cs),
(277,914,o),
(369,1000,o),
(523,1000,cs),
(702,1000,o),
(812,885,o),
(812,707,cs),
(812,160,l),
(789,115,l),
(812,115,l),
(831,18,ls),
(833,6,o),
(841,0,o),
(853,0,cs)
);
}
);
width = 1036;
},
{
anchors = (
{
name = bottom;
pos = (569,0);
},
{
name = ogonek;
pos = (1023,10);
},
{
name = top;
pos = (569,1060);
}
);
layerId = m005;
shapes = (
{
closed = 1;
nodes = (
(542,645,ls),
(187,645,o),
(65,481,o),
(65,302,cs),
(65,104,o),
(216,-24,o),
(454,-24,cs),
(572,-24,o),
(693,9,o),
(751,116,c),
(724,440,l),
(724,223,o),
(603,198,o),
(506,198,cs),
(428,198,o),
(368,247,o),
(368,317,cs),
(368,421,o),
(428,450,o),
(551,450,cs),
(750,450,l),
(750,645,l)
);
},
{
closed = 1;
nodes = (
(978,0,ls),
(1004,0,o),
(1018,14,o),
(1018,40,cs),
(1021,687,ls),
(1022,969,o),
(795,1084,o),
(564,1084,cs),
(354,1084,o),
(160,981,o),
(107,732,cs),
(101,704,o),
(116,688,o),
(143,688,cs),
(348,688,ls),
(373,688,o),
(384,701,o),
(390,726,cs),
(411,809,o),
(495,827,o),
(557,827,cs),
(602,827,o),
(722,818,o),
(722,702,cs),
(722,209,l),
(751,116,l),
(774,116,l),
(799,33,ls),
(806,11,o),
(821,0,o),
(844,0,cs)
);
}
);
width = 1137;
},
{
anchors = (
{
name = bottom;
pos = (534,0);
},
{
name = ogonek;
pos = (961,10);
},
{
name = top;
pos = (534,1060);
}
);
layerId = "1B8EDE0E-D46F-48F9-B9C6-2CD34FEA95FD";
shapes = (
{
closed = 1;
nodes = (
(448,656,ls),
(162,656,o),
(67,445,o),
(67,325,cs),
(67,115,o),
(220,-24,o),
(448,-24,cs),
(574,-24,o),
(695,20,o),
(747,93,c),
(748,375,l),
(748,226,o),
(625,144,o),
(448,144,cs),
(319,144,o),
(258,200,o),
(258,329,cs),
(258,438,o),
(331,493,o),
(470,493,cs),
(774,493,l),
(774,656,l)
);
},
{
closed = 1;
nodes = (
(913,0,ls),
(932,0,o),
(943,10,o),
(943,30,cs),
(945,715,ls),
(946,941,o),
(764,1084,o),
(537,1084,cs),
(328,1084,o),
(165,965,o),
(131,787,cs),
(127,767,o),
(138,755,o),
(158,755,cs),
(293,755,ls),
(311,755,o),
(320,764,o),
(325,782,cs),
(349,860,o),
(431,910,o),
(537,910,cs),
(670,910,o),
(751,826,o),
(750,693,cs),
(747,123,l),
(747,93,l),
(771,93,l),
(787,26,ls),
(791,9,o),
(802,0,o),
(820,0,cs)
);
}
);
width = 1068;
}
);
metricRight = "=n";
unicode = 97;
},
{
glyphname = b;
lastChange = "2025-11-30 18:26:36 +0000";
layers = (
{
anchors = (
{
name = bottom;
pos = (534,0);
},
{
name = center;
pos = (261,1367);
},
{
name = top;
pos = (534,1131);
}
);
background = {
shapes = (
{
closed = 0;
nodes = (
(553,-24,ls),
(766,-24,o),
(964,126,o),
(964,430,cs)
);
},
{
closed = 0;
nodes = (
(872,426,ls),
(872,202,o),
(772,63,o),
(553,63,cs)
);
}
);
};
layerId = m004;
shapes = (
{
closed = 1;
nodes = (
(195,0,ls),
(207,0,o),
(215,6,o),
(217,18,cs),
(236,110,l),
(258,110,l),
(236,186,l),
(238,1520,ls),
(238,1533,o),
(231,1540,o),
(218,1540,cs),
(165,1540,ls),
(152,1540,o),
(145,1533,o),
(145,1520,cs),
(148,20,ls),
(148,7,o),
(155,0,o),
(168,0,cs)
);
},
{
closed = 1;
nodes = (
(746,-24,o),
(944,106,o),
(944,430,cs),
(944,630,ls),
(944,944,o),
(746,1084,o),
(533,1084,cs),
(265,1084,o),
(185,867,o),
(185,646,c),
(237,646,l),
(237,823,o),
(338,997,o),
(533,997,cs),
(752,997,o),
(852,848,o),
(852,634,cs),
(852,426,ls),
(852,202,o),
(752,63,o),
(533,63,cs),
(294,63,o),
(236,237,o),
(236,446,c),
(175,439,l),
(171,109,o),
(338,-24,o),
(533,-24,cs)
);
}
);
width = 1053;
},
{
anchors = (
{
name = bottom;
pos = (641,-832);
},
{
name = center;
pos = (319,535);
},
{
name = top;
pos = (641,299);
}
);
background = {
shapes = (
{
closed = 1;
nodes = (
(656,-21,o),
(830,66,o),
(830,359,cs),
(830,421,ls),
(830,712,o),
(663,801,o),
(508,801,cs),
(319,801,o),
(258,671,o),
(230,421,c),
(317,421,l),
(315,570,o),
(401,607,o),
(469,607,cs),
(534,607,o),
(605,563,o),
(605,421,cs),
(605,359,ls),
(605,218,o),
(534,173,o),
(469,173,cs),
(401,173,o),
(315,211,o),
(317,359,c),
(248,359,l),
(248,114,o),
(315,-21,o),
(503,-21,cs)
);
}
);
};
layerId = m005;
shapes = (
{
closed = 1;
nodes = (
(320,0,ls),
(343,0,o),
(358,11,o),
(365,33,cs),
(390,115,l),
(413,115,l),
(429,115,l),
(429,1500,ls),
(429,1526,o),
(415,1540,o),
(389,1540,cs),
(163,1540,ls),
(137,1540,o),
(123,1526,o),
(123,1500,cs),
(123,40,ls),
(123,14,o),
(137,0,o),
(163,0,cs)
);
},
{
closed = 1;
nodes = (
(887,-24,o),
(1117,95,o),
(1117,484,cs),
(1117,576,ls),
(1117,968,o),
(877,1084,o),
(674,1084,cs),
(444,1084,o),
(327,933,o),
(364,599,c),
(426,599,l),
(423,772,o),
(537,824,o),
(628,824,cs),
(715,824,o),
(811,765,o),
(811,599,cs),
(811,459,ls),
(811,294,o),
(715,234,o),
(628,234,cs),
(537,234,o),
(423,285,o),
(426,459,c),
(385,459,l),
(321,149,o),
(436,-24,o),
(682,-24,cs)
);
}
);
width = 1190;
},
{
anchors = (
{
name = bottom;
pos = (558,0);
},
{
name = center;
pos = (252,1367);
},
{
name = top;
pos = (558,1131);
}
);
layerId = "1B8EDE0E-D46F-48F9-B9C6-2CD34FEA95FD";
shapes = (
{
closed = 1;
nodes = (
(243,0,ls),
(261,0,o),
(273,9,o),
(277,26,cs),
(293,91,l),
(316,91,l),
(326,91,l),
(326,1510,ls),
(326,1530,o),
(315,1540,o),
(296,1540,cs),
(161,1540,ls),
(142,1540,o),
(131,1529,o),
(131,1510,cs),
(131,30,ls),
(131,11,o),
(142,0,o),
(161,0,cs)
);
},
{
closed = 1;
nodes = (
(844,-24,o),
(1021,157,o),
(1021,448,cs),
(1021,606,ls),
(1021,903,o),
(838,1084,o),
(577,1084,cs),
(374,1084,o),
(232,923,o),
(249,657,c),
(326,617,l),
(326,815,o),
(415,910,o),
(577,910,cs),
(740,910,o),
(828,815,o),
(828,617,cs),
(828,463,ls),
(828,263,o),
(740,150,o),
(577,150,cs),
(419,150,o),
(326,263,o),
(326,463,c),
(225,429,l),
(249,123,o),
(335,-24,o),
(577,-24,cs)
);
}
);
width = 1130;
}
);
metricLeft = n;
metricRight = o;
unicode = 98;
},
{
glyphname = c;
lastChange = "2025-12-04 13:02:05 +0000";
layers = (
{
anchors = (
{
name = bottom;
pos = (513,0);
},
{
name = top;
pos = (513,1060);
}
);
layerId = m004;
shapes = (
{
closed = 1;
nodes = (
(706,-24,o),
(908,79,o),
(929,300,cs),
(931,317,o),
(923,326,o),
(910,326,cs),
(859,326,ls),
(847,326,o),
(840,319,o),
(839,306,cs),
(821,119,o),
(663,61,o),
(531,61,cs),
(383,61,o),
(200,132,o),
(200,417,cs),
(200,618,ls),
(200,926,o),
(383,999,o),
(531,999,cs),
(664,999,o),
(822,932,o),
(839,732,cs),
(840,719,o),
(847,712,o),
(859,712,cs),
(910,712,ls),
(923,712,o),
(931,719,o),
(930,733,cs),
(912,972,o),
(708,1084,o),
(531,1084,cs),
(336,1084,o),
(109,970,o),
(109,620,cs),
(109,417,ls),
(109,91,o),
(336,-24,o),
(531,-24,cs)
);
}
);
width = 1025;
},
{
anchors = (
{
name = bottom;
pos = (569,0);
},
{
name = top;
pos = (569,1060);
}
);
layerId = m005;
shapes = (
{
closed = 1;
nodes = (
(855,-24,o),
(1043,139,o),
(1056,375,cs),
(1058,398,o),
(1042,411,o),
(1016,411,cs),
(792,411,ls),
(767,411,o),
(756,398,o),
(750,374,cs),
(734,307,o),
(669,260,o),
(577,260,cs),
(452,260,o),
(379,347,o),
(379,482,cs),
(379,575,ls),
(379,711,o),
(452,798,o),
(577,798,cs),
(671,798,o),
(736,746,o),
(751,671,cs),
(756,646,o),
(767,633,o),
(792,633,cs),
(1017,633,ls),
(1043,633,o),
(1058,647,o),
(1056,673,cs),
(1042,911,o),
(849,1084,o),
(577,1084,cs),
(277,1084,o),
(73,876,o),
(73,575,cs),
(73,482,ls),
(73,178,o),
(271,-24,o),
(577,-24,cs)
);
}
);
width = 1137;
},
{
anchors = (
{
name = bottom;
pos = (554,0);
},
{
name = top;
pos = (554,1060);
}
);
layerId = "1B8EDE0E-D46F-48F9-B9C6-2CD34FEA95FD";
shapes = (
{
closed = 1;
nodes = (
(812,-24,o),
(997,123,o),
(1008,340,cs),
(1009,357,o),
(998,367,o),
(979,367,cs),
(845,367,ls),
(826,367,o),
(816,357,o),
(814,338,cs),
(801,220,o),
(709,151,o),
(564,151,cs),
(397,151,o),
(305,244,o),
(305,419,cs),
(305,636,ls),
(305,812,o),
(397,909,o),
(564,909,cs),
(710,909,o),
(799,840,o),
(814,722,cs),
(816,703,o),
(826,693,o),
(845,693,cs),
(977,693,ls),
(996,693,o),
(1008,704,o),
(1007,723,cs),
(991,914,o),
(820,1084,o),
(564,1084,cs),
(293,1084,o),
(109,894,o),
(109,636,cs),
(109,419,ls),
(109,160,o),
(290,-24,o),
(564,-24,cs)
);
}
);
width = 1108;
}
);
metricLeft = o;
unicode = 99;
},
{
glyphname = d;
lastChange = "2025-11-30 18:28:49 +0000";
layers = (
{
anchors = (
{
name = bottom;
pos = (446,0);
},
{
name = center;
pos = (723,1367);
},
{
name = top;
pos = (446,1169);
},
{
name = topright;
pos = (883,1708);
}
);
layerId = m004;
shapes = (
{
closed = 1;
nodes = (
(886,0,ls),
(899,0,o),
(906,7,o),
(906,20,cs),
(907,1532,ls),
(907,1545,o),
(900,1552,o),
(887,1552,cs),
(836,1552,ls),
(823,1552,o),
(816,1545,o),
(816,1532,cs),
(817,187,l),
(796,112,l),
(817,112,l),
(835,18,ls),
(837,6,o),
(845,0,o),
(857,0,cs)
);
},
{
closed = 1;
nodes = (
(715,-24,o),
(882,109,o),
(878,439,c),
(817,446,l),
(817,237,o),
(759,63,o),
(520,63,cs),
(301,63,o),
(201,202,o),
(201,426,cs),
(201,634,ls),
(201,848,o),
(301,997,o),
(520,997,cs),
(715,997,o),
(817,823,o),
(817,646,c),
(869,646,l),
(869,867,o),
(788,1084,o),
(520,1084,cs),
(307,1084,o),
(109,944,o),
(109,630,cs),
(109,430,ls),
(109,106,o),
(307,-24,o),
(520,-24,cs)
);
}
);
width = 1052;
},
{
anchors = (
{
name = bottom;
pos = (624,0);
},
{
name = center;
pos = (934,1367);
},
{
name = top;
pos = (624,1169);
},
{
name = topright;
pos = (1120,1708);
}
);
layerId = m005;
shapes = (
{
closed = 1;
nodes = (
(1030,0,ls),
(1056,0,o),
(1070,14,o),
(1070,40,cs),
(1070,1500,ls),
(1070,1526,o),
(1056,1540,o),
(1030,1540,cs),
(804,1540,ls),
(778,1540,o),
(764,1526,o),
(764,1500,cs),
(764,115,l),
(780,115,l),
(804,115,l),
(828,34,ls),
(835,12,o),
(850,0,o),
(873,0,cs)
);
},
{
closed = 1;
nodes = (
(754,-24,o),
(869,149,o),
(805,459,c),
(764,459,l),
(767,285,o),
(653,234,o),
(562,234,cs),
(475,234,o),
(379,294,o),
(379,459,cs),
(379,599,ls),
(379,765,o),
(475,824,o),
(562,824,cs),
(653,824,o),
(767,772,o),
(764,599,c),
(826,599,l),
(863,933,o),
(746,1084,o),
(516,1084,cs),
(313,1084,o),
(73,968,o),
(73,576,cs),
(73,484,ls),
(73,95,o),
(303,-24,o),
(508,-24,cs)
);
}
);
width = 1193;
},
{
anchors = (
{
name = bottom;
pos = (447,0);
},
{
name = center;
pos = (748,1367);
},
{
name = top;
pos = (447,1169);
},
{
name = topright;
pos = (951,1710);
}
);
background = {
shapes = (
{
closed = 0;
nodes = (
(601,1179,l),
(448,1179,l)
);
}
);
};
layerId = "1B8EDE0E-D46F-48F9-B9C6-2CD34FEA95FD";
shapes = (
{
closed = 1;
nodes = (
(971,-7,ls),
(990,-7,o),
(1001,3,o),
(1001,23,cs),
(1001,1510,ls),
(1001,1530,o),
(990,1540,o),
(971,1540,cs),
(835,1540,ls),
(816,1540,o),
(805,1529,o),
(805,1510,cs),
(805,84,l),
(815,84,l),
(838,84,l),
(854,19,ls),
(858,2,o),
(870,-7,o),
(888,-7,cs)
);
},
{
closed = 1;
nodes = (
(796,-24,o),
(882,123,o),
(906,429,c),
(805,463,l),
(805,263,o),
(712,150,o),
(554,150,cs),
(392,150,o),
(303,263,o),
(303,463,cs),
(303,617,ls),
(303,815,o),
(392,910,o),
(554,910,cs),
(716,910,o),
(805,815,o),
(805,617,c),
(882,657,l),
(899,923,o),
(757,1084,o),
(554,1084,cs),
(293,1084,o),
(109,903,o),
(109,606,cs),
(109,448,ls),
(109,157,o),
(287,-24,o),
(554,-24,cs)
);
}
);
width = 1132;
}
);
metricLeft = "=|b";
metricRight = "=|b";
unicode = 100;
},
{
glyphname = dcaron;
lastChange = "2025-11-30 18:29:08 +0000";
layers = (
{
layerId = m004;
shapes = (
{
ref = d;
},
{
closed = 1;
nodes = (
(1048,1166,ls),
(1060,1166,o),
(1067,1173,o),
(1068,1185,cs),
(1089,1522,ls),
(1090,1536,o),
(1082,1543,o),
(1069,1543,cs),
(998,1543,ls),
(985,1543,o),
(977,1536,o),
(978,1522,cs),
(999,1185,ls),
(1000,1173,o),
(1007,1166,o),
(1019,1166,cs)
);
}
);
width = 1052;
},
{
layerId = "1B8EDE0E-D46F-48F9-B9C6-2CD34FEA95FD";
shapes = (
{
ref = d;
},
{
closed = 1;
nodes = (
(1195,1164,ls),
(1213,1164,o),
(1225,1174,o),
(1227,1192,cs),
(1259,1510,ls),
(1261,1531,o),
(1250,1541,o),
(1230,1541,cs),
(1078,1541,ls),
(1058,1541,o),
(1047,1530,o),
(1049,1509,cs),
(1082,1192,ls),
(1084,1174,o),
(1096,1164,o),
(1114,1164,cs)
);
}
);
width = 1132;
},
{
layerId = m005;
shapes = (
{
ref = d;
},
{
closed = 1;
nodes = (
(1302,1106,ls),
(1327,1106,o),
(1341,1118,o),
(1343,1144,cs),
(1374,1497,ls),
(1376,1523,o),
(1362,1539,o),
(1336,1539,cs),
(1171,1539,ls),
(1145,1539,o),
(1131,1523,o),
(1133,1497,cs),
(1165,1144,ls),
(1167,1118,o),
(1181,1106,o),
(1206,1106,cs)
);
}
);
width = 1193;
}
);
unicode = 271;
},
{
glyphname = e;
lastChange = "2025-11-30 19:57:14 +0000";
layers = (
{
anchors = (
{
name = bottom;
pos = (534,0);
},
{
name = ogonek;
pos = (827,60);
},
{
name = top;
pos = (548,1063);
}
);
background = {
shapes = (
{
closed = 1;
nodes = (
(383,60,o),
(202,133,o),
(202,402,cs),
(202,633,ls),
(202,927,o),
(383,998,o),
(534,998,cs),
(673,998,o),
(866,927,o),
(866,633,cs),
(866,402,ls),
(866,133,o),
(673,60,o),
(534,60,cs)
);
},
{
closed = 1;
nodes = (
(721,-24,o),
(958,96,o),
(958,399,cs),
(958,636,ls),
(958,964,o),
(721,1084,o),
(534,1084,cs),
(336,1084,o),
(109,968,o),
(109,636,cs),
(109,399,ls),
(109,92,o),
(336,-24,o),
(534,-24,cs)
);
}
);
};
layerId = m004;
shapes = (
{
closed = 1;
nodes = (
(937,479,ls),
(950,479,o),
(957,486,o),
(957,499,cs),
(957,561,l),
(866,559,l),
(125,559,l),
(125,479,l)
);
},
{
closed = 1;
nodes = (
(766,-24,o),
(922,115,o),
(949,311,cs),
(950,323,o),
(943,330,o),
(930,330,cs),
(887,330,ls),
(875,330,o),
(868,324,o),
(866,312,cs),
(837,167,o),
(711,60,o),
(534,60,cs),
(383,60,o),
(202,133,o),
(202,402,cs),
(202,633,ls),
(202,927,o),
(383,998,o),
(534,998,cs),
(673,998,o),
(866,927,o),
(866,633,cs),
(866,551,l),
(957,551,l),
(957,633,ls),
(957,964,o),
(721,1084,o),
(534,1084,cs),
(336,1084,o),
(109,968,o),
(109,636,cs),
(109,399,ls),
(109,92,o),
(336,-24,o),
(534,-24,cs)
);
}
);
width = 1066;
},
{
anchors = (
{
name = bottom;
pos = (566,0);
},
{
name = ogonek;
pos = (1024,15);
},
{
name = top;
pos = (566,1063);
}
);
layerId = m005;
shapes = (
{
closed = 1;
nodes = (
(1017,441,ls),
(1043,441,o),
(1057,455,o),
(1057,481,cs),
(1057,549,l),
(956,627,l),
(141,627,l),
(141,441,l)
);
},
{
closed = 1;
nodes = (
(831,-24,o),
(1024,130,o),
(1048,337,cs),
(1051,359,o),
(1035,371,o),
(1009,371,cs),
(777,371,ls),
(754,371,o),
(741,360,o),
(733,337,cs),
(711,281,o),
(681,222,o),
(563,222,cs),
(424,222,o),
(376,325,o),
(376,411,cs),
(376,659,ls),
(376,757,o),
(444,819,o),
(563,819,cs),
(680,819,o),
(751,752,o),
(751,659,c),
(751,486,l),
(1057,486,l),
(1057,549,l),
(1067,869,o),
(863,1084,o),
(563,1084,cs),
(265,1084,o),
(73,876,o),
(73,576,cs),
(73,459,ls),
(73,81,o),
(355,-24,o),
(563,-24,cs)
);
}
);
width = 1130;
},
{
anchors = (
{
name = bottom;
pos = (580,0);
},
{
name = ogonek;
pos = (1044,15);
},
{
name = top;
pos = (579,1063);
}
);
layerId = "1B8EDE0E-D46F-48F9-B9C6-2CD34FEA95FD";
shapes = (
{
closed = 1;
nodes = (
(1021,445,ls),
(1040,445,o),
(1051,456,o),
(1051,475,cs),
(1051,571,l),
(970,619,l),
(283,619,l),
(283,445,l)
);
},
{
closed = 1;
nodes = (
(847,-24,o),
(1024,134,o),
(1049,345,cs),
(1051,362,o),
(1039,371,o),
(1019,371,cs),
(882,371,ls),
(864,371,o),
(854,362,o),
(850,343,cs),
(828,236,o),
(728,151,o),
(579,151,cs),
(421,151,o),
(305,266,o),
(305,424,cs),
(305,603,ls),
(305,799,o),
(412,909,o),
(579,909,cs),
(741,909,o),
(854,807,o),
(854,603,cs),
(854,551,l),
(1051,551,l),
(1051,609,ls),
(1051,903,o),
(854,1084,o),
(579,1084,cs),
(305,1084,o),
(109,903,o),
(109,609,cs),
(109,424,ls),
(109,157,o),
(305,-24,o),
(579,-24,cs)
);
}
);
width = 1160;
}
);
metricLeft = o;
metricRight = "=o";
unicode = 101;
},
{
glyphname = f;
lastChange = "2025-11-30 18:29:32 +0000";
layers = (
{
anchors = (
{
name = bottom;
pos = (302,0);
},
{
name = top;
pos = (302,1553);
}
);
layerId = m004;
shapes = (
{
closed = 1;
nodes = (
(285,0,l),
(285,983,l),
(532,983,ls),
(545,983,o),
(552,990,o),
(552,1003,cs),
(552,1043,ls),
(552,1056,o),
(545,1063,o),
(532,1063,cs),
(285,1063,l),
(285,1337,ls),
(285,1415,o),
(325,1460,o),
(397,1460,cs),
(532,1460,ls),
(545,1460,o),
(552,1467,o),
(552,1480,cs),
(552,1520,ls),
(552,1533,o),
(545,1540,o),
(532,1540,cs),
(395,1540,ls),
(260,1540,o),
(189,1469,o),
(189,1336,cs),
(189,1063,l),
(60,1063,ls),
(47,1063,o),
(40,1056,o),
(40,1043,cs),
(40,1003,ls),
(40,990,o),
(47,983,o),
(60,983,cs),
(189,983,l),
(189,0,l)
);
}
);
width = 502;
},
{
anchors = (
{
name = bottom;
pos = (397,0);
},
{
name = top;
pos = (397,1553);
}
);
layerId = m005;
shapes = (
{
closed = 1;
nodes = (
(518,0,l),
(518,811,l),
(708,811,ls),
(734,811,o),
(748,825,o),
(748,851,cs),
(748,1023,ls),
(748,1049,o),
(734,1063,o),
(708,1063,cs),
(518,1063,l),
(518,1158,ls),
(518,1232,o),
(547,1264,o),
(610,1264,cs),
(708,1264,ls),
(734,1264,o),
(748,1278,o),
(748,1304,cs),
(748,1500,ls),
(748,1526,o),
(734,1540,o),
(708,1540,cs),
(500,1540,ls),
(342,1540,o),
(216,1438,o),
(216,1238,cs),
(216,1063,l),
(97,1063,ls),
(71,1063,o),
(57,1049,o),
(57,1023,cs),
(57,851,ls),
(57,825,o),
(71,811,o),
(97,811,cs),
(216,811,l),
(216,0,l)
);
}
);
width = 760;
},
{
anchors = (
{
name = bottom;
pos = (363,3);
},
{
name = top;
pos = (363,1556);
}
);
background = {
shapes = (
{
closed = 0;
nodes = (
(284,830,l),
(284,876,o),
(310,906,o),
(352,906,cs),
(427,906,l),
(427,1027,l),
(352,1027,ls),
(234,1027,o),
(149,967,o),
(149,812,c)
);
}
);
};
layerId = "1B8EDE0E-D46F-48F9-B9C6-2CD34FEA95FD";
shapes = (
{
closed = 1;
nodes = (
(413,0,l),
(413,885,l),
(646,885,ls),
(665,885,o),
(676,896,o),
(676,915,cs),
(676,1030,ls),
(676,1050,o),
(665,1060,o),
(646,1060,cs),
(410,1060,l),
(409,1193,ls),
(408,1261,o),
(450,1304,o),
(510,1304,cs),
(646,1304,ls),
(665,1304,o),
(676,1315,o),
(676,1334,cs),
(676,1450,ls),
(676,1470,o),
(665,1480,o),
(646,1480,cs),
(510,1480,ls),
(339,1480,o),
(216,1393,o),
(216,1172,cs),
(216,1060,l),
(95,1060,ls),
(76,1060,o),
(65,1049,o),
(65,1030,cs),
(65,915,ls),
(65,896,o),
(76,885,o),
(95,885,cs),
(218,885,l),
(218,0,l)
);
}
);
width = 690;
}
);
unicode = 102;
},
{
glyphname = g;
lastChange = "2025-12-04 12:52:10 +0000";
layers = (
{
anchors = (
{
name = bottom;
pos = (565,-503);
},
{
name = top;
pos = (565,1131);
}
);
layerId = m004;
shapes = (
{
closed = 1;
nodes = (
(779,343,o),
(969,448,o),
(969,712,cs),
(971,957,o),
(779,1084,o),
(567,1084,cs),
(359,1084,o),
(169,957,o),
(169,712,cs),
(169,448,o),
(359,343,o),
(567,343,cs)
);
},
{
closed = 1;
nodes = (
(362,421,o),
(256,526,o),
(256,712,cs),
(256,874,o),
(362,1004,o),
(567,1004,cs),
(774,1004,o),
(883,874,o),
(883,712,cs),
(883,526,o),
(774,421,o),
(567,421,cs)
);
},
{
closed = 1;
nodes = (
(651,0,l),
(650,81,l),
(433,81,ls),
(288,81,o),
(203,136,o),
(203,242,cs),
(203,361,o),
(261,383,o),
(353,470,c),
(283,535,l),
(208,446,o),
(114,377,o),
(114,248,cs),
(114,116,o),
(191,0,o),
(419,0,cs)
);
},
{
closed = 1;
nodes = (
(675,-440,ls),
(910,-440,o),
(992,-312,o),
(992,-182,cs),
(992,-42,o),
(910,81,o),
(675,81,cs),
(362,81,ls),
(199,81,o),
(43,17,o),
(43,-182,cs),
(43,-312,o),
(125,-440,o),
(362,-440,cs)
);
},
{
closed = 1;
nodes = (
(214,-357,o),
(134,-302,o),
(134,-179,cs),
(134,-50,o),
(214,0,o),
(359,0,cs),
(676,0,ls),
(828,0,o),
(901,-53,o),
(901,-179,cs),
(901,-298,o),
(828,-357,o),
(676,-357,cs),
(359,-357,ls)
);
},
{
closed = 1;
nodes = (
(879,955,l),
(879,1039,o),
(899,1058,o),
(957,1060,c),
(989,1060,ls),
(1002,1060,o),
(1009,1067,o),
(1009,1080,cs),
(1009,1120,ls),
(1009,1133,o),
(1002,1140,o),
(989,1140,cs),
(897,1140,ls),
(809,1140,o),
(783,1069,o),
(783,955,c)
);
}
);
width = 1090;
},
{
anchors = (
{
name = bottom;
pos = (612,-249);
},
{
name = top;
pos = (612,1385);
}
);
layerId = m005;
shapes = (
{
closed = 1;
nodes = (
(851,328,o),
(1053,396,o),
(1053,702,cs),
(1053,1004,o),
(835,1084,o),
(628,1084,cs),
(422,1084,o),
(207,983,o),
(207,702,cs),
(207,396,o),
(409,328,o),
(628,328,cs)
);
},
{
closed = 1;
nodes = (
(528,528,o),
(452,581,o),
(452,704,cs),
(452,803,o),
(519,879,o),
(628,879,cs),
(736,879,o),
(807,803,o),
(807,704,cs),
(807,578,o),
(733,528,o),
(628,528,cs)
);
},
{
closed = 1;
nodes = (
(689,75,l),
(689,239,l),
(537,237,ls),
(441,236,o),
(328,253,o),
(328,335,cs),
(328,377,o),
(406,415,o),
(465,471,c),
(312,657,l),
(235,602,o),
(99,512,o),
(99,360,cs),
(99,196,o),
(203,75,o),
(465,75,cs)
);
},
{
closed = 1;
nodes = (
(689,-422,ls),
(989,-422,o),
(1092,-269,o),
(1092,-93,cs),
(1092,85,o),
(988,239,o),
(689,239,cs),
(535,239,ls),
(261,239,o),
(132,88,o),
(132,-93,cs),
(132,-269,o),
(235,-422,o),
(535,-422,cs)
);
},
{
closed = 1;
nodes = (
(394,-196,o),
(368,-163,o),
(368,-93,cs),
(368,-43,o),
(394,0,o),
(472,0,cs),
(752,0,ls),
(822,0,o),
(857,-43,o),
(857,-93,cs),
(857,-163,o),
(822,-196,o),
(752,-196,cs),
(472,-196,ls)
);
},
{
closed = 1;
nodes = (
(980,865,l),
(980,917,o),
(979,964,o),
(1078,967,c),
(1095,967,l),
(1123,967,o),
(1138,979,o),
(1138,1006,cs),
(1138,1190,ls),
(1138,1215,o),
(1124,1230,o),
(1098,1230,c),
(1094,1230,l),
(827,1228,o),
(725,1015,o),
(725,865,c)
);
}
);
width = 1224;
},
{
anchors = (
{
name = bottom;
pos = (413,-529);
},
{
name = top;
pos = (413,953);
}
);
layerId = "1B8EDE0E-D46F-48F9-B9C6-2CD34FEA95FD";
shapes = (
{
closed = 1;
nodes = (
(776,342,o),
(969,430,o),
(969,712,cs),
(969,989,o),
(763,1084,o),
(564,1084,cs),
(365,1084,o),
(161,976,o),
(161,712,cs),
(161,430,o),
(354,342,o),
(564,342,cs)
);
},
{
closed = 1;
nodes = (
(429,497,o),
(344,564,o),
(344,715,cs),
(344,839,o),
(429,929,o),
(564,929,cs),
(702,929,o),
(783,839,o),
(783,715,cs),
(783,564,o),
(702,497,o),
(564,497,cs)
);
},
{
closed = 1;
nodes = (
(702,28,l),
(702,164,l),
(492,164,ls),
(370,164,o),
(281,245,o),
(281,315,cs),
(281,377,o),
(354,428,o),
(406,462,c),
(299,575,l),
(216,519,o),
(103,414,o),
(103,315,cs),
(103,206,o),
(189,54,o),
(428,41,cs)
);
},
{
closed = 1;
nodes = (
(695,-440,ls),
(954,-440,o),
(1059,-288,o),
(1059,-143,cs),
(1059,30,o),
(954,166,o),
(695,166,cs),
(444,166,ls),
(200,166,o),
(80,30,o),
(80,-143,cs),
(80,-288,o),
(183,-440,o),
(444,-440,cs)
);
},
{
closed = 1;
nodes = (
(344,-273,o),
(271,-223,o),
(271,-137,cs),
(271,-28,o),
(344,0,o),
(436,0,cs),
(699,0,ls),
(793,0,o),
(866,-45,o),
(866,-137,cs),
(866,-205,o),
(793,-273,o),
(699,-273,cs),
(436,-273,ls)
);
},
{
closed = 1;
nodes = (
(837,957,l),
(837,1014,o),
(850,1062,o),
(945,1062,c),
(955,1062,l),
(975,1062,o),
(986,1073,o),
(986,1093,cs),
(986,1213,ls),
(986,1233,o),
(975,1243,o),
(955,1243,c),
(950,1243,l),
(761,1240,o),
(683,1087,o),
(683,957,c)
);
}
);
width = 1117;
}
);
unicode = 103;
},
{
glyphname = h;
lastChange = "2025-11-30 18:30:18 +0000";
layers = (
{
anchors = (
{
name = bottom;
pos = (537,0);
},
{
name = center;
pos = (293,1243);
},
{
name = top;
pos = (537,1553);
}
);
layerId = m004;
shapes = (
{
closed = 1;
nodes = (
(216,0,ls),
(229,0,o),
(236,7,o),
(236,20,cs),
(236,1530,ls),
(236,1543,o),
(229,1550,o),
(216,1550,cs),
(165,1550,ls),
(152,1550,o),
(145,1543,o),
(145,1530,cs),
(145,20,ls),
(145,7,o),
(152,0,o),
(165,0,cs)
);
},
{
closed = 1;
nodes = (
(236,612,l),
(236,864,o),
(360,1005,o),
(567,1005,cs),
(741,1005,o),
(848,885,o),
(848,686,cs),
(848,20,ls),
(848,7,o),
(855,0,o),
(868,0,cs),
(920,0,ls),
(933,0,o),
(940,7,o),
(940,20,cs),
(940,702,ls),
(940,966,o),
(784,1090,o),
(567,1090,cs),
(300,1090,o),
(194,916,o),
(194,612,c)
);
}
);
width = 1073;
},
{
anchors = (
{
name = bottom;
pos = (603,-755);
},
{
name = center;
pos = (307,487);
},
{
name = top;
pos = (603,798);
}
);
layerId = m005;
shapes = (
{
closed = 1;
nodes = (
(389,0,ls),
(415,0,o),
(429,14,o),
(429,40,cs),
(429,1500,ls),
(429,1526,o),
(415,1540,o),
(389,1540,cs),
(163,1540,ls),
(137,1540,o),
(123,1526,o),
(123,1500,cs),
(123,40,ls),
(123,14,o),
(137,0,o),
(163,0,cs)
);
},
{
closed = 1;
nodes = (
(429,625,l),
(425,773,o),
(539,828,o),
(631,828,cs),
(715,828,o),
(808,780,o),
(808,583,cs),
(808,40,ls),
(808,14,o),
(822,0,o),
(848,0,cs),
(1065,0,ls),
(1091,0,o),
(1105,14,o),
(1105,40,cs),
(1105,583,ls),
(1105,970,o),
(876,1084,o),
(671,1084,cs),
(415,1084,o),
(331,907,o),
(425,758,c)
);
}
);
width = 1221;
},
{
anchors = (
{
name = bottom;
pos = (563,-302);
},
{
name = center;
pos = (274,943);
},
{
name = top;
pos = (563,1253);
}
);
layerId = "1B8EDE0E-D46F-48F9-B9C6-2CD34FEA95FD";
shapes = (
{
closed = 1;
nodes = (
(302,0,ls),
(321,0,o),
(332,11,o),
(332,30,cs),
(332,1510,ls),
(332,1530,o),
(321,1540,o),
(302,1540,cs),
(161,1540,ls),
(142,1540,o),
(131,1529,o),
(131,1510,cs),
(131,30,ls),
(131,11,o),
(142,0,o),
(161,0,cs)
);
},
{
closed = 1;
nodes = (
(332,655,l),
(332,841,o),
(441,912,o),
(577,912,cs),
(713,912,o),
(821,841,o),
(821,655,cs),
(821,30,ls),
(821,11,o),
(832,0,o),
(851,0,cs),
(986,0,ls),
(1005,0,o),
(1016,11,o),
(1016,30,cs),
(1016,629,ls),
(1016,973,o),
(813,1084,o),
(609,1084,cs),
(376,1084,o),
(216,923,o),
(245,655,c)
);
}
);
width = 1139;
}
);
metricLeft = n;
metricRight = n;
unicode = 104;
},
{
glyphname = i;
lastChange = "2025-12-04 12:39:40 +0000";
layers = (
{
anchors = (
{
name = bottom;
pos = (247,0);
}
);
layerId = m004;
shapes = (
{
closed = 1;
nodes = (
(415,0,ls),
(428,0,o),
(435,7,o),
(435,20,cs),
(435,63,ls),
(435,76,o),
(428,83,o),
(415,83,cs),
(396,83,ls),
(326,83,o),
(283,96,o),
(283,215,cs),
(283,1040,ls),
(283,1053,o),
(276,1060,o),
(263,1060,cs),
(211,1060,ls),
(198,1060,o),
(191,1053,o),
(191,1040,cs),
(191,190,l),
(191,47,o),
(265,0,o),
(396,0,cs)
);
},
{
closed = 1;
nodes = (
(283,1209,o),
(310,1238,o),
(310,1285,cs),
(310,1333,o),
(283,1360,o),
(235,1360,cs),
(189,1360,o),
(160,1333,o),
(160,1285,cs),
(160,1238,o),
(189,1209,o),
(235,1209,cs)
);
}
);
width = 512;
},
{
anchors = (
{
name = bottom;
pos = (313,0);
}
);
background = {
shapes = (
{
closed = 0;
nodes = (
(212,72,ls),
(181,72,o),
(171,86,o),
(171,109,cs)
);
}
);
};
layerId = m005;
shapes = (
{
closed = 1;
nodes = (
(498,0,ls),
(524,0,o),
(538,14,o),
(538,40,cs),
(538,241,ls),
(538,267,o),
(524,281,o),
(498,281,cs),
(479,281,ls),
(448,281,o),
(428,302,o),
(428,361,cs),
(431,1020,ls),
(431,1046,o),
(417,1060,o),
(391,1060,cs),
(165,1060,ls),
(139,1060,o),
(125,1046,o),
(125,1020,cs),
(122,297,ls),
(121,88,o),
(252,0,o),
(407,0,cs)
);
},
{
closed = 1;
nodes = (
(389,1151,o),
(448,1218,o),
(448,1321,cs),
(448,1421,o),
(387,1485,o),
(274,1485,cs),
(162,1485,o),
(102,1421,o),
(102,1321,cs),
(102,1218,o),
(161,1151,o),
(274,1151,cs)
);
}
);
width = 647;
},
{
anchors = (
{
name = bottom;
pos = (243,-609);
}
);
layerId = "1B8EDE0E-D46F-48F9-B9C6-2CD34FEA95FD";
shapes = (
{
closed = 1;
nodes = (
(431,0,ls),
(450,0,o),
(461,11,o),
(461,30,cs),
(461,150,ls),
(461,170,o),
(450,180,o),
(431,180,cs),
(409,180,ls),
(359,180,o),
(319,219,o),
(319,294,cs),
(320,1033,ls),
(320,1052,o),
(309,1063,o),
(290,1063,cs),
(154,1063,ls),
(135,1063,o),
(124,1053,o),
(124,1033,cs),
(123,310,ls),
(123,87,o),
(248,0,o),
(397,0,cs)
);
},
{
closed = 1;
nodes = (
(301,1234,o),
(349,1280,o),
(349,1359,cs),
(349,1438,o),
(301,1485,o),
(221,1485,cs),
(140,1485,o),
(95,1438,o),
(95,1359,cs),
(95,1280,o),
(140,1234,o),
(221,1234,cs)
);
}
);
width = 541;
}
);
unicode = 105;
},
{
glyphname = idotless;
lastChange = "2025-12-04 13:06:47 +0000";
layers = (
{
anchors = (
{
name = bottom;
pos = (179,0);
},
{
name = ogonek;
pos = (435,0);
},
{
name = top;
pos = (179,1060);
}
);
layerId = m004;
shapes = (
{
closed = 1;
nodes = (
(415,0,ls),
(428,0,o),
(435,7,o),
(435,20,cs),
(435,63,ls),
(435,76,o),
(428,83,o),
(415,83,cs),
(396,83,ls),
(326,83,o),
(283,96,o),
(283,215,cs),
(283,1040,ls),
(283,1053,o),
(276,1060,o),
(263,1060,cs),
(211,1060,ls),
(198,1060,o),
(191,1053,o),
(191,1040,cs),
(191,190,l),
(191,47,o),
(265,0,o),
(396,0,cs)
);
}
);
width = 512;
},
{
anchors = (
{
name = bottom;
pos = (276,0);
},
{
name = ogonek;
pos = (460,0);
},
{
name = top;
pos = (276,1060);
}
);
layerId = "1B8EDE0E-D46F-48F9-B9C6-2CD34FEA95FD";
shapes = (
{
closed = 1;
nodes = (
(430,0,ls),
(449,0,o),
(460,11,o),
(460,30,cs),
(460,150,ls),
(460,170,o),
(449,180,o),
(430,180,cs),
(408,180,ls),
(358,180,o),
(318,219,o),
(318,294,cs),
(319,1033,ls),
(319,1052,o),
(308,1063,o),
(289,1063,cs),
(153,1063,ls),
(134,1063,o),
(123,1053,o),
(123,1033,cs),
(122,310,ls),
(122,87,o),
(247,0,o),
(396,0,cs)
);
}
);
width = 540;
},
{
anchors = (
{
name = bottom;
pos = (249,0);
},
{
name = ogonek;
pos = (538,0);
},
{
name = top;
pos = (249,1060);
}
);
layerId = m005;
shapes = (
{
closed = 1;
nodes = (
(498,0,ls),
(524,0,o),
(538,14,o),
(538,40,cs),
(538,241,ls),
(538,267,o),
(524,281,o),
(498,281,cs),
(479,281,ls),
(448,281,o),
(428,302,o),
(428,361,cs),
(431,1020,ls),
(431,1046,o),
(417,1060,o),
(391,1060,cs),
(165,1060,ls),
(139,1060,o),
(125,1046,o),
(125,1020,cs),
(122,297,ls),
(121,88,o),
(252,0,o),
(407,0,cs)
);
}
);
width = 647;
}
);
metricRight = i;
unicode = 305;
},
{
glyphname = j;
lastChange = "2025-11-30 18:33:09 +0000";
layers = (
{
layerId = m004;
shapes = (
{
closed = 1;
nodes = (
(228,-440,o),
(300,-394,o),
(300,-252,c),
(300,1040,ls),
(300,1053,o),
(293,1060,o),
(280,1060,cs),
(230,1060,ls),
(217,1060,o),
(210,1053,o),
(210,1040,cs),
(210,-227,l),
(210,-344,o),
(167,-357,o),
(99,-357,cs),
(-9,-357,ls),
(-22,-357,o),
(-29,-364,o),
(-29,-377,cs),
(-29,-420,ls),
(-29,-433,o),
(-22,-440,o),
(-9,-440,cs),
(99,-440,ls)
);
},
{
closed = 1;
nodes = (
(299,1209,o),
(326,1237,o),
(326,1283,cs),
(326,1330,o),
(299,1359,o),
(252,1359,cs),
(206,1359,o),
(177,1330,o),
(177,1283,cs),
(177,1237,o),
(206,1209,o),
(252,1209,cs)
);
}
);
width = 441;
},
{
background = {
shapes = (
{
closed = 0;
nodes = (
(138,-61,ls),
(138,-140,o),
(88,-173,o),
(29,-173,cs)
);
}
);
};
layerId = m005;
shapes = (
{
closed = 1;
nodes = (
(300,-448,o),
(426,-358,o),
(425,-151,cs),
(422,1020,ls),
(422,1046,o),
(408,1060,o),
(382,1060,cs),
(156,1060,ls),
(130,1060,o),
(116,1046,o),
(116,1020,cs),
(119,-77,ls),
(119,-141,o),
(99,-167,o),
(33,-167,cs),
(-40,-167,ls),
(-66,-167,o),
(-80,-181,o),
(-80,-207,cs),
(-80,-408,ls),
(-80,-434,o),
(-66,-448,o),
(-40,-448,cs),
(142,-448,ls)
);
},
{
closed = 1;
nodes = (
(386,1151,o),
(444,1219,o),
(444,1321,cs),
(444,1421,o),
(383,1483,o),
(273,1483,cs),
(160,1483,o),
(99,1421,o),
(99,1321,cs),
(99,1219,o),
(160,1151,o),
(273,1151,cs)
);
}
);
width = 542;
},
{
layerId = "1B8EDE0E-D46F-48F9-B9C6-2CD34FEA95FD";
shapes = (
{
closed = 1;
nodes = (
(244,-448,o),
(367,-361,o),
(367,-136,c),
(367,1033,ls),
(367,1053,o),
(356,1063,o),
(337,1063,cs),
(201,1063,ls),
(182,1063,o),
(171,1053,o),
(171,1033,cs),
(171,-162,l),
(171,-229,o),
(133,-273,o),
(73,-273,cs),
(-6,-273,ls),
(-25,-273,o),
(-36,-284,o),
(-36,-303,cs),
(-36,-418,ls),
(-36,-438,o),
(-25,-448,o),
(-6,-448,cs),
(73,-448,ls)
);
},
{
closed = 1;
nodes = (
(344,1234,o),
(392,1280,o),
(392,1359,cs),
(392,1438,o),
(344,1485,o),
(264,1485,cs),
(183,1485,o),
(138,1438,o),
(138,1359,cs),
(138,1280,o),
(183,1234,o),
(264,1234,cs)
);
}
);
width = 519;
}
);
unicode = 106;
},
{
glyphname = k;
lastChange = "2025-12-04 12:35:18 +0000";
layers = (
{
anchors = (
{
name = bottom;
pos = (576,0);
},
{
name = top;
pos = (576,1553);
}
);
layerId = m004;
shapes = (
{
closed = 1;
nodes = (
(216,0,ls),
(229,0,o),
(236,7,o),
(236,20,cs),
(236,1520,ls),
(236,1533,o),
(229,1540,o),
(216,1540,cs),
(165,1540,ls),
(152,1540,o),
(145,1533,o),
(145,1520,cs),
(145,20,ls),
(145,7,o),
(152,0,o),
(165,0,cs)
);
},
{
closed = 1;
nodes = (
(928,0,ls),
(944,0,o),
(950,11,o),
(942,24,cs),
(521,742,l),
(457,680,l),
(845,14,ls),
(850,5,o),
(858,0,o),
(869,0,cs)
);
},
{
closed = 1;
nodes = (
(232,365,l),
(870,1035,ls),
(882,1048,o),
(876,1060,o),
(859,1060,cs),
(786,1060,ls),
(776,1060,o),
(768,1056,o),
(761,1049,cs),
(180,434,l)
);
}
);
width = 1057;
},
{
anchors = (
{
name = bottom;
pos = (557,0);
},
{
name = top;
pos = (557,1553);
}
);
layerId = m005;
shapes = (
{
closed = 1;
nodes = (
(389,0,ls),
(415,0,o),
(429,14,o),
(429,40,cs),
(429,1500,ls),
(429,1526,o),
(415,1540,o),
(389,1540,cs),
(163,1540,ls),
(137,1540,o),
(123,1526,o),
(123,1500,cs),
(123,40,ls),
(123,14,o),
(137,0,o),
(163,0,cs)
);
},
{
closed = 1;
nodes = (
(1067,0,ls),
(1099,0,o),
(1112,20,o),
(1093,48,cs),
(637,705,l),
(297,705,l),
(774,26,ls),
(786,8,o),
(801,0,o),
(822,0,cs)
);
},
{
closed = 1;
nodes = (
(374,368,l),
(1047,1019,ls),
(1073,1045,o),
(1062,1068,o),
(1026,1068,cs),
(767,1068,ls),
(747,1068,o),
(732,1063,o),
(717,1048,cs),
(171,509,l)
);
}
);
width = 1117;
},
{
anchors = (
{
name = bottom;
pos = (493,0);
},
{
name = top;
pos = (493,1553);
}
);
layerId = "1B8EDE0E-D46F-48F9-B9C6-2CD34FEA95FD";
shapes = (
{
closed = 1;
nodes = (
(296,0,ls),
(315,0,o),
(326,11,o),
(326,30,cs),
(326,1510,ls),
(326,1530,o),
(315,1540,o),
(296,1540,cs),
(161,1540,ls),
(142,1540,o),
(131,1529,o),
(131,1510,cs),
(131,30,ls),
(131,11,o),
(142,0,o),
(161,0,cs)
);
},
{
closed = 1;
nodes = (
(961,0,ls),
(985,0,o),
(994,16,o),
(982,36,cs),
(579,708,l),
(387,661,l),
(775,20,ls),
(783,6,o),
(795,0,o),
(811,0,cs)
);
},
{
closed = 1;
nodes = (
(300,386,l),
(912,1023,ls),
(930,1042,o),
(922,1060,o),
(896,1060,cs),
(724,1060,ls),
(709,1060,o),
(697,1055,o),
(687,1044,cs),
(175,505,l)
);
}
);
width = 997;
}
);
metricLeft = n;
unicode = 107;
},
{
glyphname = l;
lastChange = "2025-11-30 20:32:31 +0000";
layers = (
{
anchors = (
{
name = bottom;
pos = (219,30);
},
{
name = center;
pos = (219,615);
},
{
name = top;
pos = (219,1739);
},
{
name = topright;
pos = (402,1739);
}
);
background = {
shapes = (
{
closed = 1;
nodes = (
(162,-9,l),
(162,17,l),
(146,17,ls),
(120,17,o),
(103,23,o),
(103,72,cs),
(103,589,l),
(74,589,l),
(74,63,ls),
(74,9,o),
(97,-9,o),
(146,-9,cs)
);
}
);
};
layerId = m004;
shapes = (
{
closed = 1;
nodes = (
(358,0,ls),
(371,0,o),
(378,7,o),
(378,20,cs),
(378,64,ls),
(378,77,o),
(371,84,o),
(358,84,cs),
(348,84,ls),
(280,84,o),
(236,96,o),
(236,215,c),
(236,1520,ls),
(236,1533,o),
(229,1540,o),
(216,1540,cs),
(165,1540,ls),
(152,1540,o),
(145,1533,o),
(145,1520,cs),
(145,190,l),
(145,46,o),
(218,0,o),
(348,0,cs)
);
}
);
width = 455;
},
{
anchors = (
{
name = bottom;
pos = (351,0);
},
{
name = center;
pos = (351,584);
},
{
name = top;
pos = (280,1540);
},
{
name = topright;
pos = (580,1708);
}
);
background = {
shapes = (
{
closed = 0;
nodes = (
(89,113,ls),
(89,34,o),
(138,0,o),
(197,0,cs)
);
}
);
};
layerId = m005;
shapes = (
{
closed = 1;
nodes = (
(498,0,ls),
(524,0,o),
(538,14,o),
(538,40,cs),
(538,241,ls),
(538,267,o),
(524,281,o),
(498,281,cs),
(480,281,ls),
(450,281,o),
(429,302,o),
(429,361,cs),
(429,1500,ls),
(429,1526,o),
(415,1540,o),
(389,1540,cs),
(163,1540,ls),
(137,1540,o),
(123,1526,o),
(123,1500,cs),
(123,297,ls),
(123,90,o),
(252,0,o),
(407,0,cs)
);
}
);
width = 647;
},
{
anchors = (
{
name = bottom;
pos = (260,0);
},
{
name = center;
pos = (260,584);
},
{
name = top;
pos = (260,1710);
},
{
name = topright;
pos = (486,1710);
}
);
layerId = "1B8EDE0E-D46F-48F9-B9C6-2CD34FEA95FD";
shapes = (
{
closed = 1;
nodes = (
(440,0,ls),
(459,0,o),
(470,11,o),
(470,30,cs),
(470,145,ls),
(470,165,o),
(459,175,o),
(440,175,cs),
(436,175,ls),
(367,175,o),
(326,213,o),
(326,290,c),
(326,1510,ls),
(326,1530,o),
(315,1540,o),
(296,1540,cs),
(161,1540,ls),
(142,1540,o),
(131,1529,o),
(131,1510,cs),
(131,316,l),
(131,90,o),
(254,0,o),
(423,0,cs)
);
}
);
width = 561;
}
);
metricLeft = "=n";
metricRight = i;
unicode = 108;
},
{
glyphname = lslash;
lastChange = "2025-11-30 20:32:31 +0000";
layers = (
{
layerId = m004;
shapes = (
{
ref = l;
},
{
closed = 1;
nodes = (
(84,708,ls),
(84,693,o),
(93,687,o),
(107,693,cs),
(280,766,ls),
(291,771,o),
(295,778,o),
(295,790,cs),
(295,835,ls),
(295,850,o),
(286,856,o),
(272,850,cs),
(99,777,ls),
(88,772,o),
(84,765,o),
(84,753,cs)
);
}
);
width = 455;
},
{
layerId = "1B8EDE0E-D46F-48F9-B9C6-2CD34FEA95FD";
shapes = (
{
ref = l;
},
{
closed = 1;
nodes = (
(54,717,ls),
(54,694,o),
(68,685,o),
(89,693,cs),
(403,821,ls),
(419,827,o),
(426,839,o),
(426,856,cs),
(426,999,ls),
(426,1022,o),
(412,1031,o),
(391,1023,cs),
(77,895,ls),
(61,889,o),
(54,877,o),
(54,860,cs)
);
}
);
width = 561;
},
{
layerId = m005;
shapes = (
{
ref = l;
},
{
closed = 1;
nodes = (
(43,671,ls),
(43,642,o),
(62,629,o),
(89,638,cs),
(498,774,ls),
(521,782,o),
(531,796,o),
(531,819,cs),
(531,993,ls),
(531,1022,o),
(512,1035,o),
(485,1026,cs),
(76,888,ls),
(53,880,o),
(43,866,o),
(43,843,cs)
);
}
);
width = 647;
}
);
metricRight = "=l";
unicode = 322;
},
{
glyphname = m;
lastChange = "2025-11-30 19:15:19 +0000";
layers = (
{
anchors = (
{
name = bottom;
pos = (917,0);
},
{
name = top;
pos = (917,1169);
}
);
layerId = m004;
shapes = (
{
closed = 1;
nodes = (
(216,0,ls),
(229,0,o),
(236,7,o),
(236,20,cs),
(236,869,l),
(261,944,l),
(236,944,l),
(218,1042,ls),
(216,1054,o),
(209,1060,o),
(197,1060,cs),
(165,1060,ls),
(152,1060,o),
(145,1053,o),
(145,1040,cs),
(145,20,ls),
(145,7,o),
(152,0,o),
(165,0,cs)
);
},
{
closed = 1;
nodes = (
(878,0,ls),
(891,0,o),
(898,7,o),
(898,20,cs),
(898,692,ls),
(898,947,o),
(728,1084,o),
(521,1084,cs),
(295,1084,o),
(199,901,o),
(195,676,c),
(235,676,l),
(235,878,o),
(370,998,o),
(521,998,cs),
(673,998,o),
(807,878,o),
(807,676,cs),
(807,20,ls),
(807,7,o),
(814,0,o),
(827,0,cs)
);
},
{
closed = 1;
nodes = (
(1539,0,ls),
(1552,0,o),
(1559,7,o),
(1559,20,cs),
(1559,692,ls),
(1559,947,o),
(1388,1084,o),
(1182,1084,cs),
(957,1084,o),
(855,901,o),
(855,676,c),
(898,676,l),
(898,878,o),
(1030,998,o),
(1182,998,cs),
(1334,998,o),
(1466,878,o),
(1466,676,cs),
(1466,20,ls),
(1466,7,o),
(1473,0,o),
(1486,0,cs)
);
}
);
width = 1692;
},
{
anchors = (
{
name = bottom;
pos = (1008,0);
},
{
name = top;
pos = (1008,1169);
}
);
background = {
shapes = (
{
closed = 1;
nodes = (
(814,0,l),
(814,421,ls),
(814,714,o),
(658,801,o),
(491,801,cs),
(292,801,o),
(235,664,o),
(233,452,c),
(320,452,l),
(318,570,o),
(381,607,o),
(451,607,cs),
(520,607,o),
(583,567,o),
(583,452,cs),
(583,0,l)
);
}
);
};
layerId = m005;
shapes = (
{
closed = 1;
nodes = (
(391,0,ls),
(417,0,o),
(431,14,o),
(431,40,cs),
(431,945,l),
(415,945,l),
(392,945,l),
(366,1027,ls),
(359,1050,o),
(343,1060,o),
(320,1060,cs),
(163,1060,ls),
(137,1060,o),
(123,1046,o),
(123,1020,cs),
(123,40,ls),
(123,14,o),
(137,0,o),
(163,0,cs)
);
},
{
closed = 1;
nodes = (
(1059,0,ls),
(1085,0,o),
(1099,14,o),
(1099,40,cs),
(1099,628,ls),
(1099,915,o),
(934,1084,o),
(696,1084,cs),
(451,1084,o),
(344,904,o),
(315,624,c),
(431,624,l),
(428,778,o),
(523,828,o),
(613,828,cs),
(706,828,o),
(802,773,o),
(802,624,cs),
(802,40,ls),
(802,14,o),
(816,0,o),
(842,0,cs)
);
},
{
closed = 1;
nodes = (
(1712,0,ls),
(1738,0,o),
(1752,14,o),
(1752,40,cs),
(1752,582,ls),
(1752,969,o),
(1559,1084,o),
(1337,1084,cs),
(1074,1084,o),
(987,904,o),
(985,624,c),
(1099,624,l),
(1096,778,o),
(1180,828,o),
(1272,828,cs),
(1363,828,o),
(1446,773,o),
(1446,624,cs),
(1446,40,ls),
(1446,14,o),
(1460,0,o),
(1486,0,cs)
);
}
);
width = 1868;
},
{
anchors = (
{
name = bottom;
pos = (937,0);
},
{
name = top;
pos = (937,1169);
}
);
layerId = "1B8EDE0E-D46F-48F9-B9C6-2CD34FEA95FD";
shapes = (
{
closed = 1;
nodes = (
(296,0,ls),
(315,0,o),
(326,11,o),
(326,30,cs),
(326,967,l),
(316,967,l),
(291,967,l),
(276,1034,ls),
(272,1051,o),
(261,1060,o),
(243,1060,cs),
(161,1060,ls),
(142,1060,o),
(131,1049,o),
(131,1030,cs),
(131,30,ls),
(131,11,o),
(142,0,o),
(161,0,cs)
);
},
{
closed = 1;
nodes = (
(939,0,ls),
(958,0,o),
(969,11,o),
(969,30,cs),
(969,658,ls),
(969,909,o),
(816,1084,o),
(599,1084,cs),
(371,1084,o),
(218,900,o),
(244,658,c),
(326,636,l),
(326,841,o),
(448,912,o),
(550,912,cs),
(651,912,o),
(774,841,o),
(774,636,cs),
(774,30,ls),
(774,11,o),
(785,0,o),
(804,0,cs)
);
},
{
closed = 1;
nodes = (
(1581,0,ls),
(1600,0,o),
(1611,11,o),
(1611,30,cs),
(1611,639,ls),
(1611,971,o),
(1405,1084,o),
(1224,1084,cs),
(1032,1084,o),
(879,958,o),
(871,658,c),
(969,636,l),
(969,819,o),
(1090,912,o),
(1192,912,cs),
(1293,912,o),
(1415,841,o),
(1415,636,cs),
(1415,30,ls),
(1415,11,o),
(1426,0,o),
(1445,0,cs)
);
}
);
width = 1734;
}
);
metricLeft = "=n";
metricRight = "=n";
unicode = 109;
},
{
glyphname = n;
lastChange = "2025-11-30 19:33:36 +0000";
layers = (
{
anchors = (
{
name = bottom;
pos = (538,0);
},
{
name = top;
pos = (538,1060);
}
);
background = {
shapes = (
{
closed = 0;
nodes = (
(219,404,ls),
(97,404,o),
(54,280,o),
(49,185,c)
);
}
);
};
layerId = m004;
shapes = (
{
closed = 1;
nodes = (
(235,664,l),
(235,868,o),
(347,1000,o),
(544,1000,cs),
(735,1000,o),
(851,880,o),
(851,664,cs),
(851,20,ls),
(851,7,o),
(858,0,o),
(871,0,cs),
(923,0,ls),
(936,0,o),
(943,7,o),
(943,20,cs),
(943,661,ls),
(943,957,o),
(792,1084,o),
(544,1084,cs),
(358,1084,o),
(167,948,o),
(194,664,c)
);
},
{
closed = 1;
nodes = (
(216,0,ls),
(229,0,o),
(236,7,o),
(236,20,cs),
(236,869,l),
(260,946,l),
(236,946,l),
(217,1042,ls),
(215,1054,o),
(207,1060,o),
(195,1060,cs),
(165,1060,ls),
(152,1060,o),
(145,1053,o),
(145,1040,cs),
(145,20,ls),
(145,7,o),
(152,0,o),
(165,0,cs)
);
}
);
width = 1076;
},
{
anchors = (
{
name = bottom;
pos = (615,0);
},
{
name = top;
pos = (615,1060);
}
);
background = {
shapes = (
{
closed = 0;
nodes = (
(701,265,ls),
(701,374,o),
(649,404,o),
(558,404,cs)
);
}
);
};
layerId = m005;
shapes = (
{
closed = 1;
nodes = (
(429,610,l),
(429,773,o),
(526,828,o),
(618,828,cs),
(709,828,o),
(812,773,o),
(812,610,cs),
(812,40,ls),
(812,14,o),
(826,0,o),
(852,0,cs),
(1074,0,ls),
(1100,0,o),
(1114,14,o),
(1114,40,cs),
(1114,581,ls),
(1114,901,o),
(979,1084,o),
(696,1084,cs),
(476,1084,o),
(352,971,o),
(334,610,c)
);
},
{
closed = 1;
nodes = (
(389,0,ls),
(415,0,o),
(429,14,o),
(429,40,cs),
(429,945,l),
(404,945,l),
(390,945,l),
(365,1027,ls),
(358,1049,o),
(343,1060,o),
(320,1060,cs),
(163,1060,ls),
(137,1060,o),
(123,1046,o),
(123,1020,cs),
(123,40,ls),
(123,14,o),
(137,0,o),
(163,0,cs)
);
}
);
width = 1230;
},
{
anchors = (
{
name = bottom;
pos = (567,0);
},
{
name = top;
pos = (567,1060);
}
);
layerId = "1B8EDE0E-D46F-48F9-B9C6-2CD34FEA95FD";
shapes = (
{
closed = 1;
nodes = (
(326,641,l),
(326,841,o),
(435,912,o),
(571,912,cs),
(708,912,o),
(815,841,o),
(815,641,cs),
(815,30,ls),
(815,11,o),
(826,0,o),
(845,0,cs),
(981,0,ls),
(1000,0,o),
(1011,11,o),
(1011,30,cs),
(1011,629,ls),
(1011,973,o),
(808,1084,o),
(603,1084,cs),
(370,1084,o),
(210,923,o),
(239,641,c)
);
},
{
closed = 1;
nodes = (
(296,0,ls),
(315,0,o),
(326,11,o),
(326,30,cs),
(326,971,l),
(315,971,l),
(291,971,l),
(277,1034,ls),
(273,1052,o),
(262,1060,o),
(244,1060,cs),
(161,1060,ls),
(142,1060,o),
(131,1049,o),
(131,1030,cs),
(131,30,ls),
(131,11,o),
(142,0,o),
(161,0,cs)
);
}
);
width = 1134;
}
);
unicode = 110;
},
{
glyphname = o;
lastChange = "2025-11-30 16:49:56 +0000";
layers = (
{
anchors = (
{
name = bottom;
pos = (534,0);
},
{
name = center;
pos = (534,530);
},
{
name = ogonek;
pos = (960,10);
},
{
name = top;
pos = (534,1060);
},
{
name = topright;
pos = (1047,1060);
}
);
layerId = m004;
shapes = (
{
closed = 1;
nodes = (
(383,59,o),
(202,132,o),
(202,402,cs),
(202,633,ls),
(202,930,o),
(383,1000,o),
(534,1000,cs),
(673,1000,o),
(866,930,o),
(866,633,cs),
(866,402,ls),
(866,132,o),
(673,59,o),
(534,59,cs)
);
},
{
closed = 1;
nodes = (
(721,-24,o),
(958,96,o),
(958,399,cs),
(958,636,ls),
(958,964,o),
(721,1084,o),
(534,1084,cs),
(336,1084,o),
(109,968,o),
(109,636,cs),
(109,399,ls),
(109,92,o),
(336,-24,o),
(534,-24,cs)
);
}
);
width = 1067;
},
{
anchors = (
{
name = bottom;
pos = (583,0);
},
{
name = center;
pos = (583,530);
},
{
name = ogonek;
pos = (1049,10);
},
{
name = top;
pos = (583,1060);
},
{
name = topright;
pos = (1145,1060);
}
);
layerId = m005;
shapes = (
{
closed = 1;
nodes = (
(493,241,o),
(366,292,o),
(366,454,cs),
(366,604,ls),
(366,766,o),
(493,817,o),
(581,817,cs),
(671,817,o),
(799,766,o),
(799,604,c),
(799,454,ls),
(799,292,o),
(671,241,o),
(581,241,cs)
);
},
{
closed = 1;
nodes = (
(866,-24,o),
(1092,185,o),
(1092,440,cs),
(1092,618,ls),
(1092,873,o),
(866,1082,o),
(581,1082,cs),
(287,1082,o),
(73,882,o),
(73,618,cs),
(73,440,ls),
(73,176,o),
(287,-24,o),
(581,-24,cs)
);
}
);
width = 1165;
},
{
anchors = (
{
name = bottom;
pos = (571,0);
},
{
name = center;
pos = (571,530);
},
{
name = ogonek;
pos = (1027,10);
},
{
name = top;
pos = (571,1060);
},
{
name = topright;
pos = (1121,1060);
}
);
layerId = "1B8EDE0E-D46F-48F9-B9C6-2CD34FEA95FD";
shapes = (
{
closed = 1;
nodes = (
(425,151,o),
(302,252,o),
(302,425,cs),
(302,632,ls),
(302,805,o),
(425,909,o),
(573,909,cs),
(721,909,o),
(840,805,o),
(840,632,cs),
(840,425,ls),
(840,252,o),
(721,151,o),
(573,151,cs)
);
},
{
closed = 1;
nodes = (
(837,-24,o),
(1032,164,o),
(1032,425,cs),
(1032,632,ls),
(1032,893,o),
(837,1084,o),
(573,1084,cs),
(309,1084,o),
(109,893,o),
(109,632,cs),
(109,425,ls),
(109,160,o),
(309,-24,o),
(573,-24,cs)
);
}
);
width = 1141;
}
);
metricRight = "=|";
unicode = 111;
},
{
glyphname = oslash;
lastChange = "2025-11-30 20:32:31 +0000";
layers = (
{
anchors = (
{
name = top;
pos = (316,1028);
}
);
layerId = m004;
shapes = (
{
ref = o;
},
{
closed = 1;
nodes = (
(198,0,ls),
(208,0,o),
(216,5,o),
(222,13,cs),
(933,1036,ls),
(942,1049,o),
(936,1061,o),
(920,1061,cs),
(856,1060,ls),
(846,1060,o),
(838,1056,o),
(832,1048,cs),
(121,24,ls),
(112,11,o),
(118,0,o),
(134,0,cs)
);
}
);
width = 1067;
},
{
anchors = (
{
name = top;
pos = (547,1041);
}
);
layerId = "1B8EDE0E-D46F-48F9-B9C6-2CD34FEA95FD";
shapes = (
{
ref = o;
},
{
closed = 1;
nodes = (
(262,0,ls),
(278,0,o),
(289,6,o),
(298,19,cs),
(1025,1023,ls),
(1039,1043,o),
(1031,1060,o),
(1006,1060,cs),
(878,1060,ls),
(862,1060,o),
(851,1054,o),
(842,1041,cs),
(115,37,ls),
(101,17,o),
(109,0,o),
(134,0,cs)
);
}
);
width = 1140;
},
{
anchors = (
{
name = top;
pos = (547,1041);
}
);
layerId = m005;
shapes = (
{
ref = o;
},
{
closed = 1;
nodes = (
(289,0,ls),
(310,0,o),
(324,7,o),
(337,24,cs),
(1081,1011,ls),
(1101,1038,o),
(1090,1060,o),
(1057,1060,cs),
(858,1060,ls),
(837,1060,o),
(823,1053,o),
(810,1036,cs),
(66,49,ls),
(46,22,o),
(57,0,o),
(90,0,cs)
);
}
);
width = 1148;
}
);
metricRight = "=|";
unicode = 248;
},
{
glyphname = p;
lastChange = "2025-11-30 19:39:49 +0000";
layers = (
{
anchors = (
{
name = bottom;
pos = (527,0);
},
{
name = top;
pos = (527,1060);
}
);
layerId = m004;
shapes = (
{
closed = 1;
nodes = (
(218,-439,ls),
(231,-439,o),
(238,-432,o),
(238,-419,cs),
(236,874,l),
(258,950,l),
(236,950,l),
(217,1042,ls),
(215,1054,o),
(207,1060,o),
(195,1060,cs),
(168,1060,ls),
(155,1060,o),
(148,1053,o),
(148,1040,cs),
(145,-419,ls),
(145,-432,o),
(152,-439,o),
(165,-439,cs)
);
},
{
closed = 1;
nodes = (
(338,63,o),
(237,237,o),
(237,414,c),
(185,414,l),
(185,193,o),
(265,-24,o),
(533,-24,cs),
(746,-24,o),
(944,116,o),
(944,430,cs),
(944,630,ls),
(944,954,o),
(746,1084,o),
(533,1084,cs),
(338,1084,o),
(171,951,o),
(175,621,c),
(236,614,l),
(236,823,o),
(294,997,o),
(533,997,cs),
(752,997,o),
(852,858,o),
(852,634,cs),
(852,426,ls),
(852,212,o),
(752,63,o),
(533,63,cs)
);
}
);
width = 1053;
},
{
anchors = (
{
name = bottom;
pos = (595,0);
},
{
name = top;
pos = (595,1060);
}
);
background = {
shapes = (
{
closed = 1;
nodes = (
(371,-10,o),
(457,33,o),
(457,179,cs),
(457,211,ls),
(457,356,o),
(370,400,o),
(287,400,cs),
(196,400,o),
(157,335,o),
(157,226,c),
(201,226,l),
(200,285,o),
(235,303,o),
(268,303,cs),
(301,303,o),
(345,286,o),
(345,211,cs),
(345,179,ls),
(345,105,o),
(301,87,o),
(268,87,cs),
(235,87,o),
(200,106,o),
(201,164,c),
(166,164,l),
(166,57,o),
(209,-10,o),
(287,-10,cs)
);
}
);
};
layerId = m005;
shapes = (
{
closed = 1;
nodes = (
(389,-450,ls),
(415,-450,o),
(429,-436,o),
(429,-410,cs),
(429,945,l),
(413,945,l),
(390,945,l),
(365,1027,ls),
(358,1049,o),
(343,1060,o),
(320,1060,cs),
(163,1060,ls),
(137,1060,o),
(123,1046,o),
(123,1020,cs),
(123,-410,ls),
(123,-436,o),
(137,-450,o),
(163,-450,cs)
);
},
{
closed = 1;
nodes = (
(546,236,o),
(429,288,o),
(426,461,c),
(364,461,l),
(327,127,o),
(444,-24,o),
(674,-24,cs),
(877,-24,o),
(1117,92,o),
(1117,484,cs),
(1117,576,ls),
(1117,965,o),
(887,1084,o),
(682,1084,cs),
(436,1084,o),
(321,911,o),
(385,601,c),
(426,601,l),
(429,775,o),
(548,826,o),
(628,826,cs),
(715,826,o),
(811,766,o),
(811,601,cs),
(811,461,ls),
(811,295,o),
(715,236,o),
(628,236,cs)
);
}
);
width = 1190;
},
{
anchors = (
{
name = bottom;
pos = (565,0);
},
{
name = top;
pos = (596,1060);
}
);
layerId = "1B8EDE0E-D46F-48F9-B9C6-2CD34FEA95FD";
shapes = (
{
closed = 1;
nodes = (
(296,-440,ls),
(315,-440,o),
(326,-430,o),
(326,-410,cs),
(326,969,l),
(315,969,l),
(291,969,l),
(276,1034,ls),
(272,1051,o),
(261,1060,o),
(243,1060,cs),
(161,1060,ls),
(142,1060,o),
(131,1050,o),
(131,1030,cs),
(131,-410,ls),
(131,-430,o),
(142,-440,o),
(161,-440,cs)
);
},
{
closed = 1;
nodes = (
(421,148,o),
(326,258,o),
(326,441,c),
(247,441,l),
(255,128,o),
(377,-24,o),
(608,-24,cs),
(867,-24,o),
(1021,155,o),
(1021,451,cs),
(1021,612,ls),
(1021,903,o),
(860,1084,o),
(596,1084,cs),
(351,1084,o),
(238,932,o),
(225,612,c),
(326,612,l),
(326,813,o),
(425,910,o),
(568,910,cs),
(729,910,o),
(828,799,o),
(828,612,cs),
(828,441,ls),
(828,258,o),
(729,148,o),
(568,148,cs)
);
}
);
width = 1130;
}
);
metricLeft = "=n";
metricRight = o;
unicode = 112;
},
{
glyphname = q;
lastChange = "2025-11-30 19:23:07 +0000";
layers = (
{
anchors = (
{
name = bottom;
pos = (521,0);
},
{
name = top;
pos = (521,1060);
}
);
layerId = m004;
shapes = (
{
closed = 1;
nodes = (
(888,-480,ls),
(901,-480,o),
(908,-473,o),
(908,-460,cs),
(905,1040,ls),
(905,1053,o),
(898,1060,o),
(885,1060,cs),
(858,1060,ls),
(846,1060,o),
(838,1054,o),
(836,1042,cs),
(817,950,l),
(795,950,l),
(817,874,l),
(815,-460,ls),
(815,-473,o),
(822,-480,o),
(835,-480,cs)
);
},
{
closed = 1;
nodes = (
(301,63,o),
(201,212,o),
(201,426,cs),
(201,634,ls),
(201,858,o),
(301,997,o),
(520,997,cs),
(759,997,o),
(817,823,o),
(817,614,c),
(878,621,l),
(882,951,o),
(715,1084,o),
(520,1084,cs),
(307,1084,o),
(109,954,o),
(109,630,cs),
(109,430,ls),
(109,116,o),
(307,-24,o),
(520,-24,cs),
(788,-24,o),
(868,193,o),
(868,414,c),
(816,414,l),
(816,237,o),
(715,63,o),
(520,63,cs)
);
}
);
width = 1041;
},
{
anchors = (
{
name = bottom;
pos = (592,0);
},
{
name = top;
pos = (592,1060);
}
);
layerId = m005;
shapes = (
{
closed = 1;
nodes = (
(1027,-450,ls),
(1053,-450,o),
(1067,-436,o),
(1067,-410,cs),
(1067,1020,ls),
(1067,1046,o),
(1053,1060,o),
(1027,1060,cs),
(870,1060,ls),
(847,1060,o),
(832,1049,o),
(825,1027,cs),
(800,945,l),
(777,945,l),
(761,945,l),
(761,-410,ls),
(761,-436,o),
(775,-450,o),
(801,-450,cs)
);
},
{
closed = 1;
nodes = (
(475,236,o),
(379,295,o),
(379,461,cs),
(379,601,ls),
(379,766,o),
(475,826,o),
(562,826,cs),
(642,826,o),
(761,775,o),
(764,601,c),
(805,601,l),
(869,911,o),
(754,1084,o),
(508,1084,cs),
(303,1084,o),
(73,965,o),
(73,576,cs),
(73,484,ls),
(73,92,o),
(313,-24,o),
(516,-24,cs),
(746,-24,o),
(863,127,o),
(826,461,c),
(764,461,l),
(761,288,o),
(644,236,o),
(562,236,cs)
);
}
);
width = 1183;
},
{
anchors = (
{
name = bottom;
pos = (561,0);
},
{
name = top;
pos = (561,1060);
}
);
layerId = "1B8EDE0E-D46F-48F9-B9C6-2CD34FEA95FD";
shapes = (
{
closed = 1;
nodes = (
(969,-440,ls),
(988,-440,o),
(999,-430,o),
(999,-410,cs),
(999,1030,ls),
(999,1050,o),
(988,1060,o),
(969,1060,cs),
(887,1060,ls),
(869,1060,o),
(858,1051,o),
(854,1034,cs),
(839,969,l),
(815,969,l),
(804,969,l),
(804,-410,ls),
(804,-430,o),
(815,-440,o),
(834,-440,cs)
);
},
{
closed = 1;
nodes = (
(401,148,o),
(302,258,o),
(302,441,cs),
(302,612,ls),
(302,799,o),
(401,910,o),
(562,910,cs),
(705,910,o),
(804,813,o),
(804,612,c),
(905,612,l),
(892,932,o),
(779,1084,o),
(534,1084,cs),
(270,1084,o),
(109,903,o),
(109,612,cs),
(109,451,ls),
(109,155,o),
(263,-24,o),
(522,-24,cs),
(753,-24,o),
(875,128,o),
(883,441,c),
(804,441,l),
(804,258,o),
(709,148,o),
(562,148,cs)
);
}
);
width = 1122;
}
);
metricLeft = "=o";
metricRight = "=n";
unicode = 113;
},
{
glyphname = r;
lastChange = "2025-12-04 12:35:39 +0000";
layers = (
{
anchors = (
{
name = bottom;
pos = (299,0);
},
{
name = top;
pos = (336,1060);
}
);
layerId = m004;
shapes = (
{
closed = 1;
nodes = (
(235,618,l),
(235,863,o),
(342,974,o),
(496,974,c),
(515,974,ls),
(528,974,o),
(535,981,o),
(535,994,cs),
(535,1040,ls),
(535,1053,o),
(528,1060,o),
(515,1060,cs),
(496,1060,l),
(271,1060,o),
(183,874,o),
(183,618,c)
);
},
{
closed = 1;
nodes = (
(216,0,ls),
(229,0,o),
(236,7,o),
(236,20,cs),
(236,867,l),
(270,945,l),
(236,945,l),
(217,1042,ls),
(215,1054,o),
(207,1060,o),
(195,1060,cs),
(165,1060,ls),
(152,1060,o),
(145,1053,o),
(145,1040,cs),
(145,20,ls),
(145,7,o),
(152,0,o),
(165,0,cs)
);
}
);
width = 567;
},
{
anchors = (
{
name = bottom;
pos = (435,0);
},
{
name = top;
pos = (435,1131);
}
);
background = {
shapes = (
{
closed = 1;
nodes = (
(444,0,l),
(444,221,ls),
(444,360,o),
(356,400,o),
(280,400,cs),
(207,400,o),
(148,358,o),
(144,247,c),
(188,247,l),
(191,303,o),
(231,324,o),
(268,324,cs),
(306,324,o),
(358,303,o),
(358,221,cs),
(358,0,l)
);
}
);
};
layerId = m005;
shapes = (
{
closed = 1;
nodes = (
(431,502,l),
(431,758,o),
(502,786,o),
(670,786,cs),
(704,786,ls),
(730,786,o),
(744,800,o),
(744,826,cs),
(744,1020,ls),
(744,1046,o),
(730,1060,o),
(704,1060,cs),
(670,1060,ls),
(358,1060,o),
(344,822,o),
(335,502,c)
);
},
{
closed = 1;
nodes = (
(389,0,ls),
(415,0,o),
(429,14,o),
(429,40,cs),
(429,945,l),
(413,945,l),
(390,945,l),
(365,1027,ls),
(358,1049,o),
(343,1060,o),
(320,1060,cs),
(163,1060,ls),
(137,1060,o),
(123,1046,o),
(123,1020,cs),
(123,40,ls),
(123,14,o),
(137,0,o),
(163,0,cs)
);
}
);
width = 742;
},
{
anchors = (
{
name = bottom;
pos = (344,0);
},
{
name = top;
pos = (344,1028);
}
);
layerId = "1B8EDE0E-D46F-48F9-B9C6-2CD34FEA95FD";
shapes = (
{
closed = 1;
nodes = (
(326,571,l),
(326,815,o),
(429,884,o),
(595,884,c),
(615,884,ls),
(634,884,o),
(645,895,o),
(645,914,cs),
(645,1030,ls),
(645,1050,o),
(634,1060,o),
(615,1060,cs),
(581,1060,l),
(316,1060,o),
(157,868,o),
(225,571,c)
);
},
{
closed = 1;
nodes = (
(296,0,ls),
(315,0,o),
(326,11,o),
(326,30,cs),
(326,967,l),
(315,967,l),
(291,967,l),
(274,1034,ls),
(270,1052,o),
(259,1060,o),
(241,1060,cs),
(161,1060,ls),
(142,1060,o),
(131,1049,o),
(131,1030,cs),
(131,30,ls),
(131,11,o),
(142,0,o),
(161,0,cs)
);
}
);
width = 641;
}
);
metricLeft = "=n";
unicode = 114;
},
{
glyphname = s;
lastChange = "2025-12-04 09:53:34 +0000";
layers = (
{
anchors = (
{
name = bottom;
pos = (473,0);
},
{
name = top;
pos = (473,1028);
}
);
layerId = m004;
shapes = (
{
closed = 1;
nodes = (
(710,-24,o),
(866,60,o),
(866,248,cs),
(866,413,o),
(731,486,o),
(591,545,cs),
(510,580,ls),
(353,646,o),
(226,682,o),
(226,817,cs),
(226,929,o),
(331,1002,o),
(474,1002,cs),
(610,1002,o),
(741,955,o),
(752,819,cs),
(753,806,o),
(761,799,o),
(773,799,cs),
(824,799,ls),
(837,799,o),
(844,806,o),
(843,820,cs),
(831,1019,o),
(635,1084,o),
(474,1084,cs),
(295,1084,o),
(143,982,o),
(143,813,cs),
(143,650,o),
(299,577,o),
(472,506,cs),
(547,475,ls),
(669,425,o),
(779,372,o),
(779,246,cs),
(779,55,o),
(535,51,o),
(496,51,cs),
(358,51,o),
(230,130,o),
(213,295,cs),
(211,307,o),
(204,314,o),
(192,314,cs),
(141,314,ls),
(128,314,o),
(120,307,o),
(121,293,cs),
(138,84,o),
(316,-24,o),
(496,-24,cs)
);
}
);
width = 971;
},
{
anchors = (
{
name = bottom;
pos = (464,13);
},
{
name = top;
pos = (464,1041);
}
);
layerId = m005;
shapes = (
{
closed = 1;
nodes = (
(748,-24,o),
(885,114,o),
(885,303,cs),
(885,444,o),
(783,554,o),
(589,636,cs),
(485,680,ls),
(401,715,o),
(355,746,o),
(355,777,cs),
(355,845,o),
(406,869,o),
(474,869,cs),
(544,869,o),
(594,828,o),
(600,750,cs),
(602,723,o),
(613,709,o),
(639,709,cs),
(856,709,ls),
(881,709,o),
(897,723,o),
(896,750,cs),
(887,1025,o),
(624,1084,o),
(474,1084,cs),
(322,1084,o),
(67,1022,o),
(67,785,cs),
(67,621,o),
(153,533,o),
(360,453,cs),
(451,418,ls),
(546,381,o),
(599,348,o),
(599,305,cs),
(599,259,o),
(555,214,o),
(490,214,cs),
(426,214,o),
(350,259,o),
(339,364,cs),
(336,391,o),
(324,405,o),
(299,405,cs),
(84,405,ls),
(59,405,o),
(43,391,o),
(43,365,cs),
(46,121,o),
(174,-24,o),
(487,-24,cs)
);
}
);
width = 932;
},
{
anchors = (
{
name = bottom;
pos = (481,0);
},
{
name = top;
pos = (481,1016);
}
);
layerId = "1B8EDE0E-D46F-48F9-B9C6-2CD34FEA95FD";
shapes = (
{
closed = 1;
nodes = (
(745,-24,o),
(881,85,o),
(881,271,cs),
(881,393,o),
(799,501,o),
(636,570,cs),
(508,624,ls),
(423,660,o),
(307,699,o),
(307,785,cs),
(307,853,o),
(374,905,o),
(493,905,cs),
(602,905,o),
(669,859,o),
(682,784,cs),
(685,765,o),
(694,755,o),
(713,755,cs),
(847,755,ls),
(866,755,o),
(878,766,o),
(877,786,cs),
(861,955,o),
(719,1084,o),
(493,1084,cs),
(264,1084,o),
(117,963,o),
(117,798,cs),
(117,650,o),
(208,560,o),
(360,496,cs),
(479,446,ls),
(541,420,o),
(702,370,o),
(702,271,cs),
(702,179,o),
(629,138,o),
(496,138,cs),
(376,138,o),
(291,191,o),
(271,309,cs),
(267,327,o),
(257,337,o),
(239,337,cs),
(122,337,ls),
(102,337,o),
(91,326,o),
(93,306,cs),
(117,83,o),
(259,-24,o),
(500,-24,cs)
);
}
);
width = 974;
}
);
unicode = 115;
},
{
glyphname = t;
lastChange = "2025-11-30 19:24:51 +0000";
layers = (
{
anchors = (
{
name = bottom;
pos = (342,0);
},
{
name = center;
pos = (342,513);
},
{
name = top;
pos = (342,1250);
},
{
name = topright;
pos = (608,1553);
}
);
layerId = m004;
shapes = (
{
closed = 1;
nodes = (
(515,0,ls),
(528,0,o),
(535,7,o),
(535,20,cs),
(535,63,ls),
(535,76,o),
(528,83,o),
(515,83,cs),
(421,83,ls),
(352,83,o),
(309,96,o),
(309,215,c),
(309,1263,ls),
(309,1276,o),
(302,1283,o),
(289,1283,cs),
(238,1283,ls),
(225,1283,o),
(218,1276,o),
(218,1263,cs),
(218,190,l),
(218,46,o),
(290,0,o),
(421,0,cs)
);
},
{
closed = 1;
nodes = (
(515,980,ls),
(528,980,o),
(535,987,o),
(535,1000,cs),
(535,1040,ls),
(535,1053,o),
(528,1060,o),
(515,1060,cs),
(111,1060,ls),
(98,1060,o),
(91,1053,o),
(91,1040,cs),
(91,1000,ls),
(91,987,o),
(98,980,o),
(111,980,cs)
);
}
);
width = 624;
},
{
anchors = (
{
name = bottom;
pos = (418,0);
},
{
name = center;
pos = (418,513);
},
{
name = top;
pos = (418,1283);
},
{
name = topright;
pos = (813,1553);
}
);
layerId = m005;
shapes = (
{
closed = 1;
nodes = (
(707,0,ls),
(733,0,o),
(747,14,o),
(747,40,cs),
(747,241,ls),
(747,267,o),
(733,281,o),
(707,281,cs),
(568,281,ls),
(519,281,o),
(497,302,o),
(497,361,cs),
(500,1278,ls),
(500,1304,o),
(486,1318,o),
(460,1318,cs),
(234,1318,ls),
(208,1318,o),
(194,1304,o),
(194,1278,cs),
(191,302,ls),
(191,88,o),
(322,0,o),
(477,0,cs)
);
},
{
closed = 1;
nodes = (
(707,811,ls),
(733,811,o),
(747,825,o),
(747,851,cs),
(747,1023,ls),
(747,1049,o),
(733,1063,o),
(707,1063,cs),
(63,1063,ls),
(37,1063,o),
(23,1049,o),
(23,1023,cs),
(23,849,ls),
(23,823,o),
(37,809,o),
(63,809,cs)
);
}
);
width = 861;
},
{
anchors = (
{
name = bottom;
pos = (416,0);
},
{
name = center;
pos = (416,513);
},
{
name = top;
pos = (349,1306);
},
{
name = topright;
pos = (779,1553);
}
);
layerId = "1B8EDE0E-D46F-48F9-B9C6-2CD34FEA95FD";
shapes = (
{
closed = 1;
nodes = (
(653,0,ls),
(672,0,o),
(683,11,o),
(683,30,cs),
(683,150,ls),
(683,170,o),
(672,180,o),
(653,180,cs),
(547,180,ls),
(477,180,o),
(439,219,o),
(439,294,c),
(441,1273,ls),
(441,1292,o),
(430,1303,o),
(411,1303,cs),
(275,1303,ls),
(256,1303,o),
(245,1293,o),
(245,1273,cs),
(244,310,l),
(244,87,o),
(368,0,o),
(535,0,cs)
);
},
{
closed = 1;
nodes = (
(653,884,ls),
(672,884,o),
(683,895,o),
(683,914,cs),
(683,1030,ls),
(683,1050,o),
(672,1060,o),
(653,1060,cs),
(110,1060,ls),
(91,1060,o),
(80,1049,o),
(80,1030,cs),
(80,914,ls),
(80,895,o),
(91,884,o),
(110,884,cs)
);
}
);
width = 786;
}
);
unicode = 116;
},
{
glyphname = u;
lastChange = "2025-11-30 19:32:30 +0000";
layers = (
{
anchors = (
{
name = bottom;
pos = (541,0);
},
{
name = ogonek;
pos = (1064,15);
},
{
name = top;
pos = (541,1063);
},
{
name = topright;
pos = (1166,1063);
}
);
layerId = m004;
shapes = (
{
closed = 1;
nodes = (
(841,396,l),
(841,192,o),
(729,60,o),
(532,60,cs),
(341,60,o),
(225,180,o),
(225,396,cs),
(225,1040,ls),
(225,1053,o),
(218,1060,o),
(205,1060,cs),
(153,1060,ls),
(140,1060,o),
(133,1053,o),
(133,1040,cs),
(133,399,ls),
(133,103,o),
(284,-24,o),
(532,-24,cs),
(718,-24,o),
(909,112,o),
(882,396,c)
);
},
{
closed = 1;
nodes = (
(911,0,ls),
(924,0,o),
(931,7,o),
(931,20,cs),
(931,1040,ls),
(931,1053,o),
(924,1060,o),
(911,1060,cs),
(860,1060,ls),
(847,1060,o),
(840,1053,o),
(840,1040,cs),
(840,191,l),
(816,114,l),
(840,114,l),
(859,18,ls),
(861,6,o),
(869,0,o),
(881,0,cs)
);
}
);
width = 1076;
},
{
anchors = (
{
name = bottom;
pos = (557,0);
},
{
name = ogonek;
pos = (1092,15);
},
{
name = top;
pos = (557,1063);
},
{
name = topright;
pos = (1197,1063);
}
);
layerId = m005;
shapes = (
{
closed = 1;
nodes = (
(801,450,l),
(801,287,o),
(704,232,o),
(612,232,cs),
(521,232,o),
(418,287,o),
(418,450,cs),
(418,1020,ls),
(418,1046,o),
(404,1060,o),
(378,1060,cs),
(156,1060,ls),
(130,1060,o),
(116,1046,o),
(116,1020,cs),
(116,479,ls),
(116,159,o),
(251,-24,o),
(534,-24,cs),
(754,-24,o),
(878,89,o),
(896,450,c)
);
},
{
closed = 1;
nodes = (
(1067,0,ls),
(1093,0,o),
(1107,14,o),
(1107,40,cs),
(1107,1020,ls),
(1107,1046,o),
(1093,1060,o),
(1067,1060,cs),
(841,1060,ls),
(815,1060,o),
(801,1046,o),
(801,1020,cs),
(801,207,l),
(801,115,l),
(840,115,l),
(865,33,ls),
(872,11,o),
(887,0,o),
(910,0,cs)
);
}
);
width = 1230;
},
{
anchors = (
{
name = bottom;
pos = (567,0);
},
{
name = ogonek;
pos = (1021,15);
},
{
name = top;
pos = (545,1063);
},
{
name = topright;
pos = (1105,1063);
}
);
layerId = "1B8EDE0E-D46F-48F9-B9C6-2CD34FEA95FD";
shapes = (
{
closed = 1;
nodes = (
(808,419,l),
(808,219,o),
(699,148,o),
(563,148,cs),
(426,148,o),
(319,219,o),
(319,419,cs),
(319,1030,ls),
(319,1050,o),
(308,1060,o),
(289,1060,cs),
(153,1060,ls),
(134,1060,o),
(123,1049,o),
(123,1030,cs),
(123,431,ls),
(123,87,o),
(326,-24,o),
(531,-24,cs),
(764,-24,o),
(924,136,o),
(895,419,c)
);
},
{
closed = 1;
nodes = (
(973,0,ls),
(992,0,o),
(1003,11,o),
(1003,30,cs),
(1003,1030,ls),
(1003,1050,o),
(992,1060,o),
(973,1060,cs),
(838,1060,ls),
(819,1060,o),
(808,1049,o),
(808,1030,cs),
(808,114,l),
(808,88,l),
(842,88,l),
(857,26,ls),
(861,8,o),
(872,0,o),
(890,0,cs)
);
}
);
width = 1134;
}
);
metricLeft = "=|n";
metricRight = "=|n";
unicode = 117;
},
{
glyphname = v;
lastChange = "2025-11-30 19:32:45 +0000";
layers = (
{
anchors = (
{
name = bottom;
pos = (441,0);
},
{
name = top;
pos = (441,1031);
}
);
layerId = m004;
shapes = (
{
closed = 1;
nodes = (
(394,16,ls),
(398,5,o),
(406,0,o),
(417,0,cs),
(462,0,ls),
(473,0,o),
(481,5,o),
(485,16,cs),
(849,1037,ls),
(854,1051,o),
(847,1060,o),
(833,1060,cs),
(779,1060,ls),
(768,1060,o),
(760,1055,o),
(756,1044,cs),
(416,75,l),
(465,75,l),
(121,1044,ls),
(117,1055,o),
(109,1060,o),
(98,1060,cs),
(48,1060,ls),
(34,1060,o),
(27,1051,o),
(32,1037,cs)
);
}
);
width = 881;
},
{
anchors = (
{
name = bottom;
pos = (612,0);
},
{
name = top;
pos = (612,1131);
}
);
layerId = m005;
shapes = (
{
closed = 1;
nodes = (
(414,31,ls),
(422,10,o),
(437,0,o),
(460,0,cs),
(653,0,ls),
(676,0,o),
(691,10,o),
(699,31,cs),
(1090,1014,ls),
(1101,1042,o),
(1088,1060,o),
(1058,1060,cs),
(834,1060,ls),
(811,1060,o),
(796,1049,o),
(788,1028,cs),
(457,133,l),
(654,133,l),
(342,1028,ls),
(334,1050,o),
(320,1060,o),
(297,1060,cs),
(56,1060,ls),
(26,1060,o),
(13,1042,o),
(24,1014,cs)
);
}
);
width = 1114;
},
{
anchors = (
{
name = bottom;
pos = (570,-1);
},
{
name = top;
pos = (570,1130);
}
);
layerId = "1B8EDE0E-D46F-48F9-B9C6-2CD34FEA95FD";
shapes = (
{
closed = 1;
nodes = (
(439,24,ls),
(445,7,o),
(456,0,o),
(473,0,cs),
(572,0,ls),
(589,0,o),
(600,7,o),
(606,24,cs),
(989,1025,ls),
(997,1046,o),
(987,1060,o),
(965,1060,cs),
(818,1060,ls),
(801,1060,o),
(789,1052,o),
(784,1036,cs),
(481,138,l),
(563,138,l),
(262,1036,ls),
(257,1052,o),
(245,1060,o),
(228,1060,cs),
(81,1060,ls),
(59,1060,o),
(49,1046,o),
(57,1025,cs)
);
}
);
width = 1046;
}
);
metricRight = "=|";
unicode = 118;
},
{
glyphname = w;
lastChange = "2025-11-30 20:32:29 +0000";
layers = (
{
anchors = (
{
name = bottom;
pos = (730,0);
},
{
name = top;
pos = (730,1031);
}
);
layerId = m004;
shapes = (
{
closed = 1;
nodes = (
(418,0,ls),
(429,0,o),
(437,6,o),
(440,17,cs),
(743,984,l),
(715,984,l),
(1018,17,ls),
(1021,6,o),
(1029,0,o),
(1040,0,cs),
(1084,0,ls),
(1095,0,o),
(1103,6,o),
(1106,17,cs),
(1429,1037,ls),
(1433,1051,o),
(1426,1060,o),
(1412,1060,cs),
(1360,1060,ls),
(1349,1060,o),
(1341,1054,o),
(1338,1043,cs),
(1034,71,l),
(1089,68,l),
(788,1043,ls),
(785,1054,o),
(777,1060,o),
(766,1060,cs),
(692,1060,ls),
(681,1060,o),
(673,1054,o),
(670,1043,cs),
(372,75,l),
(424,75,l),
(120,1043,ls),
(117,1054,o),
(109,1060,o),
(98,1060,cs),
(48,1060,ls),
(34,1060,o),
(27,1051,o),
(31,1037,cs),
(353,17,ls),
(356,6,o),
(364,0,o),
(375,0,cs)
);
}
);
width = 1460;
},
{
anchors = (
{
name = bottom;
pos = (893,0);
},
{
name = top;
pos = (893,1131);
}
);
layerId = m005;
shapes = (
{
closed = 1;
nodes = (
(592,0,ls),
(615,0,o),
(630,11,o),
(637,33,cs),
(888,858,l),
(735,858,l),
(1016,33,ls),
(1023,11,o),
(1038,0,o),
(1061,0,cs),
(1274,0,ls),
(1297,0,o),
(1312,12,o),
(1319,34,cs),
(1605,1015,ls),
(1613,1042,o),
(1599,1060,o),
(1571,1060,cs),
(1360,1060,ls),
(1336,1060,o),
(1321,1050,o),
(1315,1026,cs),
(1102,199,l),
(1224,199,l),
(963,1027,ls),
(956,1050,o),
(941,1060,o),
(918,1060,cs),
(709,1060,ls),
(686,1060,o),
(670,1048,o),
(664,1026,cs),
(425,199,l),
(555,199,l),
(318,1026,ls),
(312,1048,o),
(296,1060,o),
(273,1060,cs),
(57,1060,ls),
(28,1060,o),
(14,1042,o),
(23,1015,cs),
(331,33,ls),
(338,10,o),
(353,0,o),
(376,0,cs)
);
}
);
width = 1627;
},
{
anchors = (
{
name = bottom;
pos = (867,-1);
},
{
name = top;
pos = (867,1130);
}
);
layerId = "1B8EDE0E-D46F-48F9-B9C6-2CD34FEA95FD";
shapes = (
{
closed = 1;
nodes = (
(519,0,ls),
(536,0,o),
(548,9,o),
(553,25,cs),
(819,870,l),
(767,870,l),
(1053,24,ls),
(1058,8,o),
(1070,0,o),
(1087,0,cs),
(1197,0,ls),
(1214,0,o),
(1226,8,o),
(1231,25,cs),
(1534,1026,ls),
(1540,1046,o),
(1530,1060,o),
(1509,1060,cs),
(1363,1060,ls),
(1345,1060,o),
(1333,1052,o),
(1329,1034,cs),
(1116,186,l),
(1165,186,l),
(891,1035,ls),
(886,1052,o),
(874,1060,o),
(857,1060,cs),
(733,1060,ls),
(716,1060,o),
(704,1052,o),
(699,1035,cs),
(439,186,l),
(487,186,l),
(259,1034,ls),
(254,1052,o),
(242,1060,o),
(225,1060,cs),
(81,1060,ls),
(60,1060,o),
(50,1046,o),
(56,1026,cs),
(373,25,ls),
(378,9,o),
(390,0,o),
(407,0,cs)
);
}
);
width = 1590;
}
);
metricLeft = "=v";
metricRight = "=|";
unicode = 119;
},
{
glyphname = x;
lastChange = "2025-12-04 12:35:56 +0000";
layers = (
{
anchors = (
{
name = bottom;
pos = (561,-1);
},
{
name = top;
pos = (561,1130);
}
);
layerId = m004;
shapes = (
{
closed = 1;
nodes = (
(914,0,ls),
(930,0,o),
(935,10,o),
(926,24,cs),
(225,1047,ls),
(219,1056,o),
(211,1060,o),
(201,1060,cs),
(139,1060,ls),
(123,1060,o),
(118,1050,o),
(127,1036,cs),
(828,13,ls),
(834,4,o),
(842,0,o),
(852,0,cs)
);
},
{
closed = 1;
nodes = (
(551,499,l),
(900,1036,ls),
(909,1049,o),
(903,1060,o),
(887,1060,cs),
(827,1060,ls),
(817,1060,o),
(809,1056,o),
(803,1047,cs),
(496,571,l)
);
},
{
closed = 1;
nodes = (
(189,0,ls),
(199,0,o),
(207,4,o),
(213,13,cs),
(541,499,l),
(486,571,l),
(115,24,ls),
(106,11,o),
(112,0,o),
(128,0,cs)
);
}
);
width = 1041;
},
{
anchors = (
{
name = bottom;
pos = (638,-1);
},
{
name = top;
pos = (638,1130);
}
);
layerId = m005;
shapes = (
{
closed = 1;
nodes = (
(1091,0,ls),
(1124,0,o),
(1135,22,o),
(1115,49,cs),
(391,1036,ls),
(379,1053,o),
(363,1061,o),
(342,1061,cs),
(73,1061,ls),
(40,1061,o),
(29,1039,o),
(49,1012,cs),
(772,25,ls),
(784,8,o),
(800,0,o),
(821,0,cs)
);
},
{
closed = 1;
nodes = (
(683,407,l),
(1110,1012,ls),
(1129,1039,o),
(1118,1061,o),
(1085,1061,cs),
(828,1061,ls),
(807,1061,o),
(791,1054,o),
(779,1036,cs),
(493,628,l)
);
},
{
closed = 1;
nodes = (
(332,0,ls),
(353,0,o),
(369,8,o),
(381,25,cs),
(700,463,l),
(510,680,l),
(49,49,ls),
(29,22,o),
(40,0,o),
(73,0,cs)
);
}
);
width = 1164;
},
{
anchors = (
{
name = bottom;
pos = (502,0);
},
{
name = top;
pos = (502,1028);
}
);
layerId = "1B8EDE0E-D46F-48F9-B9C6-2CD34FEA95FD";
shapes = (
{
closed = 1;
nodes = (
(937,0,ls),
(961,0,o),
(970,15,o),
(956,36,cs),
(259,1041,ls),
(250,1055,o),
(239,1060,o),
(223,1060,cs),
(65,1060,ls),
(41,1060,o),
(32,1045,o),
(46,1024,cs),
(742,19,ls),
(751,5,o),
(762,0,o),
(778,0,cs)
);
},
{
closed = 1;
nodes = (
(563,451,l),
(963,1024,ls),
(977,1045,o),
(968,1060,o),
(944,1060,cs),
(786,1060,ls),
(770,1060,o),
(759,1054,o),
(750,1041,cs),
(444,606,l)
);
},
{
closed = 1;
nodes = (
(217,0,ls),
(233,0,o),
(244,5,o),
(253,19,cs),
(534,430,l),
(410,576,l),
(39,36,ls),
(25,15,o),
(34,0,o),
(58,0,cs)
);
}
);
width = 1002;
}
);
metricRight = "=|";
unicode = 120;
},
{
glyphname = y;
lastChange = "2025-12-04 12:36:24 +0000";
layers = (
{
anchors = (
{
name = bottom;
pos = (494,0);
},
{
name = top;
pos = (494,1131);
}
);
background = {
shapes = (
{
closed = 1;
nodes = (
(277,0,l),
(336,0,l),
(607,806,l),
(536,806,l),
(289,57,l),
(326,57,l),
(76,806,l),
(7,806,l)
);
}
);
};
layerId = m004;
shapes = (
{
closed = 1;
nodes = (
(94,-448,l),
(278,-448,o),
(349,-391,o),
(403,-232,cs),
(830,1037,ls),
(835,1051,o),
(828,1060,o),
(814,1060,cs),
(767,1060,ls),
(756,1060,o),
(749,1055,o),
(745,1044,cs),
(421,81,l),
(461,81,l),
(139,1044,ls),
(135,1055,o),
(128,1060,o),
(117,1060,cs),
(72,1060,ls),
(58,1060,o),
(51,1051,o),
(56,1037,cs),
(400,6,l),
(414,46,l),
(338,-204,ls),
(307,-305,o),
(242,-368,o),
(129,-368,c),
(35,-368,ls),
(22,-368,o),
(15,-375,o),
(15,-388,cs),
(15,-428,ls),
(15,-441,o),
(22,-448,o),
(35,-448,cs)
);
}
);
width = 862;
},
{
anchors = (
{
name = bottom;
pos = (632,251);
},
{
name = top;
pos = (632,1382);
}
);
layerId = m005;
shapes = (
{
closed = 1;
nodes = (
(248,-450,l),
(429,-450,o),
(530,-347,o),
(583,-213,cs),
(1065,1014,ls),
(1076,1042,o),
(1063,1060,o),
(1033,1060,cs),
(800,1060,ls),
(777,1060,o),
(763,1050,o),
(755,1028,cs),
(447,139,l),
(634,139,l),
(326,1028,ls),
(318,1050,o),
(304,1060,o),
(281,1060,cs),
(43,1060,ls),
(14,1060,o),
(0,1041,o),
(11,1014,cs),
(474,-186,l),
(484,245,l),
(358,-51,ls),
(324,-132,o),
(286,-187,o),
(223,-187,cs),
(55,-187,ls),
(29,-187,o),
(15,-201,o),
(15,-227,cs),
(15,-410,ls),
(15,-436,o),
(29,-450,o),
(55,-450,cs)
);
}
);
width = 1089;
},
{
anchors = (
{
name = bottom;
pos = (549,249);
},
{
name = top;
pos = (449,1063);
}
);
background = {
shapes = (
{
closed = 1;
nodes = (
(259,0,l),
(362,0,l),
(641,733,l),
(496,733,l),
(282,95,l),
(338,95,l),
(125,733,l),
(-20,733,l)
);
}
);
};
layerId = "1B8EDE0E-D46F-48F9-B9C6-2CD34FEA95FD";
shapes = (
{
closed = 1;
nodes = (
(175,-448,l),
(331,-448,o),
(405,-371,o),
(459,-231,cs),
(940,1025,ls),
(948,1046,o),
(938,1060,o),
(916,1060,cs),
(771,1060,ls),
(754,1060,o),
(743,1052,o),
(737,1036,cs),
(431,145,l),
(511,145,l),
(212,1036,ls),
(207,1052,o),
(195,1060,o),
(178,1060,cs),
(31,1060,ls),
(9,1060,o),
(-1,1046,o),
(7,1025,cs),
(415,-43,l),
(389,93,l),
(318,-116,ls),
(288,-207,o),
(236,-273,o),
(146,-273,c),
(32,-273,ls),
(13,-273,o),
(2,-284,o),
(2,-303,cs),
(2,-418,ls),
(2,-438,o),
(13,-448,o),
(32,-448,cs)
);
}
);
width = 963;
}
);
unicode = 121;
},
{
glyphname = z;
lastChange = "2025-12-04 12:39:19 +0000";
layers = (
{
anchors = (
{
name = bottom;
pos = (493,0);
},
{
name = center;
pos = (493,532);
},
{
name = top;
pos = (493,1063);
}
);
layerId = m004;
shapes = (
{
closed = 1;
nodes = (
(145,82,ls),
(140,74,o),
(138,67,o),
(138,58,cs),
(138,20,ls),
(138,7,o),
(145,0,o),
(158,0,cs),
(827,0,ls),
(840,0,o),
(847,7,o),
(847,20,cs),
(847,60,ls),
(847,73,o),
(840,80,o),
(827,80,cs),
(247,80,l),
(840,976,ls),
(846,985,o),
(847,991,o),
(847,1000,cs),
(847,1040,ls),
(847,1053,o),
(840,1060,o),
(827,1060,cs),
(158,1060,ls),
(145,1060,o),
(138,1053,o),
(138,1040,cs),
(138,999,ls),
(138,986,o),
(145,979,o),
(158,979,cs),
(739,979,l)
);
}
);
width = 985;
},
{
anchors = (
{
name = bottom;
pos = (468,0);
},
{
name = center;
pos = (468,532);
},
{
name = top;
pos = (468,1063);
}
);
layerId = m005;
shapes = (
{
closed = 1;
nodes = (
(60,240,ls),
(48,224,o),
(44,210,o),
(44,190,cs),
(44,40,ls),
(44,14,o),
(58,0,o),
(84,0,cs),
(852,0,ls),
(878,0,o),
(892,14,o),
(892,40,cs),
(892,234,ls),
(892,260,o),
(878,274,o),
(852,274,cs),
(465,274,l),
(875,820,ls),
(887,836,o),
(892,850,o),
(892,870,cs),
(892,1020,ls),
(892,1046,o),
(878,1060,o),
(852,1060,cs),
(84,1060,ls),
(58,1060,o),
(44,1046,o),
(44,1020,cs),
(44,826,ls),
(44,800,o),
(58,786,o),
(84,786,cs),
(468,786,l)
);
}
);
width = 936;
},
{
anchors = (
{
name = bottom;
pos = (460,0);
},
{
name = center;
pos = (460,532);
},
{
name = top;
pos = (460,1063);
}
);
layerId = "1B8EDE0E-D46F-48F9-B9C6-2CD34FEA95FD";
shapes = (
{
closed = 1;
nodes = (
(82,142,ls),
(74,130,o),
(70,119,o),
(70,105,cs),
(70,30,ls),
(70,11,o),
(81,0,o),
(100,0,cs),
(819,0,ls),
(838,0,o),
(849,11,o),
(849,30,cs),
(849,140,ls),
(849,160,o),
(838,170,o),
(819,170,cs),
(336,170,l),
(837,918,ls),
(845,930,o),
(849,941,o),
(849,955,cs),
(849,1030,ls),
(849,1050,o),
(838,1060,o),
(819,1060,cs),
(100,1060,ls),
(81,1060,o),
(70,1049,o),
(70,1030,cs),
(70,920,ls),
(70,901,o),
(81,890,o),
(100,890,cs),
(587,890,l)
);
}
);
width = 919;
}
);
metricRight = "=|";
unicode = 122;
},
{
glyphname = g.ss01;
lastChange = "2025-12-04 13:05:58 +0000";
layers = (
{
anchors = (
{
name = bottom;
pos = (521,0);
},
{
name = top;
pos = (521,1060);
}
);
layerId = m004;
shapes = (
{
closed = 1;
nodes = (
(680,-464,o),
(907,-350,o),
(907,0,c),
(905,1040,l),
(905,1053,o),
(898,1060,o),
(885,1060,cs),
(858,1060,ls),
(846,1060,o),
(838,1054,o),
(836,1042,cs),
(817,950,l),
(795,950,l),
(817,874,l),
(816,2,l),
(816,-306,o),
(633,-379,o),
(515,-379,cs),
(402,-379,o),
(244,-312,o),
(227,-112,cs),
(226,-99,o),
(219,-92,o),
(207,-92,cs),
(156,-92,ls),
(143,-92,o),
(135,-99,o),
(136,-113,cs),
(154,-352,o),
(358,-464,o),
(515,-464,cs)
);
},
{
closed = 1;
nodes = (
(788,-24,o),
(868,193,o),
(868,414,c),
(816,414,l),
(816,237,o),
(715,63,o),
(520,63,cs),
(301,63,o),
(201,212,o),
(201,426,cs),
(201,634,ls),
(201,858,o),
(301,997,o),
(520,997,cs),
(759,997,o),
(817,823,o),
(817,614,c),
(878,621,l),
(882,951,o),
(715,1084,o),
(520,1084,cs),
(307,1084,o),
(109,954,o),
(109,630,cs),
(109,430,ls),
(109,116,o),
(307,-24,o),
(520,-24,cs)
);
}
);
width = 1052;
},
{
anchors = (
{
name = bottom;
pos = (561,0);
},
{
name = top;
pos = (561,1060);
}
);
layerId = "1B8EDE0E-D46F-48F9-B9C6-2CD34FEA95FD";
shapes = (
{
closed = 1;
nodes = (
(815,-464,o),
(999,-274,o),
(999,-16,c),
(999,1030,l),
(999,1050,o),
(988,1060,o),
(969,1060,cs),
(887,1060,ls),
(869,1060,o),
(858,1051,o),
(854,1034,cs),
(839,969,l),
(815,969,l),
(804,969,l),
(804,-16,l),
(804,-192,o),
(711,-295,o),
(564,-295,cs),
(426,-295,o),
(331,-215,o),
(319,-102,cs),
(317,-83,o),
(307,-73,o),
(288,-73,cs),
(171,-73,ls),
(152,-73,o),
(142,-84,o),
(142,-103,cs),
(147,-296,o),
(339,-464,o),
(564,-464,cs)
);
},
{
closed = 1;
nodes = (
(753,-24,o),
(875,128,o),
(883,441,c),
(804,441,l),
(804,258,o),
(709,148,o),
(562,148,cs),
(401,148,o),
(302,258,o),
(302,441,cs),
(302,612,ls),
(302,799,o),
(401,910,o),
(562,910,cs),
(705,910,o),
(804,813,o),
(804,612,c),
(905,612,l),
(892,932,o),
(779,1084,o),
(534,1084,cs),
(270,1084,o),
(109,903,o),
(109,612,cs),
(109,451,ls),
(109,155,o),
(263,-24,o),
(522,-24,cs)
);
}
);
width = 1130;
},
{
anchors = (
{
name = bottom;
pos = (1657,572);
},
{
name = top;
pos = (1657,-488);
}
);
layerId = m005;
shapes = (
{
closed = 1;
nodes = (
(863,-474,o),
(1067,-266,o),
(1067,35,cs),
(1067,1020,ls),
(1067,1046,o),
(1053,1060,o),
(1027,1060,cs),
(870,1060,ls),
(847,1060,o),
(832,1049,o),
(825,1027,cs),
(800,945,l),
(777,945,l),
(761,945,l),
(761,35,ls),
(761,-101,o),
(688,-208,o),
(563,-208,cs),
(489,-208,o),
(414,-156,o),
(399,-81,cs),
(394,-56,o),
(383,-43,o),
(358,-43,cs),
(163,-43,ls),
(137,-43,o),
(122,-57,o),
(124,-83,cs),
(141,-360,o),
(413,-474,o),
(563,-474,cs)
);
},
{
closed = 1;
nodes = (
(746,-24,o),
(863,127,o),
(826,461,c),
(764,461,l),
(761,288,o),
(644,236,o),
(562,236,cs),
(475,236,o),
(379,295,o),
(379,461,cs),
(379,601,ls),
(379,766,o),
(475,826,o),
(562,826,cs),
(642,826,o),
(761,775,o),
(764,601,c),
(805,601,l),
(869,911,o),
(754,1084,o),
(508,1084,cs),
(303,1084,o),
(73,965,o),
(73,576,cs),
(73,484,ls),
(73,92,o),
(313,-24,o),
(516,-24,cs)
);
}
);
width = 1200;
}
);
metricLeft = "=o";
metricRight = "=|n";
},
{
glyphname = zero;
lastChange = "2025-12-04 11:48:26 +0000";
layers = (
{
background = {
shapes = (
{
closed = 1;
nodes = (
(332,1504,o),
(103,1372,o),
(103,1081,cs),
(103,409,ls),
(103,145,o),
(274,-24,o),
(539,-24,cs),
(807,-24,o),
(977,149,o),
(977,409,cs),
(977,1081,ls),
(977,1372,o),
(726,1504,o),
(539,1504,cs)
);
},
{
closed = 1;
nodes = (
(710,1419,o),
(879,1284,o),
(879,1072,cs),
(879,420,ls),
(879,199,o),
(742,60,o),
(539,60,cs),
(332,60,o),
(201,206,o),
(201,420,cs),
(201,1072,ls),
(201,1284,o),
(347,1419,o),
(539,1419,cs)
);
}
);
};
layerId = m004;
shapes = (
{
closed = 1;
nodes = (
(807,-24,o),
(977,149,o),
(977,409,cs),
(977,1071,ls),
(977,1331,o),
(807,1504,o),
(539,1504,cs),
(274,1504,o),
(103,1335,o),
(103,1071,cs),
(103,409,ls),
(103,145,o),
(274,-24,o),
(539,-24,cs)
);
},
{
closed = 1;
nodes = (
(332,60,o),
(201,206,o),
(201,418,cs),
(201,1060,ls),
(201,1274,o),
(332,1420,o),
(539,1420,cs),
(742,1420,o),
(879,1281,o),
(879,1060,cs),
(879,418,ls),
(879,199,o),
(742,60,o),
(539,60,cs)
);
}
);
width = 1080;
},
{
layerId = m005;
shapes = (
{
closed = 1;
nodes = (
(857,-24,o),
(1178,113,o),
(1178,502,cs),
(1178,952,ls),
(1178,1365,o),
(857,1504,o),
(647,1504,cs),
(437,1504,o),
(115,1365,o),
(115,952,cs),
(115,502,ls),
(115,113,o),
(437,-24,o),
(647,-24,cs)
);
},
{
closed = 1;
nodes = (
(558,256,o),
(436,312,o),
(436,495,cs),
(436,965,ls),
(436,1170,o),
(558,1224,o),
(647,1224,cs),
(734,1224,o),
(858,1170,o),
(858,965,cs),
(858,495,ls),
(858,304,o),
(734,256,o),
(647,256,cs)
);
}
);
width = 1293;
},
{
background = {
shapes = (
{
closed = 1;
nodes = (
(303,1504,o),
(128,1322,o),
(128,1007,cs),
(128,493,ls),
(128,177,o),
(303,-24,o),
(603,-24,cs),
(903,-24,o),
(1079,177,o),
(1079,493,cs),
(1079,1007,ls),
(1079,1322,o),
(903,1504,o),
(603,1504,cs)
);
},
{
closed = 1;
nodes = (
(798,1326,o),
(874,1226,o),
(874,974,cs),
(874,535,ls),
(874,273,o),
(788,153,o),
(603,153,cs),
(419,153,o),
(332,273,o),
(332,535,cs),
(332,974,ls),
(332,1226,o),
(409,1326,o),
(603,1326,cs)
);
}
);
};
layerId = "1B8EDE0E-D46F-48F9-B9C6-2CD34FEA95FD";
shapes = (
{
closed = 1;
nodes = (
(903,-24,o),
(1079,178,o),
(1079,493,cs),
(1079,987,ls),
(1079,1303,o),
(903,1504,o),
(603,1504,cs),
(303,1504,o),
(128,1303,o),
(128,987,cs),
(128,493,ls),
(128,178,o),
(303,-24,o),
(603,-24,cs)
);
},
{
closed = 1;
nodes = (
(419,153,o),
(332,274,o),
(332,536,cs),
(332,945,ls),
(332,1207,o),
(419,1327,o),
(603,1327,cs),
(788,1327,o),
(874,1207,o),
(874,945,cs),
(874,536,ls),
(874,274,o),
(788,153,o),
(603,153,cs)
);
}
);
width = 1207;
}
);
metricRight = "=|";
unicode = 48;
},
{
glyphname = one;
lastChange = "2025-12-04 12:29:03 +0000";
layers = (
{
background = {
shapes = (
{
closed = 0;
nodes = (
(69,581,l),
(69,536,o),
(52,530,o),
(26,530,cs),
(-22,530,l),
(-22,499,l),
(26,499,ls),
(76,499,o),
(103,516,o),
(103,571,c)
);
}
);
};
layerId = m004;
shapes = (
{
closed = 1;
nodes = (
(436,1460,ls),
(436,1473,o),
(429,1480,o),
(416,1480,cs),
(362,1480,ls),
(349,1480,o),
(342,1473,o),
(342,1459,cs),
(342,1304,o),
(246,1312,o),
(139,1312,cs),
(50,1312,ls),
(37,1312,o),
(30,1305,o),
(30,1292,cs),
(30,1249,ls),
(30,1236,o),
(37,1229,o),
(50,1229,cs),
(342,1229,l),
(342,20,ls),
(342,7,o),
(349,0,o),
(362,0,cs),
(416,0,ls),
(429,0,o),
(436,7,o),
(436,20,cs)
);
}
);
width = 566;
},
{
layerId = m005;
shapes = (
{
closed = 1;
nodes = (
(621,1440,ls),
(621,1466,o),
(607,1480,o),
(581,1480,cs),
(353,1480,ls),
(328,1480,o),
(312,1466,o),
(312,1430,cs),
(312,1331,o),
(232,1300,o),
(125,1300,cs),
(80,1300,ls),
(54,1300,o),
(40,1286,o),
(40,1260,cs),
(40,1066,ls),
(40,1040,o),
(54,1026,o),
(80,1026,cs),
(314,1026,l),
(314,40,ls),
(314,14,o),
(328,0,o),
(354,0,cs),
(581,0,ls),
(607,0,o),
(621,14,o),
(621,40,cs)
);
}
);
width = 744;
},
{
layerId = "1B8EDE0E-D46F-48F9-B9C6-2CD34FEA95FD";
shapes = (
{
closed = 1;
nodes = (
(500,1450,ls),
(500,1470,o),
(489,1480,o),
(470,1480,cs),
(328,1480,ls),
(309,1480,o),
(297,1469,o),
(297,1449,cs),
(297,1309,o),
(236,1288,o),
(101,1288,cs),
(62,1288,ls),
(43,1288,o),
(32,1278,o),
(32,1258,cs),
(32,1163,ls),
(32,1144,o),
(43,1133,o),
(62,1133,cs),
(298,1133,l),
(298,30,ls),
(298,11,o),
(309,0,o),
(328,0,cs),
(470,0,ls),
(489,0,o),
(500,10,o),
(500,30,cs)
);
}
);
width = 650;
}
);
metricRight = "=H";
unicode = 49;
},
{
glyphname = two;
lastChange = "2025-12-04 12:29:47 +0000";
layers = (
{
background = {
shapes = (
{
closed = 0;
nodes = (
(46,354,l)
);
}
);
};
layerId = m004;
shapes = (
{
closed = 1;
nodes = (
(884,0,ls),
(897,0,o),
(904,7,o),
(904,20,cs),
(904,63,ls),
(904,76,o),
(897,83,o),
(884,83,cs),
(154,83,l),
(162,19,l),
(639,535,ls),
(751,656,o),
(903,845,o),
(903,1085,cs),
(903,1355,o),
(736,1504,o),
(500,1504,cs),
(292,1504,o),
(84,1342,o),
(75,1036,cs),
(75,1022,o),
(82,1015,o),
(95,1015,cs),
(152,1015,ls),
(165,1015,o),
(172,1022,o),
(172,1036,cs),
(181,1339,o),
(371,1424,o),
(500,1424,cs),
(647,1424,o),
(807,1335,o),
(807,1085,cs),
(807,880,o),
(678,712,o),
(527,550,cs),
(72,60,ls),
(66,53,o),
(63,45,o),
(63,35,cs),
(63,20,ls),
(63,7,o),
(70,0,o),
(83,0,cs)
);
}
);
width = 950;
},
{
layerId = m005;
shapes = (
{
closed = 1;
nodes = (
(1052,0,ls),
(1078,0,o),
(1092,14,o),
(1092,40,cs),
(1092,238,ls),
(1092,264,o),
(1078,278,o),
(1052,278,cs),
(365,278,l),
(423,113,l),
(766,469,ls),
(868,575,o),
(1082,772,o),
(1082,1033,cs),
(1082,1396,o),
(830,1504,o),
(573,1504,cs),
(313,1504,o),
(98,1353,o),
(98,1045,cs),
(98,1019,o),
(112,1004,o),
(138,1004,cs),
(364,1004,ls),
(389,1004,o),
(405,1018,o),
(405,1044,cs),
(405,1179,o),
(504,1235,o),
(585,1235,cs),
(676,1235,o),
(779,1158,o),
(779,1023,cs),
(779,885,o),
(666,801,o),
(548,678,cs),
(97,210,ls),
(83,195,o),
(75,181,o),
(75,161,cs),
(75,40,ls),
(75,14,o),
(89,0,o),
(115,0,cs)
);
}
);
width = 1182;
},
{
layerId = "1B8EDE0E-D46F-48F9-B9C6-2CD34FEA95FD";
shapes = (
{
closed = 1;
nodes = (
(989,0,ls),
(1008,0,o),
(1019,11,o),
(1019,30,cs),
(1019,145,ls),
(1019,165,o),
(1008,175,o),
(989,175,cs),
(283,175,l),
(331,96,l),
(837,634,ls),
(972,778,o),
(1021,924,o),
(1021,1086,cs),
(1021,1325,o),
(874,1504,o),
(576,1504,cs),
(295,1504,o),
(123,1357,o),
(123,1046,cs),
(123,1026,o),
(134,1015,o),
(153,1015,cs),
(293,1015,ls),
(312,1015,o),
(323,1026,o),
(324,1046,cs),
(329,1245,o),
(423,1328,o),
(576,1328,cs),
(718,1328,o),
(821,1249,o),
(821,1086,cs),
(821,973,o),
(771,857,o),
(653,731,cs),
(102,145,ls),
(92,134,o),
(87,123,o),
(87,108,cs),
(87,30,ls),
(87,11,o),
(98,0,o),
(117,0,cs)
);
}
);
width = 1106;
}
);
unicode = 50;
},
{
glyphname = three;
lastChange = "2025-12-04 12:31:07 +0000";
layers = (
{
background = {
shapes = (
{
closed = 0;
nodes = (
(146,14,ls),
(83,14,o),
(17,49,o),
(17,170,c),
(-16,170,l),
(-16,49,o),
(49,-14,o),
(146,-14,cs)
);
}
);
};
layerId = m004;
shapes = (
{
closed = 1;
nodes = (
(806,-24,o),
(970,144,o),
(970,404,cs),
(970,588,o),
(871,743,o),
(710,808,c),
(712,798,l),
(820,852,o),
(900,961,o),
(900,1123,cs),
(900,1393,o),
(689,1504,o),
(506,1504,cs),
(338,1504,o),
(151,1415,o),
(142,1164,cs),
(141,1150,o),
(148,1143,o),
(161,1143,cs),
(216,1143,ls),
(229,1143,o),
(236,1150,o),
(237,1163,cs),
(245,1360,o),
(372,1424,o),
(505,1424,cs),
(682,1424,o),
(803,1306,o),
(803,1125,cs),
(803,958,o),
(695,839,o),
(532,839,cs),
(464,839,ls),
(451,839,o),
(444,832,o),
(444,819,cs),
(444,779,ls),
(444,766,o),
(451,759,o),
(464,759,cs),
(532,759,ls),
(722,759,o),
(875,603,o),
(875,401,cs),
(875,185,o),
(737,56,o),
(521,56,cs),
(363,56,o),
(199,124,o),
(187,362,cs),
(186,375,o),
(178,382,o),
(166,382,cs),
(113,382,ls),
(100,382,o),
(93,375,o),
(93,361,cs),
(103,59,o),
(331,-24,o),
(521,-24,cs)
);
}
);
width = 1103;
},
{
background = {
shapes = (
{
closed = 0;
nodes = (
(208,72,ls),
(157,73,o),
(124,99,o),
(124,173,c),
(34,173,l),
(34,27,o),
(119,-10,o),
(208,-10,cs)
);
}
);
};
layerId = m005;
shapes = (
{
closed = 1;
nodes = (
(872,-24,o),
(1161,93,o),
(1161,452,cs),
(1161,610,o),
(1082,727,o),
(973,800,c),
(976,753,l),
(1057,820,o),
(1113,919,o),
(1113,1062,cs),
(1113,1374,o),
(840,1504,o),
(626,1504,cs),
(358,1504,o),
(151,1393,o),
(135,1062,cs),
(134,1036,o),
(148,1021,o),
(174,1021,cs),
(407,1021,ls),
(432,1021,o),
(445,1035,o),
(447,1062,cs),
(455,1173,o),
(516,1224,o),
(626,1224,cs),
(711,1224,o),
(798,1179,o),
(798,1063,cs),
(798,947,o),
(697,904,o),
(613,904,cs),
(550,904,ls),
(524,904,o),
(510,890,o),
(510,864,cs),
(510,669,ls),
(510,643,o),
(524,629,o),
(550,629,cs),
(613,629,ls),
(752,629,o),
(845,561,o),
(845,451,cs),
(845,305,o),
(730,256,o),
(626,256,cs),
(490,256,o),
(419,325,o),
(412,454,cs),
(411,481,o),
(397,495,o),
(372,495,cs),
(134,495,ls),
(108,495,o),
(94,480,o),
(95,454,cs),
(110,88,o),
(332,-24,o),
(626,-24,cs)
);
}
);
width = 1281;
},
{
layerId = "1B8EDE0E-D46F-48F9-B9C6-2CD34FEA95FD";
shapes = (
{
closed = 1;
nodes = (
(842,-24,o),
(1018,165,o),
(1018,418,cs),
(1018,573,o),
(942,715,o),
(771,788,c),
(776,761,l),
(891,825,o),
(961,939,o),
(961,1083,cs),
(961,1343,o),
(770,1504,o),
(530,1504,cs),
(327,1504,o),
(118,1402,o),
(105,1105,cs),
(104,1085,o),
(115,1074,o),
(134,1074,cs),
(269,1074,ls),
(288,1074,o),
(300,1085,o),
(300,1105,cs),
(299,1272,o),
(414,1329,o),
(529,1329,cs),
(638,1329,o),
(754,1246,o),
(754,1083,cs),
(754,921,o),
(648,856,o),
(530,856,cs),
(471,856,ls),
(452,856,o),
(441,845,o),
(441,826,cs),
(441,707,ls),
(441,688,o),
(452,677,o),
(471,677,cs),
(530,677,ls),
(693,677,o),
(813,569,o),
(813,418,cs),
(813,222,o),
(652,151,o),
(530,151,cs),
(382,151,o),
(264,219,o),
(255,404,cs),
(254,424,o),
(243,435,o),
(224,435,cs),
(88,435,ls),
(69,435,o),
(58,424,o),
(59,404,cs),
(70,78,o),
(315,-24,o),
(530,-24,cs)
);
}
);
width = 1118;
}
);
unicode = 51;
},
{
glyphname = four;
lastChange = "2025-12-04 12:28:32 +0000";
layers = (
{
layerId = m004;
shapes = (
{
closed = 1;
nodes = (
(620,748,ls),
(607,748,o),
(600,741,o),
(600,728,cs),
(600,20,ls),
(600,7,o),
(607,0,o),
(620,0,cs),
(676,0,ls),
(689,0,o),
(696,7,o),
(696,20,cs),
(696,728,ls),
(696,741,o),
(689,748,o),
(676,748,cs)
);
},
{
closed = 1;
nodes = (
(41,330,ls),
(41,317,o),
(48,310,o),
(61,310,cs),
(847,310,ls),
(860,310,o),
(867,317,o),
(867,330,cs),
(867,373,ls),
(867,386,o),
(860,390,o),
(847,390,cs),
(140,390,l),
(586,1457,ls),
(592,1471,o),
(586,1480,o),
(571,1480,cs),
(522,1480,ls),
(511,1480,o),
(503,1476,o),
(499,1465,cs),
(46,395,ls),
(43,387,o),
(41,380,o),
(41,370,cs)
);
}
);
width = 925;
},
{
layerId = m005;
shapes = (
{
closed = 1;
nodes = (
(661,747,ls),
(635,747,o),
(621,733,o),
(621,707,cs),
(621,40,ls),
(621,14,o),
(635,0,o),
(661,0,cs),
(886,0,ls),
(912,0,o),
(926,14,o),
(926,40,cs),
(926,707,ls),
(926,733,o),
(912,747,o),
(886,747,cs)
);
},
{
closed = 1;
nodes = (
(70,298,ls),
(70,272,o),
(84,258,o),
(110,258,cs),
(1034,258,ls),
(1060,258,o),
(1074,272,o),
(1074,298,cs),
(1074,492,ls),
(1074,518,o),
(1060,532,o),
(1034,532,cs),
(420,532,l),
(782,1439,ls),
(793,1467,o),
(780,1485,o),
(750,1485,cs),
(540,1485,ls),
(518,1485,o),
(503,1475,o),
(494,1454,cs),
(80,471,ls),
(73,453,o),
(70,440,o),
(70,421,cs)
);
}
);
width = 1154;
},
{
layerId = "1B8EDE0E-D46F-48F9-B9C6-2CD34FEA95FD";
shapes = (
{
closed = 1;
nodes = (
(665,747,ls),
(646,747,o),
(635,737,o),
(635,717,cs),
(635,30,ls),
(635,11,o),
(646,0,o),
(665,0,cs),
(808,0,ls),
(827,0,o),
(838,10,o),
(838,30,cs),
(838,717,ls),
(838,737,o),
(827,747,o),
(808,747,cs)
);
},
{
closed = 1;
nodes = (
(68,288,ls),
(68,269,o),
(79,258,o),
(98,258,cs),
(978,258,ls),
(997,258,o),
(1008,268,o),
(1008,288,cs),
(1008,402,ls),
(1008,422,o),
(997,432,o),
(978,432,cs),
(290,432,l),
(695,1450,ls),
(703,1471,o),
(694,1485,o),
(672,1485,cs),
(549,1485,ls),
(532,1485,o),
(520,1477,o),
(514,1462,cs),
(75,407,ls),
(70,394,o),
(68,384,o),
(68,370,cs)
);
}
);
width = 1076;
}
);
unicode = 52;
},
{
glyphname = five;
lastChange = "2025-12-04 12:33:11 +0000";
layers = (
{
layerId = m004;
shapes = (
{
closed = 1;
nodes = (
(717,-24,o),
(895,109,o),
(895,372,cs),
(895,692,ls),
(895,973,o),
(697,1084,o),
(531,1084,cs),
(425,1084,o),
(322,1049,o),
(251,968,c),
(255,959,l),
(255,1400,l),
(812,1400,ls),
(825,1400,o),
(832,1407,o),
(832,1420,cs),
(832,1460,ls),
(832,1473,o),
(825,1480,o),
(812,1480,cs),
(181,1480,ls),
(168,1480,o),
(161,1473,o),
(161,1460,cs),
(162,712,ls),
(162,699,o),
(169,692,o),
(182,692,cs),
(260,692,l),
(260,883,o),
(355,1005,o),
(531,1005,cs),
(682,1005,o),
(800,883,o),
(800,681,cs),
(800,381,ls),
(800,178,o),
(682,56,o),
(531,56,cs),
(355,56,o),
(252,178,o),
(252,381,cs),
(252,435,ls),
(252,448,o),
(245,455,o),
(232,455,cs),
(182,455,ls),
(169,455,o),
(162,448,o),
(162,435,cs),
(162,372,ls),
(162,82,o),
(342,-24,o),
(531,-24,cs)
);
}
);
width = 1102;
},
{
background = {
shapes = (
{
closed = 0;
nodes = (
(243,296,ls),
(204,296,o),
(169,270,o),
(169,214,cs)
);
}
);
};
layerId = m005;
shapes = (
{
closed = 1;
nodes = (
(825,-24,o),
(1135,101,o),
(1135,418,cs),
(1135,619,ls),
(1135,957,o),
(899,1084,o),
(659,1084,cs),
(561,1084,o),
(481,1063,o),
(414,1028,c),
(446,983,l),
(446,1206,l),
(1011,1206,ls),
(1037,1206,o),
(1051,1220,o),
(1051,1246,cs),
(1051,1445,ls),
(1051,1471,o),
(1037,1485,o),
(1011,1485,cs),
(179,1485,ls),
(153,1485,o),
(139,1471,o),
(139,1445,cs),
(130,695,ls),
(130,669,o),
(144,655,o),
(170,655,cs),
(436,655,l),
(436,768,o),
(548,806,o),
(626,806,cs),
(730,806,o),
(825,736,o),
(825,586,cs),
(825,407,ls),
(825,287,o),
(730,223,o),
(626,223,cs),
(522,223,o),
(436,266,o),
(436,387,cs),
(436,404,ls),
(436,430,o),
(422,444,o),
(396,444,cs),
(170,444,ls),
(144,444,o),
(130,430,o),
(130,404,cs),
(130,399,ls),
(130,91,o),
(430,-24,o),
(626,-24,cs)
);
}
);
width = 1255;
},
{
layerId = "1B8EDE0E-D46F-48F9-B9C6-2CD34FEA95FD";
shapes = (
{
closed = 1;
nodes = (
(735,-24,o),
(995,110,o),
(995,412,cs),
(995,673,ls),
(995,973,o),
(741,1084,o),
(551,1084,cs),
(444,1084,o),
(365,1054,o),
(303,1010,c),
(322,983,l),
(322,1311,l),
(908,1311,ls),
(927,1311,o),
(938,1321,o),
(938,1341,cs),
(938,1455,ls),
(938,1475,o),
(927,1485,o),
(908,1485,cs),
(150,1485,ls),
(131,1485,o),
(120,1475,o),
(120,1455,cs),
(116,765,ls),
(116,746,o),
(127,735,o),
(146,735,cs),
(309,735,l),
(310,838,o),
(446,909,o),
(551,909,cs),
(660,909,o),
(795,834,o),
(795,642,cs),
(795,440,ls),
(795,223,o),
(653,151,o),
(551,151,cs),
(450,151,o),
(307,202,o),
(307,420,cs),
(307,425,ls),
(307,445,o),
(296,455,o),
(277,455,cs),
(143,455,ls),
(124,455,o),
(113,444,o),
(113,425,cs),
(113,417,ls),
(113,103,o),
(326,-24,o),
(551,-24,cs)
);
}
);
width = 1106;
}
);
unicode = 53;
},
{
glyphname = six;
lastChange = "2025-12-04 12:33:56 +0000";
layers = (
{
layerId = m004;
shapes = (
{
closed = 1;
nodes = (
(736,-24,o),
(880,166,o),
(880,394,cs),
(880,517,ls),
(880,748,o),
(738,935,o),
(474,935,cs),
(225,935,o),
(218,794,o),
(130,756,c),
(190,751,l),
(405,1059,o),
(484,1166,o),
(721,1456,cs),
(733,1471,o),
(724,1480,o),
(708,1480,cs),
(637,1480,ls),
(627,1480,o),
(619,1476,o),
(613,1468,cs),
(378,1156,ls),
(111,802,o),
(68,680,o),
(68,495,cs),
(68,394,ls),
(68,166,o),
(212,-24,o),
(474,-24,cs)
);
},
{
closed = 1;
nodes = (
(296,56,o),
(162,160,o),
(162,384,cs),
(162,507,ls),
(162,731,o),
(297,855,o),
(474,855,cs),
(652,855,o),
(786,732,o),
(786,507,cs),
(786,384,ls),
(786,160,o),
(652,56,o),
(474,56,cs)
);
}
);
width = 943;
},
{
layerId = m005;
shapes = (
{
closed = 1;
nodes = (
(838,-24,o),
(1128,121,o),
(1128,448,cs),
(1128,489,ls),
(1128,816,o),
(878,961,o),
(619,961,cs),
(446,961,o),
(304,741,o),
(185,599,c),
(455,705,l),
(587,929,o),
(747,1152,o),
(951,1455,cs),
(970,1483,o),
(959,1504,o),
(926,1504,cs),
(669,1504,ls),
(648,1504,o),
(633,1498,o),
(621,1480,cs),
(390,1140,ls),
(269,962,o),
(110,749,o),
(110,489,cs),
(110,448,ls),
(110,91,o),
(400,-24,o),
(619,-24,cs)
);
},
{
closed = 1;
nodes = (
(515,208,o),
(420,272,o),
(420,432,cs),
(420,505,ls),
(420,665,o),
(515,729,o),
(619,729,cs),
(723,729,o),
(818,665,o),
(818,505,cs),
(818,432,ls),
(818,273,o),
(723,208,o),
(619,208,cs)
);
}
);
width = 1238;
},
{
background = {
shapes = (
{
closed = 0;
nodes = (
(679,1462,ls),
(343,1013,ls)
);
}
);
};
layerId = "1B8EDE0E-D46F-48F9-B9C6-2CD34FEA95FD";
shapes = (
{
closed = 1;
nodes = (
(778,-24,o),
(1018,110,o),
(1018,412,cs),
(1018,503,ls),
(1018,805,o),
(778,939,o),
(577,939,cs),
(412,939,o),
(334,822,o),
(232,712,c),
(406,805,l),
(548,1022,o),
(713,1230,o),
(872,1443,cs),
(887,1463,o),
(878,1480,o),
(853,1480,cs),
(696,1480,ls),
(680,1480,o),
(668,1474,o),
(659,1462,cs),
(386,1097,ls),
(233,893,o),
(136,728,o),
(136,503,cs),
(136,412,ls),
(136,110,o),
(376,-24,o),
(577,-24,cs)
);
},
{
closed = 1;
nodes = (
(478,151,o),
(336,223,o),
(336,440,cs),
(336,475,ls),
(336,692,o),
(478,764,o),
(577,764,cs),
(676,764,o),
(818,692,o),
(818,475,cs),
(818,440,ls),
(818,223,o),
(676,151,o),
(577,151,cs)
);
}
);
width = 1158;
}
);
unicode = 54;
},
{
glyphname = seven;
lastChange = "2025-12-04 12:34:22 +0000";
layers = (
{
layerId = m004;
shapes = (
{
closed = 1;
nodes = (
(308,0,ls),
(319,0,o),
(327,6,o),
(331,16,cs),
(878,1412,ls),
(881,1421,o),
(883,1427,o),
(883,1437,cs),
(883,1465,ls),
(883,1478,o),
(876,1485,o),
(863,1485,cs),
(106,1485,ls),
(93,1485,o),
(86,1478,o),
(86,1465,cs),
(86,1425,ls),
(86,1412,o),
(93,1405,o),
(106,1405,cs),
(820,1405,l),
(793,1440,l),
(239,23,ls),
(234,9,o),
(240,0,o),
(255,0,cs)
);
}
);
width = 929;
},
{
layerId = m005;
shapes = (
{
closed = 1;
nodes = (
(451,0,ls),
(474,0,o),
(489,11,o),
(497,32,cs),
(988,1310,ls),
(995,1328,o),
(997,1341,o),
(997,1359,cs),
(997,1445,ls),
(997,1471,o),
(983,1485,o),
(957,1485,cs),
(130,1485,ls),
(104,1485,o),
(90,1471,o),
(90,1445,cs),
(90,1251,ls),
(90,1225,o),
(104,1211,o),
(130,1211,cs),
(851,1211,l),
(690,1382,l),
(180,46,ls),
(169,19,o),
(182,0,o),
(211,0,cs)
);
}
);
width = 1042;
},
{
layerId = "1B8EDE0E-D46F-48F9-B9C6-2CD34FEA95FD";
shapes = (
{
closed = 1;
nodes = (
(412,0,ls),
(429,0,o),
(440,7,o),
(446,24,cs),
(957,1346,ls),
(962,1359,o),
(964,1369,o),
(964,1383,cs),
(964,1455,ls),
(964,1475,o),
(953,1485,o),
(934,1485,cs),
(140,1485,ls),
(121,1485,o),
(110,1475,o),
(110,1455,cs),
(110,1341,ls),
(110,1322,o),
(121,1311,o),
(140,1311,cs),
(852,1311,l),
(783,1414,l),
(251,35,ls),
(243,14,o),
(253,0,o),
(275,0,cs)
);
}
);
width = 1010;
}
);
metricRight = V;
unicode = 55;
},
{
glyphname = eight;
lastChange = "2025-12-04 12:21:50 +0000";
layers = (
{
background = {
shapes = (
{
closed = 0;
nodes = (
(877,461,ls),
(877,713,o),
(674,828,o),
(503,828,cs),
(310,828,o),
(128,713,o),
(128,461,cs)
);
},
{
closed = 0;
nodes = (
(222,452,ls),
(222,642,o),
(345,744,o),
(503,744,cs),
(637,744,o),
(783,642,o),
(783,452,cs)
);
}
);
};
layerId = m004;
shapes = (
{
closed = 1;
nodes = (
(674,-24,o),
(897,91,o),
(897,343,cs),
(897,463,ls),
(897,713,o),
(664,828,o),
(503,828,cs),
(320,828,o),
(108,713,o),
(108,463,cs),
(108,343,ls),
(108,91,o),
(310,-24,o),
(503,-24,cs)
);
},
{
closed = 1;
nodes = (
(345,60,o),
(202,162,o),
(202,352,cs),
(202,452,ls),
(202,642,o),
(348,744,o),
(503,744,cs),
(635,744,o),
(803,642,o),
(803,452,cs),
(803,352,ls),
(803,162,o),
(637,60,o),
(503,60,cs)
);
},
{
closed = 1;
nodes = (
(651,744,o),
(876,863,o),
(876,1101,cs),
(876,1162,ls),
(876,1388,o),
(651,1504,o),
(503,1504,cs),
(334,1504,o),
(131,1388,o),
(131,1162,cs),
(131,1101,ls),
(131,863,o),
(334,744,o),
(503,744,cs)
);
},
{
closed = 1;
nodes = (
(348,828,o),
(228,933,o),
(228,1110,cs),
(228,1152,ls),
(228,1321,o),
(348,1420,o),
(503,1420,cs),
(635,1420,o),
(777,1321,o),
(777,1152,cs),
(777,1110,ls),
(777,933,o),
(635,828,o),
(503,828,cs)
);
}
);
width = 1005;
},
{
background = {
shapes = (
{
closed = 0;
nodes = (
(773,1049,ls),
(773,960,o),
(714,898,o),
(625,898,cs),
(534,898,o),
(474,960,o),
(474,1049,cs)
);
}
);
};
layerId = m005;
shapes = (
{
closed = 1;
nodes = (
(925,-24,o),
(1127,137,o),
(1127,409,cs),
(1127,443,ls),
(1127,769,o),
(856,878,o),
(625,878,cs),
(366,878,o),
(120,769,o),
(120,443,cs),
(120,409,ls),
(120,137,o),
(325,-24,o),
(625,-24,cs)
);
},
{
closed = 1;
nodes = (
(510,255,o),
(430,333,o),
(430,439,cs),
(430,450,ls),
(430,556,o),
(510,634,o),
(625,634,cs),
(740,634,o),
(820,556,o),
(820,450,cs),
(820,439,ls),
(820,333,o),
(740,255,o),
(625,255,cs)
);
},
{
closed = 1;
nodes = (
(811,654,o),
(1089,771,o),
(1089,1072,cs),
(1089,1089,ls),
(1089,1381,o),
(833,1504,o),
(625,1504,cs),
(390,1504,o),
(158,1379,o),
(158,1089,c),
(158,1072,l),
(158,771,o),
(415,654,o),
(625,654,cs)
);
},
{
closed = 1;
nodes = (
(534,898,o),
(474,960,o),
(474,1044,cs),
(474,1078,ls),
(474,1162,o),
(534,1224,o),
(625,1224,cs),
(714,1224,o),
(773,1162,o),
(773,1078,cs),
(773,1044,ls),
(773,960,o),
(714,898,o),
(625,898,cs)
);
}
);
width = 1247;
},
{
layerId = "1B8EDE0E-D46F-48F9-B9C6-2CD34FEA95FD";
shapes = (
{
closed = 1;
nodes = (
(789,-24,o),
(1032,78,o),
(1032,393,cs),
(1032,454,ls),
(1032,712,o),
(767,867,o),
(573,867,cs),
(354,867,o),
(112,712,o),
(112,454,cs),
(112,393,ls),
(112,100,o),
(354,-24,o),
(573,-24,cs)
);
},
{
closed = 1;
nodes = (
(438,152,o),
(318,238,o),
(318,396,cs),
(318,452,ls),
(318,629,o),
(438,705,o),
(573,705,cs),
(683,705,o),
(827,629,o),
(827,452,cs),
(827,396,ls),
(827,215,o),
(683,152,o),
(573,152,cs)
);
},
{
closed = 1;
nodes = (
(744,705,o),
(980,812,o),
(980,1077,cs),
(980,1118,ls),
(980,1390,o),
(773,1504,o),
(573,1504,cs),
(373,1504,o),
(164,1390,o),
(164,1118,cs),
(164,1077,ls),
(164,812,o),
(377,705,o),
(573,705,cs)
);
},
{
closed = 1;
nodes = (
(438,867,o),
(363,943,o),
(363,1078,cs),
(363,1115,ls),
(363,1252,o),
(448,1329,o),
(573,1329,cs),
(698,1329,o),
(780,1252,o),
(780,1115,cs),
(780,1078,ls),
(780,943,o),
(683,867,o),
(573,867,cs)
);
}
);
width = 1144;
}
);
metricRight = "=|";
unicode = 56;
},
{
glyphname = nine;
lastChange = "2025-12-04 12:34:22 +0000";
layers = (
{
layerId = m004;
shapes = (
{
closed = 1;
nodes = (
(207,1480,o),
(63,1293,o),
(63,1062,cs),
(63,939,ls),
(63,708,o),
(205,521,o),
(469,521,cs),
(718,521,o),
(725,662,o),
(813,700,c),
(753,705,l),
(538,397,o),
(459,290,o),
(222,0,cs),
(210,-15,o),
(219,-24,o),
(235,-24,cs),
(303,-24,ls),
(313,-24,o),
(321,-20,o),
(327,-12,cs),
(564,300,ls),
(771,573,o),
(873,726,o),
(873,961,cs),
(873,1062,ls),
(873,1293,o),
(731,1480,o),
(469,1480,cs)
);
},
{
closed = 1;
nodes = (
(647,1396,o),
(781,1276,o),
(781,1052,cs),
(781,949,ls),
(781,725,o),
(646,605,o),
(469,605,cs),
(291,605,o),
(157,724,o),
(157,949,cs),
(157,1052,ls),
(157,1276,o),
(291,1396,o),
(469,1396,cs)
);
}
);
width = 941;
},
{
layerId = m005;
shapes = (
{
closed = 1;
nodes = (
(400,1504,o),
(110,1359,o),
(110,1032,cs),
(110,991,ls),
(110,664,o),
(360,519,o),
(619,519,cs),
(792,519,o),
(934,739,o),
(1053,881,c),
(783,775,l),
(651,551,o),
(491,328,o),
(287,25,cs),
(268,-3,o),
(279,-24,o),
(312,-24,cs),
(569,-24,ls),
(590,-24,o),
(605,-18,o),
(617,0,cs),
(848,340,ls),
(969,518,o),
(1128,731,o),
(1128,991,cs),
(1128,1032,ls),
(1128,1389,o),
(838,1504,o),
(619,1504,cs)
);
},
{
closed = 1;
nodes = (
(723,1272,o),
(818,1208,o),
(818,1048,cs),
(818,975,ls),
(818,815,o),
(723,751,o),
(619,751,cs),
(515,751,o),
(420,815,o),
(420,975,cs),
(420,1048,ls),
(420,1207,o),
(515,1272,o),
(619,1272,cs)
);
}
);
width = 1238;
},
{
layerId = "1B8EDE0E-D46F-48F9-B9C6-2CD34FEA95FD";
shapes = (
{
closed = 1;
nodes = (
(380,1480,o),
(140,1346,o),
(140,1044,cs),
(140,953,ls),
(140,651,o),
(380,517,o),
(581,517,cs),
(746,517,o),
(824,634,o),
(926,744,c),
(752,651,l),
(610,434,o),
(445,226,o),
(286,13,cs),
(271,-7,o),
(280,-24,o),
(305,-24,cs),
(472,-24,ls),
(488,-24,o),
(500,-18,o),
(509,-6,cs),
(782,359,ls),
(935,563,o),
(1022,728,o),
(1022,953,cs),
(1022,1044,ls),
(1022,1346,o),
(782,1480,o),
(581,1480,cs)
);
},
{
closed = 1;
nodes = (
(690,1305,o),
(822,1233,o),
(822,1016,cs),
(822,981,ls),
(822,764,o),
(690,692,o),
(581,692,cs),
(472,692,o),
(340,764,o),
(340,981,cs),
(340,1016,ls),
(340,1233,o),
(472,1305,o),
(581,1305,cs)
);
}
);
width = 1158;
}
);
metricLeft = "=|six";
metricRight = "=|six";
unicode = 57;
},
{
glyphname = period;
lastChange = "2025-12-01 20:22:43 +0000";
layers = (
{
layerId = m004;
shapes = (
{
closed = 1;
nodes = (
(220,-30,o),
(258,7,o),
(258,70,cs),
(258,129,o),
(220,167,o),
(158,167,cs),
(97,167,o),
(59,129,o),
(59,70,cs),
(59,7,o),
(97,-30,o),
(158,-30,cs)
);
}
);
width = 317;
},
{
layerId = m005;
shapes = (
{
closed = 1;
nodes = (
(309,-30,o),
(374,42,o),
(374,151,cs),
(374,254,o),
(309,325,o),
(199,325,cs),
(88,325,o),
(23,254,o),
(23,151,cs),
(23,42,o),
(88,-30,o),
(199,-30,cs)
);
}
);
width = 397;
},
{
layerId = "1B8EDE0E-D46F-48F9-B9C6-2CD34FEA95FD";
shapes = (
{
closed = 1;
nodes = (
(262,-30,o),
(313,26,o),
(313,113,cs),
(313,196,o),
(262,249,o),
(173,249,cs),
(83,249,o),
(32,196,o),
(32,113,cs),
(32,26,o),
(83,-30,o),
(173,-30,cs)
);
}
);
width = 345;
}
);
metricRight = "=|";
unicode = 46;
},
{
glyphname = comma;
lastChange = "2025-11-30 20:03:54 +0000";
layers = (
{
layerId = m004;
shapes = (
{
closed = 1;
nodes = (
(74,-229,ls),
(85,-229,o),
(94,-224,o),
(97,-212,cs),
(216,207,ls),
(220,220,o),
(213,229,o),
(199,229,cs),
(121,229,ls),
(109,229,o),
(102,223,o),
(100,211,cs),
(19,-207,ls),
(16,-220,o),
(23,-229,o),
(37,-229,cs)
);
}
);
width = 273;
},
{
layerId = m005;
shapes = (
{
closed = 1;
nodes = (
(188,-297,ls),
(211,-297,o),
(226,-286,o),
(233,-264,cs),
(397,228,ls),
(406,255,o),
(393,274,o),
(364,274,cs),
(137,274,ls),
(113,274,o),
(98,261,o),
(95,237,cs),
(26,-254,ls),
(22,-281,o),
(36,-297,o),
(63,-297,cs)
);
}
);
width = 442;
},
{
layerId = "1B8EDE0E-D46F-48F9-B9C6-2CD34FEA95FD";
shapes = (
{
closed = 1;
nodes = (
(187,-262,ls),
(204,-262,o),
(215,-255,o),
(220,-237,cs),
(348,217,ls),
(354,237,o),
(344,251,o),
(323,251,cs),
(131,251,ls),
(113,251,o),
(102,243,o),
(99,224,cs),
(28,-230,ls),
(25,-251,o),
(36,-262,o),
(56,-262,cs)
);
}
);
width = 381;
}
);
unicode = 44;
},
{
glyphname = colon;
lastChange = "2025-11-30 20:07:31 +0000";
layers = (
{
layerId = m004;
shapes = (
{
closed = 1;
nodes = (
(220,-30,o),
(258,7,o),
(258,70,cs),
(258,129,o),
(220,167,o),
(158,167,cs),
(97,167,o),
(59,129,o),
(59,70,cs),
(59,7,o),
(97,-30,o),
(158,-30,cs)
);
},
{
closed = 1;
nodes = (
(220,774,o),
(258,812,o),
(258,873,cs),
(258,934,o),
(220,972,o),
(158,972,cs),
(97,972,o),
(59,934,o),
(59,873,cs),
(59,812,o),
(97,774,o),
(158,774,cs)
);
}
);
width = 317;
},
{
layerId = m005;
shapes = (
{
closed = 1;
nodes = (
(303,-30,o),
(368,42,o),
(368,151,cs),
(368,254,o),
(303,325,o),
(193,325,cs),
(81,325,o),
(16,254,o),
(16,151,cs),
(16,42,o),
(81,-30,o),
(193,-30,cs)
);
},
{
closed = 1;
nodes = (
(300,699,o),
(365,771,o),
(365,880,cs),
(365,983,o),
(300,1053,o),
(190,1053,cs),
(80,1053,o),
(15,983,o),
(15,880,cs),
(15,771,o),
(80,699,o),
(190,699,cs)
);
}
);
width = 383;
},
{
layerId = "1B8EDE0E-D46F-48F9-B9C6-2CD34FEA95FD";
shapes = (
{
closed = 1;
nodes = (
(265,-30,o),
(313,23,o),
(313,113,cs),
(313,199,o),
(265,249,o),
(173,249,cs),
(80,249,o),
(32,199,o),
(32,113,cs),
(32,23,o),
(80,-30,o),
(173,-30,cs)
);
},
{
closed = 1;
nodes = (
(265,738,o),
(313,790,o),
(313,880,cs),
(313,966,o),
(265,1016,o),
(173,1016,cs),
(80,1016,o),
(32,966,o),
(32,880,cs),
(32,790,o),
(80,738,o),
(173,738,cs)
);
}
);
width = 345;
}
);
metricRight = "=|";
unicode = 58;
},
{
glyphname = semicolon;
lastChange = "2025-11-30 20:32:31 +0000";
layers = (
{
layerId = m004;
shapes = (
{
closed = 1;
nodes = (
(220,774,o),
(258,812,o),
(258,873,cs),
(258,934,o),
(220,972,o),
(158,972,cs),
(97,972,o),
(59,934,o),
(59,873,cs),
(59,812,o),
(97,774,o),
(158,774,cs)
);
},
{
closed = 1;
nodes = (
(74,-229,ls),
(85,-229,o),
(94,-224,o),
(97,-212,cs),
(216,207,ls),
(220,220,o),
(213,229,o),
(199,229,cs),
(121,229,ls),
(109,229,o),
(102,223,o),
(100,211,cs),
(19,-207,ls),
(16,-220,o),
(23,-229,o),
(37,-229,cs)
);
}
);
width = 276;
},
{
layerId = m005;
shapes = (
{
closed = 1;
nodes = (
(358,699,o),
(423,771,o),
(423,880,cs),
(423,983,o),
(358,1053,o),
(248,1053,cs),
(138,1053,o),
(73,983,o),
(73,880,cs),
(73,771,o),
(138,699,o),
(248,699,cs)
);
},
{
closed = 1;
nodes = (
(188,-297,ls),
(211,-297,o),
(226,-286,o),
(233,-264,cs),
(397,228,ls),
(406,255,o),
(393,274,o),
(364,274,cs),
(137,274,ls),
(113,274,o),
(98,261,o),
(95,237,cs),
(26,-254,ls),
(22,-281,o),
(36,-297,o),
(63,-297,cs)
);
}
);
width = 448;
},
{
layerId = "1B8EDE0E-D46F-48F9-B9C6-2CD34FEA95FD";
shapes = (
{
closed = 1;
nodes = (
(265,738,o),
(313,790,o),
(313,880,cs),
(313,966,o),
(265,1016,o),
(173,1016,cs),
(80,1016,o),
(32,966,o),
(32,880,cs),
(32,790,o),
(80,738,o),
(173,738,cs)
);
},
{
closed = 1;
nodes = (
(144,-262,ls),
(161,-262,o),
(172,-255,o),
(177,-237,cs),
(305,217,ls),
(311,237,o),
(301,251,o),
(280,251,cs),
(88,251,ls),
(70,251,o),
(59,243,o),
(56,224,cs),
(-15,-230,ls),
(-18,-251,o),
(-7,-262,o),
(13,-262,cs)
);
}
);
width = 298;
}
);
metricRight = "=|";
unicode = 59;
},
{
glyphname = exclam;
lastChange = "2025-12-02 11:08:31 +0000";
layers = (
{
layerId = m004;
shapes = (
{
closed = 1;
nodes = (
(217,361,ls),
(230,361,o),
(237,368,o),
(237,381,cs),
(255,1407,l),
(255,1460,ls),
(255,1473,o),
(248,1480,o),
(235,1480,cs),
(172,1480,ls),
(159,1480,o),
(152,1473,o),
(152,1460,cs),
(152,1407,l),
(169,381,ls),
(169,368,o),
(176,361,o),
(189,361,cs)
);
},
{
pos = (45,4);
ref = period;
}
);
width = 407;
},
{
layerId = m005;
shapes = (
{
closed = 1;
nodes = (
(341,428,ls),
(366,428,o),
(381,441,o),
(382,467,cs),
(410,1072,l),
(410,1440,ls),
(410,1466,o),
(396,1480,o),
(370,1480,cs),
(168,1480,ls),
(142,1480,o),
(128,1466,o),
(128,1440,cs),
(128,1072,l),
(156,467,ls),
(157,441,o),
(172,428,o),
(197,428,cs)
);
},
{
pos = (71,4);
ref = period;
}
);
width = 539;
},
{
layerId = "1B8EDE0E-D46F-48F9-B9C6-2CD34FEA95FD";
shapes = (
{
closed = 1;
nodes = (
(339,410,ls),
(358,410,o),
(368,419,o),
(369,439,cs),
(394,1124,l),
(394,1450,ls),
(394,1470,o),
(383,1480,o),
(364,1480,cs),
(190,1480,ls),
(171,1480,o),
(160,1469,o),
(160,1450,cs),
(160,1124,l),
(187,439,ls),
(188,419,o),
(198,410,o),
(217,410,cs)
);
},
{
pos = (105,5);
ref = period;
}
);
width = 555;
}
);
metricRight = "=|";
unicode = 33;
},
{
glyphname = question;
lastChange = "2025-12-02 11:09:54 +0000";
layers = (
{
layerId = m004;
shapes = (
{
closed = 1;
nodes = (
(482,299,ls),
(495,299,o),
(502,306,o),
(502,319,cs),
(502,391,ls),
(502,525,o),
(567,569,o),
(660,656,cs),
(706,699,o),
(883,844,o),
(883,1064,cs),
(883,1318,o),
(729,1504,o),
(481,1504,cs),
(231,1504,o),
(54,1345,o),
(57,1031,cs),
(57,1018,o),
(64,1011,o),
(77,1011,cs),
(122,1011,ls),
(135,1011,o),
(142,1018,o),
(142,1032,cs),
(140,1342,o),
(320,1432,o),
(481,1432,cs),
(632,1432,o),
(799,1318,o),
(799,1064,cs),
(799,879,o),
(639,742,o),
(597,705,cs),
(542,656,o),
(423,566,o),
(423,434,cs),
(423,319,ls),
(423,306,o),
(430,299,o),
(443,299,cs)
);
},
{
pos = (316,0);
ref = period;
}
);
width = 1013;
},
{
layerId = m005;
shapes = (
{
closed = 1;
nodes = (
(657,371,ls),
(683,371,o),
(697,385,o),
(697,411,cs),
(697,454,ls),
(697,551,o),
(818,624,o),
(912,718,cs),
(1001,807,o),
(1061,917,o),
(1061,1071,cs),
(1061,1391,o),
(849,1504,o),
(580,1504,cs),
(314,1504,o),
(89,1330,o),
(64,992,cs),
(62,965,o),
(77,950,o),
(103,950,cs),
(309,950,ls),
(334,950,o),
(347,964,o),
(349,990,cs),
(359,1129,o),
(444,1229,o),
(580,1230,cs),
(740,1231,o),
(777,1153,o),
(777,1076,cs),
(777,981,o),
(741,908,o),
(661,837,cs),
(543,732,o),
(397,631,o),
(397,483,cs),
(397,411,ls),
(397,385,o),
(411,371,o),
(437,371,cs)
);
},
{
pos = (354,5);
ref = period;
}
);
width = 1141;
},
{
layerId = "1B8EDE0E-D46F-48F9-B9C6-2CD34FEA95FD";
shapes = (
{
closed = 1;
nodes = (
(519,326,ls),
(538,326,o),
(549,336,o),
(549,356,cs),
(549,400,ls),
(549,524,o),
(686,625,o),
(740,673,cs),
(806,732,o),
(958,865,o),
(958,1048,cs),
(958,1298,o),
(798,1504,o),
(519,1504,cs),
(272,1504,o),
(81,1384,o),
(70,1051,cs),
(69,1031,o),
(80,1020,o),
(99,1020,cs),
(238,1020,ls),
(257,1020,o),
(268,1031,o),
(269,1050,cs),
(277,1236,o),
(367,1332,o),
(519,1332,cs),
(675,1332,o),
(765,1223,o),
(765,1042,cs),
(765,922,o),
(645,820,o),
(593,772,cs),
(538,721,o),
(365,599,o),
(365,443,cs),
(365,356,ls),
(365,337,o),
(376,326,o),
(395,326,cs)
);
},
{
pos = (293,0);
ref = period;
}
);
width = 1061;
}
);
unicode = 63;
},
{
glyphname = bullet;
lastChange = "2025-12-01 20:46:32 +0000";
layers = (
{
layerId = m004;
shapes = (
{
closed = 1;
nodes = (
(324,596,o),
(377,651,o),
(377,737,cs),
(377,816,o),
(324,870,o),
(239,870,cs),
(151,870,o),
(100,816,o),
(100,737,cs),
(100,651,o),
(151,596,o),
(239,596,cs)
);
}
);
width = 477;
},
{
layerId = m005;
shapes = (
{
closed = 1;
nodes = (
(547,422,o),
(655,539,o),
(655,703,cs),
(655,858,o),
(547,971,o),
(378,971,cs),
(210,971,o),
(100,858,o),
(100,703,cs),
(100,539,o),
(210,422,o),
(378,422,cs)
);
}
);
width = 755;
},
{
layerId = "1B8EDE0E-D46F-48F9-B9C6-2CD34FEA95FD";
shapes = (
{
closed = 1;
nodes = (
(514,457,o),
(608,558,o),
(608,702,cs),
(608,848,o),
(514,949,o),
(367,949,cs),
(217,949,o),
(123,848,o),
(123,702,cs),
(123,558,o),
(217,457,o),
(367,457,cs)
);
}
);
width = 731;
}
);
metricRight = "=|";
unicode = 8226;
},
{
glyphname = asterisk;
lastChange = "2025-12-02 11:08:31 +0000";
layers = (
{
layerId = m004;
shapes = (
{
closed = 1;
nodes = (
(336,1157,l),
(332,910,ls),
(332,897,o),
(339,890,o),
(352,890,cs),
(388,890,ls),
(401,890,o),
(408,897,o),
(408,910,cs),
(404,1157,l),
(616,1030,ls),
(628,1023,o),
(637,1026,o),
(644,1038,cs),
(662,1069,ls),
(668,1080,o),
(666,1090,o),
(654,1096,cs),
(437,1216,l),
(655,1336,l),
(666,1344,o),
(668,1352,o),
(662,1365,c),
(644,1396,ls),
(637,1406,o),
(628,1409,o),
(616,1402,cs),
(404,1276,l),
(408,1523,l),
(408,1536,o),
(401,1543,o),
(388,1543,cs),
(352,1543,ls),
(339,1543,o),
(332,1536,o),
(332,1523,cs),
(336,1276,l),
(124,1403,ls),
(112,1410,o),
(103,1407,o),
(96,1395,cs),
(78,1364,ls),
(72,1353,o),
(74,1343,o),
(86,1337,cs),
(303,1217,l),
(85,1097,l),
(74,1089,o),
(72,1081,o),
(78,1068,c),
(96,1037,ls),
(103,1027,o),
(112,1024,o),
(124,1031,cs)
);
}
);
width = 740;
},
{
layerId = m005;
shapes = (
{
closed = 1;
nodes = (
(368,800,l),
(368,577,ls),
(368,551,o),
(382,537,o),
(408,537,cs),
(603,536,ls),
(629,536,o),
(643,552,o),
(643,577,cs),
(644,801,l),
(836,690,ls),
(859,676,o),
(878,681,o),
(891,703,cs),
(989,872,ls),
(1002,895,o),
(996,914,o),
(973,927,cs),
(780,1038,l),
(974,1150,ls),
(996,1163,o),
(1002,1182,o),
(989,1205,cs),
(891,1374,ls),
(878,1396,o),
(859,1401,o),
(836,1388,cs),
(643,1277,l),
(643,1499,ls),
(643,1526,o),
(629,1540,o),
(603,1540,cs),
(408,1540,ls),
(382,1540,o),
(368,1526,o),
(368,1500,cs),
(368,1276,l),
(175,1388,ls),
(152,1401,o),
(133,1396,o),
(120,1374,cs),
(22,1204,ls),
(9,1182,o),
(15,1164,o),
(38,1150,cs),
(230,1038,l),
(37,927,ls),
(15,914,o),
(9,894,o),
(22,872,cs),
(120,703,ls),
(133,681,o),
(152,676,o),
(175,689,cs)
);
}
);
width = 1011;
},
{
layerId = "1B8EDE0E-D46F-48F9-B9C6-2CD34FEA95FD";
shapes = (
{
closed = 1;
nodes = (
(341,997,l),
(336,770,ls),
(336,750,o),
(347,740,o),
(366,740,cs),
(482,740,ls),
(501,740,o),
(512,751,o),
(512,770,cs),
(507,997,l),
(700,879,ls),
(717,869,o),
(731,873,o),
(741,890,cs),
(799,990,ls),
(809,1007,o),
(805,1022,o),
(788,1031,cs),
(588,1140,l),
(788,1249,ls),
(805,1258,o),
(809,1273,o),
(799,1290,cs),
(741,1390,ls),
(731,1407,o),
(717,1411,o),
(700,1401,cs),
(507,1283,l),
(512,1510,ls),
(512,1530,o),
(501,1540,o),
(482,1540,cs),
(366,1540,ls),
(347,1540,o),
(336,1530,o),
(336,1510,cs),
(341,1283,l),
(148,1401,ls),
(131,1411,o),
(117,1407,o),
(107,1390,cs),
(49,1290,ls),
(39,1273,o),
(43,1258,o),
(60,1249,cs),
(260,1140,l),
(60,1031,ls),
(43,1022,o),
(39,1007,o),
(49,990,cs),
(107,890,ls),
(117,873,o),
(131,869,o),
(148,879,cs)
);
}
);
width = 848;
}
);
metricRight = "=|";
unicode = 42;
},
{
glyphname = numbersign;
lastChange = "2025-12-01 21:38:37 +0000";
layers = (
{
layerId = m004;
shapes = (
{
closed = 1;
nodes = (
(256,22,ls),
(253,9,o),
(260,0,o),
(274,0,cs),
(319,0,ls),
(331,0,o),
(339,6,o),
(341,18,cs),
(630,1458,ls),
(633,1471,o),
(626,1480,o),
(612,1480,cs),
(565,1480,ls),
(553,1480,o),
(545,1474,o),
(543,1462,cs)
);
},
{
closed = 1;
nodes = (
(779,22,ls),
(776,9,o),
(783,0,o),
(797,0,cs),
(842,0,ls),
(854,0,o),
(862,6,o),
(864,18,cs),
(1152,1458,ls),
(1155,1471,o),
(1148,1480,o),
(1134,1480,cs),
(1089,1480,ls),
(1077,1480,o),
(1069,1474,o),
(1067,1462,cs)
);
},
{
closed = 1;
nodes = (
(175,1011,ls),
(175,998,o),
(182,991,o),
(195,991,cs),
(1284,991,ls),
(1297,991,o),
(1304,998,o),
(1304,1011,cs),
(1304,1056,ls),
(1304,1069,o),
(1297,1076,o),
(1284,1076,cs),
(195,1076,ls),
(182,1076,o),
(175,1069,o),
(175,1056,cs)
);
},
{
closed = 1;
nodes = (
(100,474,ls),
(100,461,o),
(107,454,o),
(120,454,cs),
(1210,454,ls),
(1223,454,o),
(1230,461,o),
(1230,474,cs),
(1230,517,ls),
(1230,530,o),
(1223,537,o),
(1210,537,cs),
(120,537,ls),
(107,537,o),
(100,530,o),
(100,517,cs)
);
}
);
width = 1404;
},
{
layerId = m005;
shapes = (
{
closed = 1;
nodes = (
(221,44,ls),
(216,17,o),
(229,0,o),
(257,0,cs),
(476,0,ls),
(500,0,o),
(514,13,o),
(519,36,cs),
(799,1436,ls),
(804,1463,o),
(791,1480,o),
(763,1480,cs),
(543,1480,ls),
(519,1480,o),
(505,1467,o),
(500,1444,cs)
);
},
{
closed = 1;
nodes = (
(743,44,ls),
(738,17,o),
(751,0,o),
(779,0,cs),
(997,0,ls),
(1021,0,o),
(1035,13,o),
(1040,36,cs),
(1322,1436,ls),
(1327,1463,o),
(1314,1480,o),
(1286,1480,cs),
(1066,1480,ls),
(1042,1480,o),
(1028,1467,o),
(1023,1444,cs)
);
},
{
closed = 1;
nodes = (
(145,941,ls),
(145,915,o),
(159,901,o),
(185,901,cs),
(1420,901,ls),
(1446,901,o),
(1460,915,o),
(1460,941,cs),
(1460,1111,ls),
(1460,1137,o),
(1446,1151,o),
(1420,1151,cs),
(185,1151,ls),
(159,1151,o),
(145,1137,o),
(145,1111,cs)
);
},
{
closed = 1;
nodes = (
(70,420,ls),
(70,394,o),
(84,380,o),
(110,380,cs),
(1344,380,ls),
(1370,380,o),
(1384,394,o),
(1384,420,cs),
(1384,581,ls),
(1384,607,o),
(1370,621,o),
(1344,621,cs),
(110,621,ls),
(84,621,o),
(70,607,o),
(70,581,cs)
);
}
);
width = 1510;
},
{
layerId = "1B8EDE0E-D46F-48F9-B9C6-2CD34FEA95FD";
shapes = (
{
closed = 1;
nodes = (
(229,33,ls),
(225,13,o),
(234,0,o),
(255,0,cs),
(399,0,ls),
(417,0,o),
(427,9,o),
(431,27,cs),
(716,1447,ls),
(720,1467,o),
(711,1480,o),
(690,1480,cs),
(544,1480,ls),
(526,1480,o),
(515,1471,o),
(512,1453,cs)
);
},
{
closed = 1;
nodes = (
(782,33,ls),
(778,13,o),
(787,0,o),
(808,0,cs),
(953,0,ls),
(971,0,o),
(982,9,o),
(985,27,cs),
(1269,1447,ls),
(1273,1467,o),
(1264,1480,o),
(1243,1480,cs),
(1098,1480,ls),
(1080,1480,o),
(1070,1471,o),
(1066,1453,cs)
);
},
{
closed = 1;
nodes = (
(165,968,ls),
(165,949,o),
(176,938,o),
(195,938,cs),
(1389,938,ls),
(1408,938,o),
(1419,949,o),
(1419,968,cs),
(1419,1084,ls),
(1419,1104,o),
(1408,1114,o),
(1389,1114,cs),
(195,1114,ls),
(176,1114,o),
(165,1103,o),
(165,1084,cs)
);
},
{
closed = 1;
nodes = (
(80,440,ls),
(80,421,o),
(91,410,o),
(110,410,cs),
(1304,410,ls),
(1323,410,o),
(1334,421,o),
(1334,440,cs),
(1334,552,ls),
(1334,572,o),
(1323,582,o),
(1304,582,cs),
(110,582,ls),
(91,582,o),
(80,572,o),
(80,552,cs)
);
}
);
width = 1489;
}
);
unicode = 35;
},
{
glyphname = slash;
lastChange = "2025-11-30 20:27:33 +0000";
layers = (
{
layerId = m004;
shapes = (
{
closed = 1;
nodes = (
(-22,-417,ls),
(-27,-431,o),
(-20,-440,o),
(-6,-440,cs),
(35,-440,ls),
(46,-440,o),
(54,-435,o),
(58,-424,cs),
(766,1517,ls),
(771,1531,o),
(764,1540,o),
(750,1540,cs),
(709,1540,ls),
(698,1540,o),
(690,1535,o),
(686,1524,cs)
);
}
);
width = 819;
},
{
layerId = m005;
shapes = (
{
closed = 1;
nodes = (
(228,-440,ls),
(251,-440,o),
(266,-429,o),
(274,-408,cs),
(967,1494,ls),
(977,1521,o),
(964,1540,o),
(935,1540,cs),
(726,1540,ls),
(703,1540,o),
(688,1529,o),
(680,1508,cs),
(-13,-394,ls),
(-23,-421,o),
(-10,-440,o),
(19,-440,cs)
);
}
);
width = 1026;
},
{
layerId = "1B8EDE0E-D46F-48F9-B9C6-2CD34FEA95FD";
shapes = (
{
closed = 1;
nodes = (
(156,-440,ls),
(173,-440,o),
(185,-433,o),
(191,-416,cs),
(891,1506,ls),
(898,1527,o),
(889,1540,o),
(867,1540,cs),
(718,1540,ls),
(701,1540,o),
(689,1533,o),
(683,1516,cs),
(-17,-406,ls),
(-24,-427,o),
(-15,-440,o),
(7,-440,cs)
);
}
);
width = 924;
}
);
unicode = 47;
},
{
glyphname = backslash;
lastChange = "2025-12-02 11:08:31 +0000";
layers = (
{
layerId = m004;
shapes = (
{
closed = 1;
nodes = (
(799,-60,ls),
(814,-60,o),
(820,-51,o),
(814,-37,cs),
(94,1525,ls),
(89,1536,o),
(82,1540,o),
(71,1540,cs),
(27,1540,ls),
(12,1540,o),
(6,1531,o),
(12,1517,cs),
(732,-45,ls),
(737,-56,o),
(744,-60,o),
(755,-60,cs)
);
}
);
width = 826;
},
{
layerId = m005;
shapes = (
{
closed = 1;
nodes = (
(1004,-60,ls),
(1034,-60,o),
(1046,-40,o),
(1033,-13,cs),
(306,1510,ls),
(296,1531,o),
(281,1540,o),
(259,1540,cs),
(24,1540,ls),
(-6,1540,o),
(-18,1520,o),
(-5,1493,cs),
(722,-30,ls),
(732,-51,o),
(747,-60,o),
(769,-60,cs)
);
}
);
width = 1028;
},
{
layerId = "1B8EDE0E-D46F-48F9-B9C6-2CD34FEA95FD";
shapes = (
{
closed = 1;
nodes = (
(953,-60,ls),
(976,-60,o),
(985,-46,o),
(975,-25,cs),
(244,1518,ls),
(237,1534,o),
(225,1540,o),
(208,1540,cs),
(72,1540,ls),
(49,1540,o),
(40,1526,o),
(50,1505,cs),
(781,-38,ls),
(788,-54,o),
(800,-60,o),
(817,-60,cs)
);
}
);
width = 1025;
}
);
metricRight = "=|";
unicode = 92;
},
{
glyphname = hyphen;
lastChange = "2025-12-01 21:53:16 +0000";
layers = (
{
layerId = m004;
shapes = (
{
closed = 1;
nodes = (
(100,535,ls),
(100,522,o),
(107,515,o),
(120,515,cs),
(862,515,ls),
(875,515,o),
(882,522,o),
(882,535,cs),
(882,578,ls),
(882,591,o),
(875,598,o),
(862,598,cs),
(120,598,ls),
(107,598,o),
(100,591,o),
(100,578,cs)
);
}
);
width = 982;
},
{
layerId = m005;
shapes = (
{
closed = 1;
nodes = (
(100,346,ls),
(100,320,o),
(114,306,o),
(140,306,cs),
(842,306,ls),
(868,306,o),
(882,320,o),
(882,346,cs),
(882,482,ls),
(882,508,o),
(868,522,o),
(842,522,cs),
(140,522,ls),
(114,522,o),
(100,508,o),
(100,482,cs)
);
}
);
width = 982;
},
{
layerId = "1B8EDE0E-D46F-48F9-B9C6-2CD34FEA95FD";
shapes = (
{
closed = 1;
nodes = (
(100,510,ls),
(100,491,o),
(111,480,o),
(130,480,cs),
(852,480,ls),
(871,480,o),
(882,491,o),
(882,510,cs),
(882,628,ls),
(882,648,o),
(871,658,o),
(852,658,cs),
(130,658,ls),
(111,658,o),
(100,648,o),
(100,628,cs)
);
}
);
width = 982;
}
);
unicode = 45;
},
{
glyphname = endash;
lastChange = "2025-12-01 21:53:50 +0000";
layers = (
{
layerId = m004;
shapes = (
{
closed = 1;
nodes = (
(100,642,ls),
(100,629,o),
(107,622,o),
(120,622,cs),
(988,622,ls),
(1001,622,o),
(1008,629,o),
(1008,642,cs),
(1008,685,ls),
(1008,698,o),
(1001,705,o),
(988,705,cs),
(120,705,ls),
(107,705,o),
(100,698,o),
(100,685,cs)
);
}
);
width = 1108;
},
{
layerId = m005;
shapes = (
{
closed = 1;
nodes = (
(100,554,ls),
(100,528,o),
(114,514,o),
(140,514,cs),
(1184,514,ls),
(1210,514,o),
(1224,528,o),
(1224,554,cs),
(1224,740,ls),
(1224,766,o),
(1210,780,o),
(1184,780,cs),
(140,780,ls),
(114,780,o),
(100,766,o),
(100,740,cs)
);
}
);
width = 1324;
},
{
layerId = "1B8EDE0E-D46F-48F9-B9C6-2CD34FEA95FD";
shapes = (
{
closed = 1;
nodes = (
(100,606,ls),
(100,587,o),
(111,576,o),
(130,576,cs),
(1137,576,ls),
(1156,576,o),
(1167,587,o),
(1167,606,cs),
(1167,721,ls),
(1167,741,o),
(1156,751,o),
(1137,751,cs),
(130,751,ls),
(111,751,o),
(100,740,o),
(100,721,cs)
);
}
);
width = 1267;
}
);
unicode = 8211;
},
{
glyphname = emdash;
lastChange = "2025-12-01 21:53:59 +0000";
layers = (
{
layerId = m004;
shapes = (
{
closed = 1;
nodes = (
(100,642,ls),
(100,629,o),
(107,622,o),
(120,622,cs),
(1740,622,ls),
(1753,622,o),
(1760,629,o),
(1760,642,cs),
(1760,685,ls),
(1760,698,o),
(1753,705,o),
(1740,705,cs),
(120,705,ls),
(107,705,o),
(100,698,o),
(100,685,cs)
);
}
);
width = 1859;
},
{
layerId = m005;
shapes = (
{
closed = 1;
nodes = (
(100,576,ls),
(100,550,o),
(114,536,o),
(140,536,cs),
(1858,536,ls),
(1884,536,o),
(1898,550,o),
(1898,576,cs),
(1898,712,ls),
(1898,738,o),
(1884,752,o),
(1858,752,cs),
(140,752,ls),
(114,752,o),
(100,738,o),
(100,712,cs)
);
}
);
width = 1998;
},
{
layerId = "1B8EDE0E-D46F-48F9-B9C6-2CD34FEA95FD";
shapes = (
{
closed = 1;
nodes = (
(100,658,ls),
(100,639,o),
(111,628,o),
(130,628,cs),
(1832,628,ls),
(1851,628,o),
(1862,639,o),
(1862,658,cs),
(1862,779,ls),
(1862,799,o),
(1851,809,o),
(1832,809,cs),
(130,809,ls),
(111,809,o),
(100,799,o),
(100,779,cs)
);
}
);
width = 1962;
}
);
unicode = 8212;
},
{
glyphname = underscore;
lastChange = "2025-12-01 21:54:17 +0000";
layers = (
{
layerId = m004;
shapes = (
{
closed = 1;
nodes = (
(100,-231,ls),
(100,-244,o),
(107,-251,o),
(120,-251,cs),
(988,-251,ls),
(1001,-251,o),
(1008,-244,o),
(1008,-231,cs),
(1008,-195,ls),
(1008,-182,o),
(1001,-175,o),
(988,-175,cs),
(120,-175,ls),
(107,-175,o),
(100,-182,o),
(100,-195,cs)
);
}
);
width = 1108;
},
{
layerId = m005;
shapes = (
{
closed = 1;
nodes = (
(100,-265,ls),
(100,-291,o),
(114,-305,o),
(140,-305,cs),
(1184,-305,ls),
(1210,-305,o),
(1224,-291,o),
(1224,-265,cs),
(1224,-109,ls),
(1224,-83,o),
(1210,-69,o),
(1184,-69,cs),
(140,-69,ls),
(114,-69,o),
(100,-83,o),
(100,-109,cs)
);
}
);
width = 1324;
},
{
layerId = "1B8EDE0E-D46F-48F9-B9C6-2CD34FEA95FD";
shapes = (
{
closed = 1;
nodes = (
(100,-221,ls),
(100,-241,o),
(111,-251,o),
(130,-251,cs),
(1139,-251,ls),
(1158,-251,o),
(1169,-240,o),
(1169,-221,cs),
(1169,-101,ls),
(1169,-82,o),
(1158,-71,o),
(1139,-71,cs),
(130,-71,ls),
(111,-71,o),
(100,-82,o),
(100,-101,cs)
);
}
);
width = 1269;
}
);
unicode = 95;
},
{
glyphname = parenleft;
lastChange = "2025-12-01 22:01:20 +0000";
layers = (
{
layerId = m004;
shapes = (
{
closed = 1;
nodes = (
(100,365,o),
(297,33,o),
(437,-192,cs),
(442,-199,o),
(451,-198,o),
(461,-189,cs),
(488,-166,ls),
(497,-158,o),
(499,-149,o),
(493,-139,cs),
(361,58,o),
(181,411,o),
(181,831,cs),
(181,1252,o),
(361,1605,o),
(493,1802,cs),
(499,1812,o),
(497,1821,o),
(488,1829,cs),
(461,1852,ls),
(451,1860,o),
(440,1860,o),
(433,1848,cs),
(293,1622,o),
(100,1293,o),
(100,831,cs)
);
}
);
width = 596;
},
{
layerId = m005;
shapes = (
{
closed = 1;
nodes = (
(100,372,o),
(291,43,o),
(432,-183,cs),
(441,-196,o),
(457,-195,o),
(479,-181,cs),
(614,-94,ls),
(636,-80,o),
(640,-61,o),
(627,-39,cs),
(495,166,o),
(342,422,o),
(342,831,cs),
(342,1241,o),
(495,1497,o),
(627,1703,cs),
(640,1725,o),
(636,1744,o),
(614,1758,cs),
(479,1844,ls),
(457,1858,o),
(438,1854,o),
(424,1832,cs),
(284,1607,o),
(100,1282,o),
(100,831,cs)
);
}
);
width = 734;
},
{
layerId = "1B8EDE0E-D46F-48F9-B9C6-2CD34FEA95FD";
shapes = (
{
closed = 1;
nodes = (
(100,114,o),
(283,-217,o),
(435,-442,cs),
(442,-452,o),
(454,-452,o),
(470,-441,cs),
(588,-363,ls),
(604,-352,o),
(607,-339,o),
(597,-322,cs),
(465,-121,o),
(312,163,o),
(312,579,cs),
(312,992,o),
(465,1276,o),
(597,1479,cs),
(607,1495,o),
(604,1509,o),
(588,1520,cs),
(470,1596,ls),
(453,1607,o),
(439,1604,o),
(429,1588,cs),
(278,1362,o),
(100,1034,o),
(100,579,cs)
);
}
);
width = 703;
}
);
unicode = 40;
},
{
glyphname = parenright;
lastChange = "2025-11-30 20:55:48 +0000";
layers = (
{
layerId = m004;
shapes = (
{
closed = 1;
nodes = (
(497,1298,o),
(300,1630,o),
(159,1855,cs),
(154,1862,o),
(146,1861,o),
(136,1852,cs),
(108,1829,ls),
(99,1821,o),
(97,1812,o),
(104,1802,cs),
(236,1605,o),
(415,1252,o),
(415,831,cs),
(415,411,o),
(236,58,o),
(104,-139,cs),
(97,-149,o),
(99,-158,o),
(108,-166,cs),
(135,-189,ls),
(145,-198,o),
(156,-197,o),
(163,-185,cs),
(304,41,o),
(497,370,o),
(497,831,cs)
);
}
);
width = 597;
},
{
layerId = m005;
shapes = (
{
closed = 1;
nodes = (
(634,1291,o),
(443,1620,o),
(302,1846,cs),
(293,1859,o),
(277,1858,o),
(255,1844,cs),
(120,1758,ls),
(98,1744,o),
(94,1725,o),
(108,1703,cs),
(241,1497,o),
(392,1241,o),
(392,831,cs),
(392,422,o),
(241,166,o),
(108,-39,cs),
(94,-61,o),
(98,-80,o),
(120,-94,cs),
(255,-181,ls),
(277,-195,o),
(296,-191,o),
(310,-169,cs),
(450,56,o),
(634,381,o),
(634,831,cs)
);
}
);
width = 734;
},
{
layerId = "1B8EDE0E-D46F-48F9-B9C6-2CD34FEA95FD";
shapes = (
{
closed = 1;
nodes = (
(603,1041,o),
(420,1372,o),
(268,1597,cs),
(261,1607,o),
(250,1607,o),
(233,1596,cs),
(115,1520,ls),
(99,1509,o),
(96,1495,o),
(106,1479,cs),
(238,1276,o),
(392,992,o),
(392,579,cs),
(392,163,o),
(238,-121,o),
(106,-322,cs),
(96,-339,o),
(99,-352,o),
(115,-363,cs),
(233,-441,ls),
(249,-452,o),
(264,-449,o),
(274,-433,cs),
(425,-207,o),
(603,121,o),
(603,579,cs)
);
}
);
width = 703;
}
);
unicode = 41;
},
{
glyphname = braceleft;
lastChange = "2025-12-02 11:35:07 +0000";
layers = (
{
background = {
shapes = (
{
closed = 1;
nodes = (
(265,741,o),
(335,787,o),
(335,930,cs),
(335,1595,l),
(335,1727,o),
(378,1740,o),
(447,1740,cs),
(461,1740,ls),
(474,1740,o),
(481,1747,o),
(481,1760,cs),
(481,1800,ls),
(481,1813,o),
(474,1820,o),
(461,1820,cs),
(447,1820,ls),
(317,1820,o),
(247,1774,o),
(247,1631,cs),
(247,966,ls),
(247,834,o),
(204,821,o),
(135,821,cs),
(121,821,ls),
(109,821,o),
(101,815,o),
(101,803,cs),
(101,800,o),
(101,762,o),
(101,759,cs),
(103,747,o),
(109,741,o),
(121,741,cs),
(135,741,ls)
);
}
);
};
layerId = m004;
shapes = (
{
closed = 1;
nodes = (
(265,725,o),
(335,771,o),
(335,914,cs),
(335,1595,ls),
(335,1727,o),
(378,1740,o),
(447,1740,cs),
(461,1740,ls),
(474,1740,o),
(481,1747,o),
(481,1760,cs),
(481,1800,ls),
(481,1813,o),
(474,1820,o),
(461,1820,cs),
(447,1820,ls),
(317,1820,o),
(247,1774,o),
(247,1631,cs),
(247,950,ls),
(247,818,o),
(204,805,o),
(135,805,cs),
(121,805,ls),
(108,805,o),
(101,798,o),
(101,785,cs),
(101,745,ls),
(101,732,o),
(108,725,o),
(121,725,cs),
(135,725,ls)
);
},
{
closed = 1;
nodes = (
(121,805,ls),
(108,805,o),
(101,798,o),
(101,785,cs),
(101,745,ls),
(101,732,o),
(108,725,o),
(121,725,cs),
(135,725,ls),
(204,725,o),
(247,712,o),
(247,580,cs),
(247,-81,ls),
(247,-224,o),
(317,-270,o),
(447,-270,cs),
(461,-270,ls),
(474,-270,o),
(481,-263,o),
(481,-250,cs),
(481,-210,ls),
(481,-197,o),
(474,-190,o),
(461,-190,cs),
(447,-190,ls),
(378,-190,o),
(335,-177,o),
(335,-45,cs),
(335,616,ls),
(335,759,o),
(265,805,o),
(135,805,cs)
);
}
);
width = 501;
},
{
layerId = m005;
shapes = (
{
closed = 1;
nodes = (
(328,724,o),
(514,768,o),
(514,927,cs),
(514,1588,ls),
(514,1648,o),
(537,1681,o),
(613,1681,cs),
(670,1681,ls),
(696,1681,o),
(710,1695,o),
(710,1721,cs),
(710,1920,ls),
(710,1946,o),
(696,1960,o),
(670,1960,cs),
(479,1960,ls),
(312,1960,o),
(206,1888,o),
(206,1689,cs),
(206,1027,ls),
(206,968,o),
(183,933,o),
(107,933,cs),
(50,933,ls),
(24,933,o),
(10,919,o),
(10,893,cs),
(10,694,ls),
(10,668,o),
(24,724,o),
(50,724,cs),
(241,724,ls)
);
},
{
closed = 1;
nodes = (
(50,863,ls),
(24,863,o),
(10,919,o),
(10,893,cs),
(10,694,ls),
(10,668,o),
(24,654,o),
(50,654,cs),
(107,654,ls),
(183,654,o),
(206,619,o),
(206,560,cs),
(206,-102,ls),
(206,-301,o),
(312,-373,o),
(479,-373,cs),
(670,-373,ls),
(696,-373,o),
(710,-359,o),
(710,-333,cs),
(710,-134,ls),
(710,-108,o),
(696,-94,o),
(670,-94,cs),
(613,-94,ls),
(537,-94,o),
(514,-61,o),
(514,-1,cs),
(514,660,ls),
(514,819,o),
(328,863,o),
(241,863,cs)
);
}
);
width = 720;
},
{
layerId = "1B8EDE0E-D46F-48F9-B9C6-2CD34FEA95FD";
shapes = (
{
closed = 1;
nodes = (
(356,676,o),
(450,743,o),
(450,927,cs),
(450,1561,ls),
(450,1640,o),
(476,1666,o),
(550,1666,cs),
(636,1666,ls),
(655,1666,o),
(666,1677,o),
(666,1696,cs),
(666,1810,ls),
(666,1830,o),
(655,1840,o),
(636,1840,cs),
(498,1840,ls),
(340,1840,o),
(246,1774,o),
(246,1590,cs),
(246,955,ls),
(246,877,o),
(220,850,o),
(146,850,cs),
(60,850,ls),
(41,850,o),
(30,840,o),
(30,820,cs),
(30,706,ls),
(30,686,o),
(41,676,o),
(60,676,cs),
(198,676,ls)
);
},
{
closed = 1;
nodes = (
(60,850,ls),
(41,850,o),
(30,840,o),
(30,820,cs),
(30,706,ls),
(30,686,o),
(41,676,o),
(60,676,cs),
(146,676,ls),
(220,676,o),
(246,649,o),
(246,571,cs),
(246,-64,ls),
(246,-248,o),
(340,-314,o),
(498,-314,cs),
(636,-314,ls),
(655,-314,o),
(666,-304,o),
(666,-284,cs),
(666,-170,ls),
(666,-151,o),
(655,-140,o),
(636,-140,cs),
(550,-140,ls),
(476,-140,o),
(450,-114,o),
(450,-35,cs),
(450,599,ls),
(450,783,o),
(356,850,o),
(198,850,cs)
);
}
);
width = 686;
}
);
metricRight = "=bracketleft";
unicode = 123;
},
{
glyphname = bracketleft;
lastChange = "2025-12-02 11:16:17 +0000";
layers = (
{
background = {
shapes = (
{
closed = 1;
nodes = (
(158,-117,l),
(158,-47,l),
(108,-47,ls),
(83,-47,o),
(75,-35,o),
(75,-15,cs),
(75,450,ls),
(75,471,o),
(83,483,o),
(108,483,cs),
(158,483,l),
(158,552,l),
(85,552,ls),
(28,552,o),
(-9,527,o),
(-9,458,cs),
(-9,-23,ls),
(-9,-92,o),
(28,-117,o),
(85,-117,cs)
);
}
);
};
layerId = m004;
shapes = (
{
closed = 1;
nodes = (
(344,-270,ls),
(357,-270,o),
(364,-263,o),
(364,-250,cs),
(364,-209,ls),
(364,-196,o),
(357,-189,o),
(344,-189,cs),
(330,-189,ls),
(261,-189,o),
(218,-175,o),
(218,-44,cs),
(218,1595,ls),
(218,1727,o),
(261,1740,o),
(330,1740,cs),
(344,1740,ls),
(357,1740,o),
(364,1747,o),
(364,1760,cs),
(364,1800,ls),
(364,1813,o),
(357,1820,o),
(344,1820,cs),
(330,1820,ls),
(200,1820,o),
(130,1774,o),
(130,1631,cs),
(130,-80,ls),
(130,-223,o),
(200,-270,o),
(330,-270,cs)
);
}
);
width = 384;
},
{
layerId = m005;
shapes = (
{
closed = 1;
nodes = (
(587,-370,ls),
(613,-370,o),
(627,-356,o),
(627,-330,cs),
(627,-131,ls),
(627,-105,o),
(613,-91,o),
(587,-91,cs),
(530,-91,ls),
(454,-91,o),
(431,-56,o),
(431,3,cs),
(431,1588,ls),
(431,1648,o),
(454,1681,o),
(530,1681,cs),
(587,1681,ls),
(613,1681,o),
(627,1695,o),
(627,1721,cs),
(627,1920,ls),
(627,1946,o),
(613,1960,o),
(587,1960,cs),
(396,1960,ls),
(229,1960,o),
(123,1888,o),
(123,1689,cs),
(123,-97,ls),
(123,-296,o),
(229,-370,o),
(396,-370,cs)
);
}
);
width = 637;
},
{
layerId = "1B8EDE0E-D46F-48F9-B9C6-2CD34FEA95FD";
shapes = (
{
closed = 1;
nodes = (
(540,-285,ls),
(559,-285,o),
(570,-275,o),
(570,-255,cs),
(570,-141,ls),
(570,-121,o),
(559,-111,o),
(540,-111,cs),
(454,-111,ls),
(380,-111,o),
(354,-84,o),
(354,-6,cs),
(354,1561,ls),
(354,1640,o),
(380,1666,o),
(454,1666,cs),
(540,1666,ls),
(559,1666,o),
(570,1677,o),
(570,1696,cs),
(570,1810,ls),
(570,1830,o),
(559,1840,o),
(540,1840,cs),
(402,1840,ls),
(244,1840,o),
(150,1774,o),
(150,1590,cs),
(150,-34,ls),
(150,-218,o),
(244,-285,o),
(402,-285,cs)
);
}
);
width = 590;
}
);
metricLeft = "=H";
unicode = 91;
},
{
glyphname = quotesinglbase;
lastChange = "2025-11-30 20:55:50 +0000";
layers = (
{
layerId = m004;
shapes = (
{
closed = 1;
nodes = (
(156,-229,ls),
(167,-229,o),
(176,-224,o),
(179,-212,cs),
(298,207,ls),
(302,220,o),
(295,229,o),
(281,229,cs),
(203,229,ls),
(191,229,o),
(184,223,o),
(182,211,cs),
(101,-207,ls),
(98,-220,o),
(105,-229,o),
(119,-229,cs)
);
}
);
width = 399;
},
{
layerId = m005;
shapes = (
{
closed = 1;
nodes = (
(263,-297,ls),
(286,-297,o),
(301,-286,o),
(308,-264,cs),
(472,228,ls),
(481,255,o),
(468,274,o),
(439,274,cs),
(212,274,ls),
(188,274,o),
(173,261,o),
(170,237,cs),
(101,-254,ls),
(97,-281,o),
(111,-297,o),
(138,-297,cs)
);
}
);
width = 575;
},
{
layerId = "1B8EDE0E-D46F-48F9-B9C6-2CD34FEA95FD";
shapes = (
{
closed = 1;
nodes = (
(259,-262,ls),
(276,-262,o),
(287,-255,o),
(292,-237,cs),
(420,217,ls),
(426,237,o),
(416,251,o),
(395,251,cs),
(203,251,ls),
(185,251,o),
(174,243,o),
(171,224,cs),
(100,-230,ls),
(97,-251,o),
(108,-262,o),
(128,-262,cs)
);
}
);
width = 522;
}
);
unicode = 8218;
},
{
glyphname = quoteleft;
lastChange = "2025-11-30 20:23:50 +0000";
layers = (
{
layerId = m004;
shapes = (
{
closed = 1;
nodes = (
(206,1633,l),
(100,1219,l),
(251,1219,l),
(309,1633,l)
);
}
);
width = 409;
},
{
layerId = m005;
shapes = (
{
closed = 1;
nodes = (
(281,1633,l),
(100,1219,l),
(401,1219,l),
(499,1633,l)
);
}
);
width = 599;
},
{
layerId = "1B8EDE0E-D46F-48F9-B9C6-2CD34FEA95FD";
shapes = (
{
closed = 1;
nodes = (
(365,1633,l),
(100,1633,l),
(281,1219,l),
(461,1219,l)
);
}
);
width = 561;
}
);
unicode = 8216;
},
{
glyphname = quoteright;
lastChange = "2025-11-30 20:23:50 +0000";
layers = (
{
layerId = m004;
shapes = (
{
closed = 1;
nodes = (
(203,1219,l),
(307,1633,l),
(157,1633,l),
(100,1219,l)
);
}
);
width = 407;
},
{
layerId = m005;
shapes = (
{
closed = 1;
nodes = (
(316,1219,l),
(496,1633,l),
(196,1633,l),
(100,1219,l)
);
}
);
width = 596;
},
{
layerId = "1B8EDE0E-D46F-48F9-B9C6-2CD34FEA95FD";
shapes = (
{
closed = 1;
nodes = (
(277,1219,l),
(458,1633,l),
(196,1633,l),
(100,1219,l)
);
}
);
width = 558;
}
);
unicode = 8217;
},
{
glyphname = guillemetleft;
lastChange = "2025-11-30 20:23:50 +0000";
layers = (
{
layerId = m004;
shapes = (
{
closed = 1;
nodes = (
(290,767,l),
(100,428,l),
(290,88,l),
(385,88,l),
(203,423,l),
(384,767,l)
);
},
{
closed = 1;
nodes = (
(528,767,l),
(338,428,l),
(528,88,l),
(623,88,l),
(441,423,l),
(620,767,l)
);
}
);
width = 723;
},
{
layerId = m005;
shapes = (
{
closed = 1;
nodes = (
(289,767,l),
(100,428,l),
(289,88,l),
(488,88,l),
(305,423,l),
(486,767,l)
);
},
{
closed = 1;
nodes = (
(678,767,l),
(488,428,l),
(678,88,l),
(876,88,l),
(693,423,l),
(875,767,l)
);
}
);
width = 976;
},
{
layerId = "1B8EDE0E-D46F-48F9-B9C6-2CD34FEA95FD";
shapes = (
{
closed = 1;
nodes = (
(289,767,l),
(100,428,l),
(289,88,l),
(463,88,l),
(280,423,l),
(460,767,l)
);
},
{
closed = 1;
nodes = (
(638,767,l),
(450,428,l),
(638,88,l),
(812,88,l),
(630,423,l),
(809,767,l)
);
}
);
width = 912;
}
);
unicode = 171;
},
{
glyphname = guillemetright;
lastChange = "2025-11-30 20:23:50 +0000";
layers = (
{
layerId = m004;
shapes = (
{
closed = 1;
nodes = (
(520,423,l),
(338,88,l),
(433,88,l),
(623,428,l),
(433,767,l),
(340,767,l)
);
},
{
closed = 1;
nodes = (
(282,423,l),
(100,88,l),
(195,88,l),
(385,428,l),
(195,767,l),
(103,767,l)
);
}
);
width = 723;
},
{
layerId = m005;
shapes = (
{
closed = 1;
nodes = (
(670,423,l),
(488,88,l),
(686,88,l),
(876,428,l),
(686,767,l),
(490,767,l)
);
},
{
closed = 1;
nodes = (
(283,423,l),
(100,88,l),
(299,88,l),
(488,428,l),
(299,767,l),
(102,767,l)
);
}
);
width = 976;
},
{
layerId = "1B8EDE0E-D46F-48F9-B9C6-2CD34FEA95FD";
shapes = (
{
closed = 1;
nodes = (
(633,423,l),
(450,88,l),
(622,88,l),
(812,428,l),
(622,767,l),
(451,767,l)
);
},
{
closed = 1;
nodes = (
(283,423,l),
(100,88,l),
(273,88,l),
(463,428,l),
(273,767,l),
(102,767,l)
);
}
);
width = 912;
}
);
unicode = 187;
},
{
glyphname = guilsinglleft;
lastChange = "2025-11-30 20:23:50 +0000";
layers = (
{
layerId = m004;
shapes = (
{
closed = 1;
nodes = (
(290,767,l),
(100,428,l),
(290,88,l),
(385,88,l),
(203,423,l),
(384,767,l)
);
}
);
width = 485;
},
{
layerId = m005;
shapes = (
{
closed = 1;
nodes = (
(289,767,l),
(100,428,l),
(289,88,l),
(488,88,l),
(305,423,l),
(486,767,l)
);
}
);
width = 588;
},
{
layerId = "1B8EDE0E-D46F-48F9-B9C6-2CD34FEA95FD";
shapes = (
{
closed = 1;
nodes = (
(289,767,l),
(100,428,l),
(289,88,l),
(463,88,l),
(280,423,l),
(460,767,l)
);
}
);
width = 563;
}
);
unicode = 8249;
},
{
glyphname = guilsinglright;
lastChange = "2025-11-30 20:23:50 +0000";
layers = (
{
layerId = m004;
shapes = (
{
closed = 1;
nodes = (
(282,423,l),
(100,88,l),
(195,88,l),
(385,428,l),
(195,767,l),
(103,767,l)
);
}
);
width = 485;
},
{
layerId = m005;
shapes = (
{
closed = 1;
nodes = (
(283,423,l),
(100,88,l),
(299,88,l),
(488,428,l),
(299,767,l),
(102,767,l)
);
}
);
width = 588;
},
{
layerId = "1B8EDE0E-D46F-48F9-B9C6-2CD34FEA95FD";
shapes = (
{
closed = 1;
nodes = (
(283,423,l),
(100,88,l),
(273,88,l),
(463,428,l),
(273,767,l),
(102,767,l)
);
}
);
width = 563;
}
);
unicode = 8250;
},
{
glyphname = quotedbl;
lastChange = "2025-11-30 20:23:50 +0000";
layers = (
{
layerId = m004;
shapes = (
{
closed = 1;
nodes = (
(191,595,l),
(219,960,l),
(100,960,l),
(128,595,l)
);
},
{
closed = 1;
nodes = (
(452,595,l),
(480,960,l),
(361,960,l),
(389,595,l)
);
}
);
width = 580;
},
{
layerId = m005;
shapes = (
{
closed = 1;
nodes = (
(306,525,l),
(332,1028,l),
(100,1028,l),
(127,525,l)
);
},
{
closed = 1;
nodes = (
(633,525,l),
(661,1028,l),
(429,1028,l),
(456,525,l)
);
}
);
width = 761;
},
{
layerId = "1B8EDE0E-D46F-48F9-B9C6-2CD34FEA95FD";
shapes = (
{
closed = 1;
nodes = (
(278,542,l),
(306,1011,l),
(100,1011,l),
(127,542,l)
);
},
{
closed = 1;
nodes = (
(588,542,l),
(616,1011,l),
(413,1011,l),
(439,542,l)
);
}
);
width = 716;
}
);
unicode = 34;
},
{
glyphname = quotesingle;
lastChange = "2025-11-30 20:23:50 +0000";
layers = (
{
layerId = m004;
shapes = (
{
closed = 1;
nodes = (
(190,1108,l),
(213,1485,l),
(100,1485,l),
(123,1108,l)
);
}
);
width = 313;
},
{
layerId = m005;
shapes = (
{
closed = 1;
nodes = (
(381,972,l),
(419,1485,l),
(100,1485,l),
(139,972,l)
);
}
);
width = 519;
},
{
layerId = "1B8EDE0E-D46F-48F9-B9C6-2CD34FEA95FD";
shapes = (
{
closed = 1;
nodes = (
(278,1108,l),
(316,1485,l),
(100,1485,l),
(139,1108,l)
);
}
);
width = 416;
}
);
unicode = 39;
},
